<svg width="24" height="24" viewBox="0 0 24 24" fill="none" xmlns="http://www.w3.org/2000/svg">
<path d="M12 12.8531L21.275 5.44053C20.9189 5.15812 20.4673 5.00211 20 5H4C3.53267 5.00211 3.08115 5.15812 2.725 5.44053L12 12.8531Z" fill="#3E352B"/>
<path d="M13.25 14.3119C12.8861 14.5717 12.4412 14.7136 11.983 14.716C11.556 14.7168 11.1403 14.5877 10.799 14.3483L2 7.3184V17.1333C2 17.6284 2.21071 18.1032 2.58579 18.4533C2.96086 18.8033 3.46957 19 4 19H20C20.5304 19 21.0391 18.8033 21.4142 18.4533C21.7893 18.1032 22 17.6284 22 17.1333V7.3184L13.25 14.3119Z" fill="#3E352B"/>
</svg>
