<svg width="24" height="24" viewBox="0 0 24 24" fill="none" xmlns="http://www.w3.org/2000/svg">
<path d="M4 15.5871L5.423 14.1631C4.80736 13.5593 4.32709 12.8315 4.014 12.0281C4.376 11.0581 7.745 7.00008 12 7.00008C12.185 7.00008 12.361 7.03008 12.541 7.04508L14.276 5.31008C13.5337 5.10965 12.7688 5.00546 12 5.00008C6.612 5.00008 2 10.3361 2 12.0001C2.26081 13.3807 2.96262 14.6394 4 15.5871Z" fill="#3E352B"/>
<path fill-rule="evenodd" clip-rule="evenodd" d="M3.44451 20.8315C3.60892 20.9414 3.80222 21 3.99997 21.0001C4.26516 21 4.51948 20.8946 4.70697 20.7071L9.96834 15.4457C10.5827 15.808 11.2841 16.0001 12 16.0001C13.0609 16.0001 14.0783 15.5787 14.8284 14.8285C15.5786 14.0784 16 13.0609 16 12.0001C16 11.2842 15.8079 10.5828 15.4456 9.96842L20.707 4.70708C20.8025 4.61483 20.8787 4.50449 20.9311 4.38249C20.9835 4.26048 21.0111 4.12926 21.0122 3.99648C21.0134 3.8637 20.9881 3.73202 20.9378 3.60913C20.8875 3.48623 20.8133 3.37458 20.7194 3.28069C20.6255 3.18679 20.5138 3.11254 20.3909 3.06226C20.268 3.01198 20.1363 2.98668 20.0036 2.98783C19.8708 2.98898 19.7396 3.01657 19.6176 3.06898C19.4956 3.12139 19.3852 3.19757 19.293 3.29308L14.0316 8.55442C13.8713 8.45991 13.704 8.37634 13.5307 8.30456C12.7998 8.00181 11.9956 7.9226 11.2196 8.07694C10.4437 8.23128 9.73098 8.61224 9.17157 9.17165C8.61216 9.73106 8.2312 10.4438 8.07686 11.2197C7.92252 11.9956 8.00173 12.7999 8.30448 13.5308C8.37626 13.7041 8.45984 13.8714 8.55435 14.0317L3.29297 19.2931C3.15316 19.4329 3.05795 19.6111 3.01939 19.805C2.98082 19.999 3.00062 20.2 3.07629 20.3827C3.15196 20.5654 3.2801 20.7216 3.44451 20.8315ZM11.4822 13.9319C11.5243 13.9432 11.5669 13.9531 11.6098 13.9616C11.9978 14.0388 12.3999 13.9992 12.7654 13.8478C13.1308 13.6965 13.4432 13.4401 13.6629 13.1112C13.8827 12.7823 14 12.3956 14 12.0001C14 11.8237 13.9767 11.6497 13.9318 11.4822L11.4822 13.9319ZM12.5178 10.0683L10.0682 12.5179C10.0569 12.4758 10.047 12.4332 10.0384 12.3903C9.96126 12.0023 10.0009 11.6002 10.1522 11.2347C10.3036 10.8693 10.56 10.5569 10.8889 10.3371C11.2178 10.1174 11.6044 10.0001 12 10.0001C12.1764 10.0001 12.3503 10.0234 12.5178 10.0683Z" fill="#3E352B"/>
<path d="M19.821 8.59308L18.4 10.0101C19.0378 10.5898 19.5727 11.2735 19.982 12.0321C19.2699 13.5398 18.1382 14.8104 16.7226 15.6915C15.3069 16.5726 13.6673 17.0269 12 17.0001C11.807 17.0001 11.622 16.9881 11.437 16.9781L9.665 18.7491C10.4324 18.9144 11.215 18.9985 12 19.0001C18.453 19.0001 22 13.7421 22 12.0001C22 10.8341 20.363 9.12608 19.821 8.59308Z" fill="#3E352B"/>
</svg>
