<svg width="658" height="512" viewBox="0 0 658 512" fill="none" xmlns="http://www.w3.org/2000/svg">
<g clip-path="url(#clip0_1158_132)">
<path d="M576 261.5C576 399.571 464.071 511.5 326 511.5C187.929 511.5 76 399.571 76 261.5C76 123.429 187.929 11.5 326 11.5C464.071 11.5 576 123.429 576 261.5Z" fill="#FEFDFC"/>
<path fill-rule="evenodd" clip-rule="evenodd" d="M224.902 236.116C226.92 257.209 228.938 278.303 230.955 299.396C241.94 292.906 252.925 286.415 263.909 279.925V327.979V340.61C263.909 341.727 263.268 345.567 263.909 346.535C264.452 347.355 268.477 347.379 269.429 347.517C275.64 348.418 281.865 349.219 288.1 349.932C304.531 351.811 322.118 354.502 338.611 352.343C352.949 350.466 366.848 345.186 379.948 339.042C384.546 336.885 389.081 334.576 393.531 332.109C394.475 331.586 397.9 330.351 398.413 329.286C398.832 328.416 397.849 325.36 397.718 324.446C397.164 320.592 396.611 316.737 396.057 312.884L388.327 259.063L402.931 274.164C404.075 275.347 406.247 278.705 407.83 279.23C408.991 279.614 411.865 278.424 413.013 278.196C421.281 276.545 429.551 274.895 437.82 273.246C439.746 272.861 444.088 272.876 445.712 271.671C446.587 271.021 446.628 269.701 446.936 268.449C448.953 260.267 450.97 252.086 452.987 243.905C453.35 242.431 455.377 237.785 454.862 236.301C454.677 235.769 453.783 235.405 453.235 235.058C440.755 227.165 428.274 219.272 415.793 211.379C408.957 207.055 402.12 202.731 395.283 198.407C392.419 196.596 388.901 193.332 385.656 192.319C383.642 191.69 380.711 192.161 378.626 192.099C374.39 191.974 370.154 191.849 365.918 191.724C365.255 191.704 362.932 191.215 362.374 191.619C361.909 191.956 362.102 192.425 361.95 193.228C361.577 195.187 361.574 197.301 361.391 199.29C361.243 200.887 361.536 203.814 360.841 205.259C360.397 206.183 360.96 205.815 360.36 206.261C359.645 206.793 357.362 206.622 356.511 206.724C352.361 207.223 348.209 207.722 344.058 208.222C339.123 208.815 334.133 209.929 329.174 209.416C321.658 208.639 313.553 208.677 306.172 207.037C304.254 206.611 303.563 205.492 302.083 203.962C299.195 200.977 296.336 197.956 293.417 195.001C291.986 193.553 292.598 193.799 291.124 194.348C289.275 195.036 287.4 196.696 285.726 197.752C279.315 201.796 272.904 205.839 266.493 209.883L227.352 234.571C226.535 235.086 225.719 235.6 224.902 236.116Z" fill="#23B5D3"/>
<path fill-rule="evenodd" clip-rule="evenodd" d="M599.278 238.738C591.209 270.456 574.982 305.041 542.289 315.151C534.34 317.609 526.607 319.465 518.352 318.529C517.566 318.44 516.909 318.554 516.161 318.569C514.822 318.595 515.979 319.093 514.477 318.613C513.306 318.239 512.21 317.303 510.99 316.889C507.745 315.79 504.287 315.577 500.99 314.689C492.889 312.507 484.54 309.813 476.69 306.803C472.994 305.386 469.597 303.413 466.12 301.515C462.586 299.586 458.841 298.388 455.267 296.619C452.442 295.22 447.603 293.397 445.618 290.774C443.5 287.976 446.43 282.02 447.267 279.046C450.114 268.926 453.506 258.954 455.646 248.632C463.036 257.5 473.292 262.992 483.91 266.534C489.671 268.456 495.598 269.846 501.59 270.715C507.031 271.504 512.9 272.46 518.354 271.339C522.471 270.493 527.638 268.534 530.579 265.28C531.628 264.118 532.887 261.989 532.299 260.302C531.553 258.16 529.378 259.168 528.201 257.569C527.176 256.177 527.337 252.921 527.01 251.225C526.432 248.225 525.638 245.306 524.669 242.418C522.788 236.81 520.444 231.189 519.882 225.221C519.394 220.043 520.533 215.147 523.027 210.655C524.206 208.531 527.166 202.753 530.055 202.993C533.228 203.256 528.949 217.101 528.809 219.926C528.255 231.121 529.705 243.051 535.254 252.864C537.378 256.621 540.45 260.996 544.985 261.461C549.79 261.954 553.665 258.04 555.952 254.08C561.532 244.418 558.719 231.16 555.893 221.034C552.426 208.609 543.379 200.046 537.658 188.888C546.199 189.777 550.773 195.395 555.156 202.523C559.982 210.37 563.739 219.792 565.591 228.923C566.527 233.536 565.881 238.169 565.887 242.828C565.889 244.375 565.889 250.085 568.326 249.86C570.93 249.62 571.823 243.18 572.206 241.216C573.084 236.71 574.034 232.203 574.796 227.675C576.146 219.664 576.746 211.458 578.362 203.502C578.634 202.157 579.178 198.426 581.123 199.433C582.622 200.209 582.381 205.98 582.436 207.322C582.571 210.628 582.76 213.933 582.786 217.242C582.824 222.146 581.88 227.223 582.343 232.097C582.645 235.283 584.296 238.802 586.343 234.506C588.372 230.247 588.786 224.934 589.918 220.353C591.107 215.543 592.334 210.662 594.857 206.391C595.556 205.205 596.309 203.324 597.864 203.881C598.994 204.287 599.828 207.06 600.178 208.039C601.754 212.463 601.486 217.381 601.387 222.013C601.265 227.687 600.677 233.236 599.278 238.738ZM441.943 246.969C441.512 246.825 439.68 246.645 439.226 246.604C438.694 246.556 439.298 245.54 438.009 245.829C438.258 246.467 438.7 246.893 439.335 247.107C437.398 247.786 435.968 246.11 434.644 245.894C433.377 245.687 433.323 245.894 432.071 247.28C430.716 245.568 430.97 246.636 429.856 246.637C429.45 246.637 429.433 247.271 428.773 247.195C428.197 247.128 428.136 246.224 427.796 246.117C425.946 245.538 424.044 248.453 421.947 245.924C421.439 248.556 415.617 245.26 413.377 245.722C411.029 246.206 412.042 247.078 410.144 245.588C408.336 244.168 408.84 245.111 406.737 246.273C406.786 246.246 405.55 247.11 405.665 247.124C404.209 246.948 404.292 245.389 402.448 245.472C400.496 245.56 399.663 247.144 397.877 245.195C397.488 246.655 397.408 246.025 396.493 246.393C395.99 246.517 395.549 246.38 395.171 245.983C395.057 246.384 394.806 246.63 394.417 246.721C393.42 246.814 391.548 246.957 390.643 246.46C389.285 245.714 390.377 245.427 389.434 244.588C389.012 246.902 388.087 246.41 386.135 246.626C384.646 246.791 384.318 246.318 382.896 246.088C381.495 245.862 379.685 246.425 378.318 246.664C377.754 246.764 376.999 247.171 376.424 247.028C375.907 246.899 375.685 246.483 375.376 246.374C375.001 246.243 375.081 245.903 374.432 245.739C373.985 245.626 373.185 246.06 372.738 246.135C369.552 246.671 366.492 246.676 363.453 245.379C364.95 248.102 359.956 246.632 359.065 245.504C357.952 247.31 356.605 246.035 354.362 246.176C352.201 246.312 348.952 246.997 348.076 244.211C347.905 244.777 346.679 246.42 346.191 246.671C344.774 247.398 344.606 246.323 343.289 245.885C341.497 245.289 341.871 246.42 340.76 246.65C338.883 247.039 337.87 245.671 336.212 244.945C336.142 246.075 336.105 246.77 335.162 247.474C334.325 244.322 331.342 247.732 331.855 243.52C330.719 244.285 329.122 244.873 328.799 246.42C330.697 245.88 329.001 247.165 328.922 247.207C328.671 247.343 327.823 246.111 327.627 245.938C327.573 246.519 327.52 247.1 327.466 247.681C326.71 247.289 326 246.588 325.386 246.237C324.833 245.921 325.625 245.262 324.691 245.217C324.198 245.193 323.685 246.297 323.168 246.391C322.378 246.535 322.757 245.361 322.427 245.4C321.922 245.46 321.102 246.223 320.721 246.209C319.471 246.161 320.317 245.558 319.363 245.283C317.66 244.788 317.769 245.942 316.544 246.358C313.742 247.311 314.024 242.928 311.173 245.851C310.491 246.551 310.052 247.631 309.118 247.57C307.182 247.445 307.862 245.07 308.255 243.907C308.662 244.115 301.186 248.091 301.245 247.935C301.292 246.981 302.468 246.246 301.417 245.4C300.558 247.308 299.654 247.342 297.672 247.697C296.709 247.87 296.52 248.101 295.489 247.686C294.832 247.423 294.391 246.338 293.739 246.278C293.827 246.287 292.628 247.231 292.446 247.316C291.364 247.82 290.68 247.248 289.629 247.456C288.733 247.633 288.38 248.422 287.489 248.206C286.299 247.918 286.998 246.447 285.361 246.857C284.802 246.997 284.465 248.114 283.584 248.344C282.21 248.705 280.525 248.033 279.073 248.383C277.921 248.662 277.065 248.78 276.057 248.838C275.243 248.885 275.577 248.229 274.078 249.004L273.442 247.344C272.692 248.043 271.941 248.742 271.191 249.441C271.049 248.814 270.959 248.18 270.92 247.538C269.801 248.698 268.392 248.896 266.887 249.001C265.258 249.114 264.044 249.482 262.459 249.79C261.958 249.887 260.667 250.043 260.255 249.862C260.316 249.888 259.484 249.53 259.735 249.598C259.627 249.37 259.526 249.139 259.434 248.903C259.294 248.248 258.839 248.22 258.07 248.817C257.673 248.754 256.902 248.213 256.505 248.347C255.483 248.689 255.622 249.511 254.603 249.39C253.942 249.312 253.605 248.301 252.916 248.232C251.863 248.127 250.95 249.348 250.001 249.614C252.887 248.803 246.258 249.432 248.319 249.488C246.968 249.452 245.565 249.382 244.316 250.009C243.627 249.521 244.464 248.539 243.767 248.135C243.135 247.768 243.086 248.736 243.012 248.758C243.411 248.641 243.212 249.464 242.813 249.611C241.569 250.067 240.574 248.907 240.51 247.756C239.453 249.402 239.157 248.74 237.603 248.842C236.07 248.942 234.749 249.774 233.215 249.759C230.183 249.729 228.126 248.638 227.113 245.834C230.345 246.242 233.597 244.091 236.756 244.598C237.794 244.764 238.443 245.572 239.352 245.428C240.474 245.252 241.256 243.986 242.693 243.849C245.863 243.549 248.988 243.841 252.18 243.338C255.992 242.737 259.971 242.381 263.82 242.674C266.794 242.9 269.202 241.722 272.218 241.496C276.118 241.202 280.051 241.15 283.957 240.938C287.971 240.72 292.29 240.056 296.293 240.269C297.543 240.335 298.618 240.462 299.858 240.384C300.383 240.352 300.879 239.983 301.43 240.038C302.146 240.11 302.454 240.869 303.198 240.843C304.461 240.798 305.812 239.72 307.313 239.691C309.783 239.643 312.242 239.648 314.717 239.503C316.897 239.375 319.232 238.848 321.402 238.876C322.933 238.896 323.311 240.246 324.202 240.386C325.806 240.636 333.919 235.856 334.621 240.146C338.844 237.153 344.509 239.688 349.21 239.125C355.25 238.403 361.401 239.046 367.481 238.789C373.669 238.527 380.034 238.77 386.197 239.374C388.75 239.624 391.216 239.859 393.777 239.707C394.917 239.639 396.237 239.338 397.378 239.61C397.654 239.676 399.771 241.206 399.508 241.25C400.664 240.175 399.882 240.018 401.916 239.963C403.484 239.92 404.966 240.271 406.525 240.366C409.323 240.538 412.143 240.136 414.935 240.225C417.266 240.299 419.545 240.655 421.888 240.672C424.414 240.691 427.398 240.765 429.225 242.874C429.032 242.212 428.84 241.549 428.646 240.887C431.466 241.116 434.252 242.158 437.103 241.671C436.382 242.386 435.65 242.97 435.374 244.019C436.912 243.817 437.952 242.706 439.571 242.697C440.93 242.689 441.213 243.395 442.648 242.483C442.825 243.6 443.001 244.718 443.178 245.835C445.165 245.351 443.861 243.816 444.006 242.433C445.622 242.936 446.99 242.359 446.353 244.765C445.862 246.62 443.625 247.534 441.943 246.969ZM439.15 267.633C438.457 269.649 432.462 268.497 431.045 268.283C429.213 268.009 427.118 267.573 425.431 267.357C425.229 267.078 424.986 266.841 424.704 266.646C424.492 266.952 424.224 267.169 423.899 267.297C423.125 267.472 423.122 268.3 422.104 268.117C422.057 269.342 422.879 268.646 423.508 269.09C421.922 270.191 422.647 268.924 421.757 268.944C421.537 268.62 421.23 268.493 420.836 268.563C420.334 268.697 419.872 268.92 419.449 269.23C419.053 269.663 418.713 269.685 418.43 269.297C418.159 269.015 417.828 268.841 417.438 268.775C415.875 269.038 415.438 269.756 413.678 269.639C411.164 269.471 408.444 270.157 405.969 269.796C404.435 269.572 401.872 267.076 401.175 269.509C400.115 267.706 398.425 266.479 397.41 264.636C402.14 264.353 406.868 264.016 411.602 263.839C415.747 263.684 420.281 264.167 424.154 263.965C427.782 263.775 431.624 263.36 435.329 263.017C439.255 262.654 440.555 263.546 439.15 267.633ZM315.759 267.93C317.476 268.422 319.111 267.306 320.777 267.659C321.328 267.775 322.468 268.814 322.718 268.834C323.177 268.872 324.525 267.853 325.103 267.716C328.762 266.854 333.194 266.946 336.851 267.476C338.789 267.756 339.086 266.837 340.778 266.391C342.537 265.927 345.036 266.285 346.888 266.157C351.243 265.855 355.598 266.07 359.924 265.74C364.366 265.401 368.785 265.218 373.229 264.981C376.256 264.82 383.53 263.032 386.039 265.359C388.108 267.277 385.442 270.608 383.373 271.368C381.825 271.936 381.084 270.74 379.935 270.854C378.627 270.984 379.083 272.584 377.915 271.1C377.192 272.576 372.644 271.947 371.341 272.044C368.501 272.257 366.098 272.847 364.165 270.104C364.296 270.895 364.427 271.686 364.558 272.477C361.994 271.058 359.243 271.513 357.017 272.007C355.916 272.252 352.533 273.944 351.34 273.214C350.518 272.713 351.966 271.854 350.58 271.426C349.853 271.201 348.6 272.45 347.712 272.387C345.256 272.212 345.953 270.502 343.541 272.678C342.724 271.947 342.452 270.703 342.56 269.636C340.807 271.184 340.954 273.763 337.821 273.291C336.653 273.115 336.439 271.882 335.83 271.655C334.533 271.17 334.386 272.042 333.263 272.731C332.839 272.991 332.322 273.41 331.822 273.462C330.797 273.568 330.634 273.081 330.493 273.097C329.811 273.175 328.951 273.533 328.141 273.277C327.415 273.046 327.202 271.719 325.922 272.029C324.697 272.327 324.686 273.189 324.909 274.478C323.7 274.349 322.97 273.652 322.066 272.897C321.153 275.101 319.232 273.276 318.169 275.136C316.784 273.424 315.896 273.895 314.179 272.223C314.264 272.921 314.348 273.618 314.432 274.316C313.091 274.048 312.495 273.07 311.352 274.365C310.242 272.224 306.877 275.274 305.149 273.207C304.379 275.825 299.282 275.199 297.129 275.244C295.221 275.285 293.809 275.123 291.945 275.581C290.297 275.987 288.015 276.407 286.465 276.222C285.453 276.101 284.346 275.908 283.085 276.05C281.267 276.255 279.697 277.229 277.814 276.768C274.978 276.074 273.239 272.217 276.398 270.523C278.56 269.364 282.454 269.793 284.832 269.579C288.775 269.224 293.193 268.481 297.141 268.819C300.22 269.083 303.026 268.322 306.168 268C308.533 267.759 312.41 267.323 313.952 269.75C314.545 269.042 314.483 267.565 315.759 267.93ZM272.602 301.156C272.178 298.973 290.202 297.771 291.99 297.628C295.747 297.328 299.513 297.114 303.278 297.015C306.372 296.934 309.261 297.545 312.356 297.053C315.247 296.594 318.736 295.653 321.252 297.772C321.623 294.874 332.472 296.286 334.536 296.294C343.521 296.327 352.119 296.349 360.81 295.773C365.777 295.444 371.051 295.001 376.018 295.258C378.26 295.374 380.064 295.992 382.292 295.456C383.745 295.106 385.311 294.378 386.701 295.407C388.328 296.612 389.023 300.704 387.903 302.412C387.087 303.657 386.364 303.519 385.06 303.304C383.055 302.973 381.566 302.493 379.522 303.337C379.853 303.2 378.153 303.593 378.294 303.582C375.978 303.761 372.803 305.435 370.808 303.505C371.607 303.65 372.769 302.173 371.761 302.051C371.004 301.96 370.524 302.8 369.933 303.081C367.913 304.044 366.88 303.743 365.673 301.724C363.24 303.904 362.978 303.301 361.91 300.616C361.088 301.272 360.911 302.823 360.264 303.331C360.168 303.407 360.566 304.35 360.099 304.31C359.665 304.274 359.523 303.538 359.19 303.481C358.977 303.443 358.866 302.798 358.662 302.759C358.441 302.716 358.214 303.128 357.964 303.116C357.295 303.083 355.383 304.556 356.069 302.489C355.056 303.823 354.62 302.973 354.255 301.759C353.085 302.679 351.916 303.6 350.746 304.52C350.202 302.954 349.267 303.381 348.089 303.927C348.444 302.84 348.221 301.812 347.331 302.568C346.816 303.005 346.47 304.395 345.942 304.985C343.807 302.746 343.031 303.36 340.081 303.651C338.955 303.762 337.555 303.977 336.55 303.273C335.665 302.654 335.165 300.382 333.653 302.218C333.989 301.81 333.462 304.945 333.368 305.443C332.701 304.977 332.135 304.405 331.668 303.726C330.798 305.51 328.513 303.909 326.641 304.274C323.694 304.848 320.653 305.814 318.05 303.543C317.866 304.276 315.733 305.21 315.73 305.239C315.857 303.94 316.648 304.397 315.032 304.15C314.735 304.105 314.397 304.659 314.116 304.72C313.153 304.926 312.028 304.73 311.057 304.701C307.019 304.581 303.322 305.508 299.334 305.844C297.99 305.956 296.395 306.179 295.133 305.654C293.833 305.113 293.869 304.499 292.553 304.847C292.969 304.737 291.731 306.084 291.798 306.033C291.621 306.166 290.883 305.509 290.621 305.559C290.545 305.846 290.469 306.133 290.392 306.42C290.075 306.379 289.758 306.339 289.441 306.299C288.574 306.419 287.791 305.51 286.977 305.48C287.127 305.485 284.778 306.391 284.885 306.446C283.245 305.599 283.716 305.844 281.636 306.36C279.67 306.847 277.713 306.733 275.696 307.037C269.828 307.919 273.324 304.875 272.602 301.156ZM267.42 331.53C266.317 329.91 269.252 329.35 270.19 329.207C271.732 328.971 273.777 329.44 274.805 329.186C276.37 328.801 277.88 327.881 279.642 327.631C281.865 327.316 284.106 327.265 286.338 327.068C287.082 327.002 288.002 326.737 288.726 326.782C289.803 326.849 290.251 327.439 291.121 327.443C292.602 327.451 294.43 326.482 295.949 326.304C297.894 326.076 299.858 325.969 301.812 325.869C305.929 325.657 310.003 325.745 314.118 325.74C315.995 325.737 320.994 323.721 321.929 325.982C323.231 324.268 326.568 324.502 328.428 324.452C331.705 324.365 334.949 324.038 338.223 323.88C341.026 323.745 344.159 324.366 346.913 323.931C348.43 323.691 348.932 323.188 350.653 323.415C351.932 323.583 353.88 322.884 354.978 323.193C354.921 323.177 356.347 324.092 355.902 324.121C356.392 324.088 356.363 324.443 356.904 324.285C357.614 324.078 357.288 323.154 358.758 322.826C361.052 322.314 364.112 322.907 366.495 322.775C368.807 322.647 371.116 322.592 373.431 322.603C374.496 322.608 375.813 322.345 376.85 322.56C377.358 322.665 378.438 323.352 378.868 323.283C380.088 323.086 380.709 322.208 382.358 322.263C384.227 322.324 385.91 322.298 387.768 322.15C389.568 322.008 389.857 321.741 390.749 323.292C391.632 324.83 391.876 326.833 390.249 327.878C391.306 327.806 392.606 329.272 391.361 330.083C390.591 330.584 389.048 329.453 388.126 329.534C386.991 329.635 386.1 330.257 384.864 330.295C383.565 330.336 382.246 330.675 380.965 330.701C379.631 330.728 378.622 330.111 377.356 330.373C376.242 330.605 376.125 331.55 374.784 330.72C374.118 330.307 374.005 328.778 373.096 328.764C371.877 328.745 372.363 330.375 371.663 331.129C371.475 328.799 369.737 332.656 369.046 329.826C368.409 330.766 366.051 332.08 364.909 331.325C363.868 330.637 364.214 329.081 363.78 327.959C363.058 329.975 361.121 332.066 361.296 328.396C360.355 329.596 357.813 329.406 358.45 331.505C357.684 331.49 357.502 330.357 356.857 330.271C356.3 330.197 355.858 330.64 355.773 330.633C356.078 330.66 354.86 331.079 354.842 331.083C355.666 330.91 352.464 330.614 353.009 330.619C352.266 330.613 351.357 331.243 350.489 331.241C349.697 331.239 348.91 330.916 348.129 330.824C346.104 330.584 346.525 331.045 345.254 331.704C344.783 331.948 344.665 332.361 343.996 332.309C343.503 332.271 343.318 331.604 343.262 331.598C342.568 331.526 343.081 331.285 342.003 331.396C341.879 331.617 341.756 331.836 341.633 332.056C341.243 332.572 340.739 332.701 340.119 332.444C338.525 332.798 333.236 334.333 333.754 331.49C332.943 331.9 332.133 332.311 331.323 332.721C330.975 330.429 326.573 333.468 325.589 333.621C324.328 333.817 324.211 333.316 323.018 333.049C322.803 333.001 322.372 333.736 321.868 333.63C320.559 333.358 320.326 333.223 320.102 331.751C319.169 333.557 318.393 332.75 316.7 333.046C316.326 333.113 316.087 333.876 315.549 333.744C315.162 333.649 315.151 332.916 314.884 332.821C314.643 332.736 314.68 332.157 314.326 332.075C313.92 331.98 312.535 333.156 312.138 333.337C311.242 333.746 309.77 334.423 308.896 334.22C307.814 333.97 308.295 333.14 306.768 333.233C304.357 333.38 303.352 335.504 301.852 332.157C301.175 333.497 301.261 333.861 300.174 334.304C299.371 334.63 297.336 334.289 296.279 334.249C291.762 334.076 287.321 335.669 282.842 335.252C280.873 335.069 279.212 334.661 277.225 334.994C275.138 335.345 273.096 335.861 270.978 336.069C269.901 336.174 267.65 336.494 267.122 335.069C266.657 333.814 268.392 332.958 267.42 331.53ZM276.278 382.988C270.42 387.047 265.567 392.589 260.188 397.281C254.794 401.986 250.515 407.216 245.664 412.427C241.179 417.242 237.06 421.799 231.638 425.438C228.207 427.742 225.147 430.577 221.622 432.749C218.983 434.375 214.984 436.515 216.272 431.54C217.592 426.441 220.029 421.288 222.145 416.526C225.153 409.758 228.184 403.052 231.439 396.412C232.662 393.917 233.347 391.433 235.286 389.446C237.397 387.283 238.875 384.459 241.187 382.415C250.91 373.82 265.563 380.461 276.278 382.988ZM294.657 385.902C291.999 387.345 289.025 387.702 286.208 388.656C283.808 389.469 281.576 390.914 278.995 391.021C281.345 389.194 283.364 386.712 286.013 385.325C288.993 383.765 291.697 384.901 294.657 385.902ZM411.305 397.924C401.53 394.508 392.428 389.476 382.907 385.426C381.263 384.726 368.409 380.343 368.67 378.257C377.678 376.548 386.955 373.616 395.984 376.813C404.198 379.721 410.88 386.698 417.238 392.536C418.897 394.06 429.158 400.998 428.24 403.207C427.604 404.739 422.66 404.321 421.492 404.007C419.984 403.601 419.116 402.653 417.933 401.611C415.955 399.871 413.767 398.784 411.305 397.924ZM393.259 340.863C394.744 339.448 395.633 337.302 397.051 335.996C398.873 334.318 401.814 335.136 403.806 336.007C409.783 338.623 414.892 343.02 420.833 345.749C427.416 348.773 433.116 352.815 439.054 356.98C444.482 360.787 450.35 363.938 455.89 367.572C461.536 371.275 467.856 373.682 473.579 377.253C479.403 380.889 485.205 384.539 490.802 388.544C500.782 395.688 511.174 403.023 518.558 413.178C522.353 418.399 525.906 424.32 528.69 430.182C531.222 435.51 533.968 442.907 530.687 448.451C527.537 453.774 522.167 457.968 517.622 461.94C515.9 463.444 514.263 465.271 512.032 465.923C509.318 466.715 506.152 466.496 503.361 466.731C488.439 467.984 474.537 466.801 459.831 464.037C445.651 461.373 431.412 459.881 417.124 458.029C409.063 456.984 401.004 455.768 393.053 454.028C389.654 453.284 386.195 452.426 382.869 451.413C379.965 450.528 377.522 448.58 374.536 447.808C361.861 444.53 347.359 443.277 334.811 437.765C345.915 432.986 357.716 430.1 369.096 426.129C381.075 421.95 392.773 418.444 405.399 417.256C411.895 416.645 417.71 414.928 423.959 413.13C429.914 411.416 436.132 410.891 442.249 410.123C444.97 409.781 452.733 410.293 453.635 406.611C454.977 401.129 447.349 400.496 444.097 400.987C439.484 401.683 435.68 402.876 432.15 398.957C428.545 394.955 425.042 390.858 421.372 386.907C414.567 379.581 407.553 371.108 397.933 367.821C386.198 363.812 372.589 367.618 360.88 369.898C348.512 372.306 336.164 374.612 324.028 378.113C319.002 379.562 312.521 382.756 307.305 382.243C302.164 381.737 296.341 380.866 291.374 379.33C289.126 378.636 287.279 377.349 285.267 376.149C282.652 374.588 279.786 373.588 277.011 372.375C271.398 369.922 265.927 367.663 259.872 366.699C254.773 365.887 249.358 365.405 244.416 367.256C239.568 369.072 235.272 372.77 231.89 376.719C228.216 381.011 225.179 385.819 222.168 390.614C220.722 392.915 218.957 394.923 217.46 397.173C216.203 399.062 215.469 401.161 214.138 402.997C211.161 407.105 209.14 412.36 207.336 417.139C205.332 422.447 203.105 428.759 203.583 434.533C203.764 436.716 203.953 439.606 204.768 441.63C205.805 444.204 207.284 444.139 209.416 445.109C213.078 446.777 214.105 451.387 218.837 450.488C223.276 449.646 227.126 445.859 230.364 442.839C234.585 438.905 238.625 434.757 242.664 430.624C246.809 426.382 250.894 421.678 254.191 416.688C255.489 414.723 256.5 412.505 258.034 410.716C259.988 408.437 262.181 408.163 264.834 407.256C288.03 399.32 311.338 391.665 335.258 386.426C340.989 385.17 346.767 383.551 352.396 381.879C358.367 380.107 361.459 381.981 366.387 385.353C376.682 392.402 388.85 397.366 400.314 401.965C403.924 403.413 409.67 403.505 412.492 406.36C395.766 409 379.827 414.08 363.695 419.139C355.741 421.632 347.696 423.794 339.712 426.179C331.725 428.565 324.042 431.656 316.165 434.346C308.325 437.023 300.04 438.115 292.124 440.583C284.044 443.104 275.997 444.838 267.703 446.369C259.329 447.917 251.012 449.702 242.608 451.088C238.761 451.722 234.914 452.38 231.109 453.252C227.386 454.107 223.789 456.151 220.047 456.625C203.337 458.742 186.954 463.459 170.309 466.125C157.881 468.116 136.259 470.893 128.199 457.982C120.095 444.997 130.038 429.851 138.909 420.567C144.422 414.797 150.618 409.719 157.118 405.202C164.074 400.367 170.767 395.146 177.725 390.318C193.47 379.393 210.544 370.483 227.461 361.704C235.581 357.49 243.426 352.971 251.325 348.346C255.245 346.051 257.414 349.755 260.513 352.272C262.95 354.252 267.426 359.133 270.836 356.877C270.968 357.689 271.099 358.502 271.23 359.315C272.229 358.843 273.229 358.372 274.228 357.9C274.898 359.723 274.82 360.854 276.694 361.811C277.845 362.399 280.301 363.106 281.399 362.071C281.623 362.791 281.847 363.51 282.071 364.229C283.03 364.153 283.215 361.311 283.396 360.646C285.04 363.132 287.314 365.21 290.204 365.913C290.218 365.75 289.734 363.708 289.755 363.695C290.669 363.115 291.822 365.598 292.307 366.129C293.914 367.89 294.873 367.617 296.648 366.196C296.777 366.34 297.378 367.964 297.465 367.935C297.85 367.809 298.579 366.37 298.659 366.239C298.548 368.131 302.076 368.513 303.323 368.106C303.043 367.552 302.763 366.998 302.484 366.443C306.825 365.843 308.529 370.618 312.695 370.375C315.775 370.195 313.305 369.499 315.047 368.133C316.57 366.939 316.841 369.549 316.991 369.467C317.281 369.152 317.506 368.79 317.666 368.381C318.23 370.616 322.716 372.622 322.253 368.946C324.018 369.677 325.271 370.89 327.224 371.147C329.598 371.458 332.134 370.936 334.502 370.733C339.606 370.293 344.417 369.215 349.017 366.794C351.745 365.359 354.648 364.056 357.212 362.325C359.357 360.875 363.428 356.475 366.285 358.37C365.553 356.135 368.998 358.206 369.107 355.327C369.66 355.76 370.214 356.191 370.767 356.623C371.099 355.87 371.006 354.683 371.45 354.026C372.061 353.125 372.358 353.656 372.879 353.148C373.461 352.581 373.969 351.061 374.667 350.629C375.386 350.183 376.232 350.714 377.006 350.326C378.184 349.732 383.252 343.946 382.395 348.904C384.574 348.137 382.893 347.436 383.166 345.933C383.712 342.919 385.043 345.088 386.369 345.351C388.539 345.781 388.495 343.924 389.706 342.573C390.811 341.34 392.889 340.788 392.173 338.646C392.99 339.102 393.164 339.995 393.259 340.863ZM262.419 276.503C260.709 278.476 259.429 277.632 257.528 277.343C257.324 276.637 256.977 276.54 256.485 277.05C255.922 277.385 255.317 277.606 254.668 277.711C253.109 278.109 251.49 277.94 249.965 278.542C250.008 278.014 250.545 277.073 250.201 276.536C248.598 277.685 247.603 278.416 245.634 278.437C244.038 278.455 241.237 277.193 239.912 278.701C239.871 278.114 239.83 277.527 239.79 276.94C239.141 277.274 238.577 277.722 238.096 278.284C238.005 277.414 237.955 276.756 237.399 276.052C236.345 278.297 235.19 278.35 233.142 277.492C233.429 277.612 231.092 276.194 231.181 276.587C230.443 273.363 242.106 273.63 243.331 273.502C246.389 273.182 249.446 272.997 252.509 272.705C255.413 272.428 257.581 271.959 259.592 274.469C258.696 270.844 267.17 271.024 262.419 276.503ZM128.69 220.296C129.011 225.776 130.189 231.6 128.132 236.874C126.477 241.113 123.178 245.9 119.623 248.666C112.345 254.33 106.176 247.4 105.163 239.782C104.107 231.838 106.2 222.13 112.807 217.231C116.754 214.304 120.577 214.507 125.122 215.469C126.19 215.696 127.922 215.609 128.533 216.707C128.676 216.964 128.548 220.291 128.69 220.296ZM225.357 293.3C224.1 293.957 222.785 294.342 221.676 295.236C221.291 295.547 221.16 296.254 220.751 296.516C220.008 296.991 218.945 296.676 218.17 297.069C216.888 297.718 215.968 298.647 214.444 299.244C212.18 300.133 210.195 301.351 208.055 302.506C204.49 304.431 200.664 306.083 196.937 307.65C195.055 308.441 189.852 309.983 190.032 312.835C189.611 312.953 189.181 312 188.303 312.075C187.096 312.179 185.502 313.624 184.25 313.979C181.908 314.643 180.094 314.702 180.094 317.794C179.349 317.27 179.159 315.986 178.167 315.816C177.05 315.625 176.581 316.872 175.687 317.26C174.635 317.717 173.327 317.279 172.285 317.765C171.83 318.264 171.324 318.7 170.766 319.071C170.2 319.139 169.636 319.121 169.074 319.017C166.863 319.502 164.828 320.364 162.611 320.811C160.45 321.248 158.971 321.407 159.879 324.052C157.568 324.521 157.003 321.981 154.396 322.91C151.2 324.047 148.213 324.868 144.876 325.562C143.175 325.916 141.397 326.707 139.683 326.892C138.46 327.024 137.319 326.571 136.115 326.712C134.664 326.881 133.498 327.577 131.996 327.603C130.572 327.628 129.076 327.364 127.677 327.104C127.875 327.687 128.122 328.247 128.419 328.782C127.452 328.573 127.006 327.368 126.186 327.19C125.325 327.003 124.554 327.923 123.838 327.719C123.533 327.632 123.735 326.658 123.19 326.472C122.692 326.303 122.483 326.502 121.989 326.422C121.825 326.396 119.761 326.28 119.432 326.46C118.858 326.775 119.439 327.366 119.325 327.454C117.384 328.941 117.361 328.139 116.495 326.585C115.225 324.305 113.693 325.744 111.384 325.345C108.811 324.9 106.784 326.076 104.251 325.909C101.519 325.728 98.3091 323.612 95.894 322.376C90.6786 319.707 85.5929 317.181 81.213 313.138C72.6508 305.236 65.6851 295.518 61.5781 284.392C57.1652 272.439 56.3291 259.973 56.6833 247.293C56.8964 239.667 57.4859 232.045 58.6467 224.508C59.4459 219.324 59.6133 210.11 65.2582 207.75C66.2289 219.889 63.1664 232.258 65.0976 244.319C65.679 247.951 67.0973 252.792 69.7813 255.482C73.7552 259.465 74.6848 253.708 75.0444 250.528C75.7133 244.622 76.9561 238.748 77.836 232.87C78.7152 226.994 79.3363 221.053 80.559 215.239C81.0046 213.119 84.5994 197.596 87.2377 198.331C86.704 209.624 85.2864 220.723 85.2306 232.058C85.2084 236.604 84.8152 241.406 85.449 245.922C85.7751 248.246 87.8191 255.066 91.3346 254.498C94.5879 253.972 91.0113 249.167 90.7075 247.315C89.9029 242.412 90.9286 236.311 91.6788 231.443C93.0984 222.232 96.2657 212.798 101.443 205.101C106.079 198.208 113.219 191.647 121.819 192.862C125.494 193.382 128.361 194.327 130.207 197.801C131.656 200.528 137.363 203.626 134.055 207.04C131.045 210.148 126.175 207.66 122.829 206.92C118.731 206.012 114.34 207.104 110.913 209.59C105.034 213.855 101.683 221.48 100.589 228.631C99.1151 238.273 103.055 263.511 117.568 257.855C127.209 254.097 134.471 240.579 133.662 230.231C133.337 226.088 131.773 218.223 137.308 217.105C144.4 215.672 145.401 223.767 144.683 229.026C143.639 236.678 139.734 243.793 135.266 249.842C131.372 255.114 126.843 258.411 122.157 262.766C120.77 264.055 117.232 266.953 117.826 269.351C118.477 271.979 124.038 272.726 126.265 273.158C137.281 275.293 149.703 273.329 160.7 271.838C183.302 268.773 205.607 261.225 224.14 247.347C224.889 255.934 225.832 264.492 226.18 273.11C226.348 277.293 226.392 281.537 226.853 285.697C227.138 288.256 228.165 291.831 225.357 293.3ZM162.686 323.22C161.799 323.7 162.758 320.794 162.511 321.755C163.837 322.247 163.895 322.736 162.686 323.22ZM256.445 219.305C257.854 217.698 261.702 213.873 262.924 217.503C263.378 215.956 263.437 213.664 265.191 215.754C265.89 213.187 273.595 213.427 275.503 213.314C281.614 212.952 287.75 212.759 293.839 212.13C306.352 210.839 319.083 211.505 331.641 211.462C334.36 211.453 337.073 211.301 339.772 211.709C342.377 212.103 345.115 213.209 347.77 212.805C350.131 212.446 351.679 211.772 354.109 212.06C357.017 212.405 359.839 212.65 362.773 212.639C375.748 212.591 388.716 213.135 401.694 213.156C404.223 213.16 407.253 212.648 409.626 213.761C410.505 214.173 411.466 215.545 412.137 215.696C412.907 215.868 412.45 214.625 413.48 215.186C414.859 215.938 413.791 218.248 412.88 218.615C413.426 218.395 411.895 218.179 412.048 218.171C411.321 218.211 410.701 218.788 409.921 218.752C408.733 218.698 407.738 217.948 406.78 217.287C406.764 217.557 407.29 219.356 406.689 219.446C406.172 219.525 405.688 217.751 405.636 217.339C402.733 219.99 399.657 218.512 396.054 218.848C393.499 219.087 388.171 220.852 386.388 218.089C386.314 218.677 386.086 219.191 385.706 219.632C385.196 220.436 384.756 220.367 384.384 219.425C384.258 219.432 383.017 219.711 382.992 219.709C382.118 219.637 380.986 219.312 380.097 219.234C378.722 219.112 378.975 220.149 377.88 220.165C377.281 220.174 375.756 219.28 374.712 219.224C372.906 219.126 371.06 219.92 369.277 219.68C368.05 219.514 366.941 218.48 365.737 218.44C364.237 218.388 363.75 219.573 362.562 217.909C362.318 217.841 362.167 218.82 362.07 218.836C362.094 218.832 360.939 219.009 360.802 219.064C360.565 219.158 359.642 219.596 359.361 219.601C358.754 219.613 358.425 219.163 357.782 219.152C356.718 219.133 353.32 220.103 353.415 218.065C349.618 219.522 346.378 218.954 342.48 219.298C340.691 219.457 339.568 219.209 337.866 218.869C335.736 218.443 334.321 218.979 332.195 219.087C330.153 219.19 329.509 218.296 327.786 217.488C327.106 217.17 326.657 216.749 325.822 216.926C325.347 217.027 325.685 217.857 325.545 217.913C324.812 218.206 324.301 217.896 323.296 217.967C321.442 218.098 320.704 219.703 318.798 218.196C319.431 218.117 320.065 218.036 320.698 217.956C318.875 217.156 316.47 216.748 316.911 219.661C315.357 219.436 316.702 218.34 315.938 217.947C315.174 217.556 314.318 218.211 313.356 218.535C310.814 219.389 308.695 218.965 306.044 218.812C303.033 218.638 295.988 221.182 293.832 217.879C293.767 218.575 293.045 220.514 292.085 220.423C291.771 220.393 292.645 218.335 292.743 218.117C292.249 219.207 289.991 219.414 288.879 219.98C289.004 219.394 289.128 218.808 289.253 218.223C288.22 219.361 287.718 218.666 286.503 219.047C285.972 219.213 285.203 220.348 284.748 220.416C284.219 219.781 283.554 219.507 282.753 219.596C282.22 219.458 281.687 219.431 281.154 219.515C279.022 219.675 277.077 220.903 274.956 220.067C273.119 219.342 272.409 217.48 271.314 220.443C271.025 219.917 270.738 219.39 270.449 218.863C270.094 219.435 269.739 220.006 269.383 220.578C267.994 219.636 267.908 219.09 266.309 219.436C265.934 219.591 265.549 219.57 265.155 219.371C265.061 219.661 264.967 219.951 264.873 220.241C264.835 220.971 264.626 221.212 264.246 220.964C263.926 220.845 263.637 220.664 263.379 220.422C262.321 220.505 260.97 220.794 259.835 220.634C259.397 220.574 256.65 219.072 256.445 219.305ZM288.817 199.688C288.941 199.886 289.067 200.084 289.191 200.282C287.473 201.221 287.069 200.682 286.892 198.796C287.731 198.813 287.874 200.341 288.817 199.688ZM289.881 198.582C290.708 198.96 291.656 199.702 292.435 198.707C292.96 200.286 289.065 202.44 289.881 198.582ZM295.222 199.279C296.959 200.494 292.794 199.517 292.8 199.519C293.549 198.803 294.356 198.723 295.222 199.279ZM310.156 192.503C310.752 195.614 312.394 195.525 315.045 194.079C318.91 191.97 319.563 188.516 319.833 184.391C320.091 180.437 320.559 178.906 324.497 179.731C327.246 180.308 329.571 179.823 332.343 179.744C335.3 179.66 336.342 180.127 336.58 183.278C336.819 186.434 337.36 188.829 339.572 191.231C341.82 193.672 344.818 195.13 347.739 196.495C349.242 197.197 350.653 197.953 352.315 198.104C352.959 198.164 356.311 197.725 356.381 198.823C356.433 199.649 351.791 201.978 351.299 202.255C349.146 203.467 346.999 204.555 344.647 205.29C339.236 206.98 333.499 207.08 327.895 206.977C318.859 206.813 306.372 202.856 300.969 194.555C304.031 193.871 307.094 193.187 310.156 192.503ZM309.345 165.562C307.916 164.32 306.99 162.443 305.802 160.972C305.203 160.23 304.764 159.994 304.194 159.622C303.594 159.231 303.256 159.785 302.755 158.866C301.461 156.49 305.454 153.147 301.219 152.233C299.787 151.923 296.339 153.099 295.921 150.973C295.329 147.968 300.869 147.771 302.173 146.246C304.765 143.213 303.005 138.072 304.584 134.573C306.078 131.259 309.936 130.67 312.98 129.674C317.222 128.287 321.515 127.483 325.822 126.373C328.834 125.597 333.838 122.48 336.631 125.234C332.321 126.225 334.826 127.781 337.699 128.659C340.953 129.654 344.402 130.042 347.774 130.319C351.245 130.604 354.782 130.659 358.211 129.942C361.383 129.28 364.925 126.425 368.25 127.156C366.405 130.478 360.909 132.293 357.569 133.163C355.867 133.606 354.777 133.468 355.006 135.665C355.227 137.794 357.015 139.929 357.419 142.148C357.952 145.083 357.486 147.781 356.477 150.542C355.484 153.258 355.252 153.613 356.12 156.209C357.472 160.25 354.566 164.717 351.881 167.652C341.02 179.52 320.236 175.024 309.345 165.562ZM336.942 94.6357C336.949 94.7109 336.986 94.7569 336.942 94.6357V94.6357ZM340.325 124.585C339.874 124.933 337.281 125.664 337.389 124.614C337.534 123.208 339.872 123.716 340.325 124.585ZM346.236 96.1778C345.627 95.7081 343.923 95.9012 345.169 94.1207C345.575 94.904 345.906 95.5409 346.236 96.1778ZM305.331 84.923C306.107 82.8359 306.966 80.8945 307.315 78.673C307.531 77.3044 307.102 75.7413 308.95 75.5267C306.596 74.4633 306.571 70.2662 306.432 68.0906C306.241 65.0942 305.327 61.0824 306.599 58.2936C307.904 55.4289 309.665 55.4763 310.197 58.888C310.405 60.2239 309.609 60.6559 309.459 61.5862C309.163 63.4266 309.752 63.0231 310.899 61.6211C311.372 63.0461 311.553 65.1876 313.48 65.097C313.352 64.7116 312.613 63.8615 312.86 63.3827C313.239 62.6475 315.089 63.7709 315.324 63.9409C317.014 65.1646 317.38 66.2816 316.175 67.8251C317.843 68.0112 316.443 69.5233 317.52 69.9178C319.163 70.5191 318.061 67.6697 317.883 67.1687C318.883 67.5729 319.218 68.0342 319.852 68.8523C320.223 69.4167 320.562 70.0028 320.867 70.609C321.207 71.7156 321.908 71.993 322.97 71.4411C325.098 72.1324 328.035 72.0243 329.943 73.2327C330.814 73.7846 331.129 74.9922 331.857 75.4507C332.675 75.9671 333.772 75.733 334.652 76.057C334.33 76.8138 334.591 77.2235 335.433 77.2876C336.087 77.3497 336.72 77.5023 337.332 77.7448C337.79 77.3873 338.289 77.1051 338.826 76.8995C339.188 77.5594 339.699 77.7225 340.36 77.3901C342.322 77.7706 343.265 78.5392 344.512 79.6883C345.632 80.7196 344.721 80.8032 345.947 80.712C346.44 80.675 347.304 79.8095 348.431 79.9782C349.08 80.1092 349.706 80.3161 350.308 80.5991C350.959 81.1761 351.651 81.2485 352.382 80.8172C353.571 81.4186 353.687 82.484 355.136 82.6297C356.738 82.7914 356.223 80.7231 357.323 83.6401C358.805 80.5475 359.348 85.4742 360.878 85.8721C362.462 86.2846 362.633 84.9544 363.99 86.408C364.397 86.8435 364.374 87.5634 364.83 88.0254C365.578 88.7815 366.59 88.6302 367.24 89.6616C366.878 89.086 367.325 91.7013 367.318 91.6148C367.419 92.7688 366.429 94.0615 368.458 93.9632C368.435 94.0845 367.46 95.5555 367.27 95.389C367.224 95.221 367.184 95.051 367.153 94.8789C366.935 94.9757 366.839 96.3771 366.879 96.6245C367.051 96.6524 367.122 96.52 367.09 96.2273C366.757 97.3081 367.259 97.9945 366.619 99.0203C366.209 99.676 365.087 100.169 364.49 100.574C363.052 101.551 361.643 102.53 360.24 103.57C356.967 105.995 353.302 108.919 349.181 109.425C351.251 107.32 363.16 99.3561 357.187 97.0698C356.079 96.6461 354.062 96.2447 352.903 96.1555C351.462 96.0447 349.972 96.8991 348.383 96.366C346.464 95.7235 347.187 93.8566 346.015 93.1869C343.528 91.7661 344.115 95.1075 343.332 95.9827C342.509 95.0886 342.685 94.6538 341.387 94.573C340.068 94.4907 339.754 95.7527 338.215 94.9667C336.095 93.8831 337.217 91.7249 334.21 91.6741C334.26 91.2002 334.696 89.8762 334.122 89.5069C333.349 90.5459 333.948 91.7075 333.23 92.7075C332.87 93.2092 332.09 93.6092 331.521 93.7716C330.188 94.1507 329.998 94.8768 330.215 92.7981C329.227 94.6413 326.197 93.8831 324.395 93.6977C321.465 93.396 318.351 92.8218 315.542 91.849C312.944 90.9487 311.556 89.4024 309.413 87.9954C308.603 87.463 308.217 87.6665 307.055 87.3362C305.909 87.0101 304.791 86.378 305.331 84.923ZM311.514 52.2875C311.956 52.0115 312.274 56.1292 311.738 56.8985C310.756 55.2909 309.016 52.9328 311.514 52.2875ZM312.927 50.645C314.349 49.312 313.361 52.7551 313.1 53.3328C312.573 52.983 312.046 52.6331 311.519 52.2833C312.191 51.8561 312.359 51.1767 312.927 50.645ZM366.595 45.096C379.737 47.9517 392.759 53.2896 403.299 62.074C412.901 70.0753 419.677 81.4276 423.476 93.5033C427.42 106.038 426.095 119.944 416.713 129.537C411.77 134.59 405.243 137.638 399.023 140.613C396.043 142.038 392.973 143.226 389.982 144.618C387.833 145.618 385.209 147.218 382.757 146.94C384.008 145.577 385.823 145.55 387.337 144.716C389.166 143.708 390.66 141.775 392.237 140.394C393.803 139.022 397.275 134.704 399.681 135.749C399.347 133.449 401.878 132.381 403.019 130.863C404.226 129.259 404.312 127.382 406.535 126.857C404.148 124.922 404.879 121.273 405.398 118.64C406.063 115.272 406.37 112.18 406.632 108.753C407.104 102.574 407.484 94.7033 404.187 89.2713C403.117 87.5076 401.755 85.8868 400.801 84.0547C399.65 81.8471 399.904 79.9036 399.904 77.4835C397.801 78.9468 397.357 75.9629 396.469 74.5086C395.802 73.4173 394.926 72.8076 394.711 71.4348C394.554 70.4355 395.602 70.2669 395.028 69.2195C394.324 69.77 394.043 70.623 393.687 71.4146C393.037 71.1456 393.803 70.209 393.431 69.9045C393.42 69.8962 392.166 69.3324 392.229 69.4139C391.422 68.3554 391.163 66.5987 390.767 65.3388C389.29 66.1137 389.566 66.0224 387.918 64.7276C387.628 64.4998 386.177 63.4531 386.041 63.1109C385.403 61.511 386.521 62.4587 386.208 61.4657C385.311 58.6135 380.274 59.1528 379.875 54.8791C377.419 56.4937 376.482 54.2059 375.03 52.5788C373.542 50.9119 371.046 50.2708 371.18 47.627C370.407 47.9008 369.634 48.174 368.862 48.4465C369.263 46.0068 365.763 46.1622 364.495 44.9246C365.199 44.9337 365.899 44.9908 366.595 45.096ZM368.596 196.2C369.814 195.072 369.445 196.573 370.228 196.401C370.899 196.254 371.031 195.73 371.674 195.569C374.322 194.906 378.28 195.739 381.065 195.596C384.29 195.431 389.819 196.124 391.356 200.031C392.282 202.385 390.869 201.584 389.312 201.409C388.105 201.274 387.032 201.527 385.838 201.514C385.247 201.608 384.659 201.599 384.072 201.486C383.786 201.29 383.617 201.016 383.565 200.662C381.903 200.401 380.138 201.419 378.298 201.47C375.842 201.538 373.658 201.05 371.793 199.333C371.05 200.478 370.545 201.046 369.211 201.174C369.176 201.178 367.872 200.634 367.671 200.58C367.404 200.508 366.728 201.088 366.213 200.923C367.127 199.416 367.26 197.437 368.596 196.2ZM536.351 209.798C536.785 208.236 537.147 206.654 537.542 205.082C543.605 212.229 548.911 221.796 551.298 230.962C552.849 236.918 555.263 247.71 547.869 250.781C541.846 253.284 538.488 244.314 536.964 239.896C533.6 230.143 533.6 219.721 536.351 209.798ZM265.095 97.8126C265.173 97.7966 261.17 100.207 262.489 98.2551C263.018 97.4705 265.027 96.9186 265.919 96.9186L265.095 97.8126ZM261.244 98.8342C260.781 99.2377 260.314 99.6363 259.842 100.029C259.389 99.2878 258.935 98.5464 258.482 97.805C259.375 97.4147 263.168 97.122 261.244 98.8342ZM258.423 173.779C257.586 173.191 256.922 173.504 256.67 174.49C256.67 173.509 257.164 171.229 257.922 170.964C258.412 170.791 256.293 168.196 256.889 167.516C258.403 168.415 257.496 169.275 257.94 170.435C258.14 170.958 258.742 171.453 258.874 171.855C259.097 172.537 260.001 174.883 258.423 173.779ZM254.32 167.938C253.463 168.165 254.964 169.631 254.963 170.279C254.962 170.769 254.394 171.145 254.159 171.816C253.651 173.269 254.525 174.25 253.086 175.359C253.086 172.175 251.023 163.741 254.987 162.19C253.053 160.613 254.642 158.792 256.157 160.68C257.615 162.494 256.686 167.311 254.32 167.938ZM252.255 155.377C251.476 152.515 249.13 151.515 246.449 151.684C246.551 150.219 247.624 148.107 248.398 150.747C248.716 149.967 248.937 148.949 249.663 148.432C250.886 152.401 256.981 154.594 253.186 158.895C252.876 157.722 252.574 156.547 252.255 155.377ZM245.171 151.897C231.056 152.957 211.239 155.99 199.943 144.786C192.578 137.481 192.971 126.105 198.923 117.989C202.32 113.358 206.956 110.097 211.613 106.99C213.41 105.791 214.932 104.999 216.905 104.31C217.224 104.274 217.525 104.348 217.806 104.532C217.917 104.038 218.185 103.673 218.612 103.435C219.374 103.013 220.46 102.862 220.898 101.985C220.43 103.631 220.189 105.326 220.017 107.029C219.637 106.571 219.257 106.112 218.877 105.654C218.56 108.755 215.439 106.878 213.576 107.265C214.803 109.024 215.681 109.663 215.787 111.988C214.872 110.24 212.961 109.091 211.184 108.528C212.149 111.484 212.831 113.239 211.859 116.48C210.685 115.786 210.606 114.12 209.182 113.72C208.807 115.653 208.74 117.798 208.259 119.674C204.613 117.952 204.969 122.59 206.433 124.884C207.211 126.105 207.593 127.519 208.288 128.691C209.992 131.565 208.697 127.266 210.591 127.471C210.166 130.502 210.018 130.804 212.161 133.024C214.252 135.189 215.337 138.194 217.574 140.228C218.221 139.371 217.203 138.474 217.113 137.654C219.195 138.015 220.17 140.176 222.171 138.262C223.043 140.023 223.988 141.962 226.078 142.324C224.696 139.605 228.731 141.449 229.765 141.835C230.55 142.127 231.956 142.36 232.259 142.473C233.964 143.111 232.795 141.966 233.829 144.056C235.348 143.582 235.922 142.276 237.739 143.379C239.216 144.276 239.219 145.812 239.557 147.385C239.909 146.356 240.265 145.327 240.654 144.312C241.05 144.485 242.714 146.38 242.532 146.389C246.426 146.191 246.288 148.694 245.171 151.897ZM225.352 100.585C226.134 100.017 227.089 100.773 227.966 100.569C229.182 100.289 229.872 99.2105 231.23 99.0948C230.852 100.345 230.143 100.228 229.543 101.21C229.339 101.544 229.445 102.347 229.264 102.539C227.742 104.153 227.216 102.836 225.663 101.615C225.798 103.088 226.072 103.553 224.731 103.948C223.518 104.307 221.516 102.987 220.904 101.976C221.419 100.907 224.417 101.265 225.352 100.585ZM235.038 98.2823C236.356 98.4126 234.768 102.439 232.879 98.5332C233.59 98.3729 234.31 98.2893 235.038 98.2823ZM241.815 97.5039C243.894 97.0649 250.827 95.019 251.599 98.3694C251.737 98.2858 252.253 96.3945 252.493 96.6252C253.453 97.5499 253.56 98.7757 253.487 100.06C252.326 97.5569 252.739 99.7554 251.952 99.584C251.747 99.5387 251.433 99.9359 250.913 99.7722C250.232 99.5568 249.743 98.0551 249.313 97.5464C248.596 98.6056 247.708 99.9694 246.273 99.8774C245.257 99.8126 243.621 97.1046 244.936 100.069C244.164 99.8049 243.27 99.207 242.409 99.3269C241.446 99.4614 240.945 100.446 240.043 100.605C238.041 100.956 237.739 98.9617 236.44 97.8788C238.232 97.7708 240.045 97.8774 241.815 97.5039ZM254.391 97.4719C254.538 96.7848 256.356 96.5074 256.82 96.7255C257.95 97.2572 257.532 97.959 257.324 99.1269C256.485 98.7157 255.647 98.3053 254.808 97.8941C256.06 99.9819 253.791 100.285 254.391 97.4719ZM606.485 219.763C606.336 214.76 606.196 209.67 604.971 204.799C604.113 201.39 602.007 195.277 598.024 194.686C592.017 193.793 588.69 206.087 587.007 210.307C586.67 205.338 586.965 200.05 585.152 195.335C583.701 191.555 580.035 187.976 576.878 192.22C574.068 195.997 573.529 201.573 572.789 206.117C571.831 212.005 571.255 217.939 570.556 223.863C567.812 218.372 567.332 212.087 565.163 206.381C563.117 200.996 559.897 195.854 556.795 191.064C554.262 187.152 551.18 183.474 547.212 181.083C543.757 179.001 537.717 176.75 534.425 180.207C531.678 183.091 532.108 186.951 532.251 190.59C532.315 192.211 532.56 193.323 531.184 194.139C530.507 194.541 529.45 194.333 528.707 194.548C527.509 194.894 526.59 195.481 525.577 196.261C518.473 201.728 515.198 211.581 514.185 220.365C512.902 231.495 517.091 241.037 520.698 251.22C521.272 252.843 523.097 256.286 522.845 258.098C522.569 260.084 520.163 260.135 518.539 260.176C513.634 260.302 508.508 259.923 503.629 259.45C492.011 258.325 480.403 252.533 470 247.363C468.103 246.419 465.417 245.879 463.868 244.393C462.412 242.997 462.028 240.759 460.771 239.157C457.686 235.226 455.72 231.871 451.177 229.496C446.551 227.078 441.831 224.843 437.317 222.195C431.735 218.918 426.578 214.768 421.229 211.099C411.289 204.282 401.415 196.809 390.876 191.013C385.979 188.319 380.507 187.882 375.422 185.677C370.471 183.529 364.393 183.526 359.226 184.882C356.71 185.544 354.997 187.11 352.682 188.133C349.969 189.331 347.756 188.009 345.369 186.578C341.722 184.393 338.106 180.832 343.3 178.474C345.062 177.674 347.27 177.371 348.809 176.113C350.45 174.773 351.766 172.301 353.101 170.622C356.066 166.891 357.837 162.594 362.178 160.274C366.978 157.707 372.668 157.009 377.786 155.332C383.332 153.515 388.762 151.355 394.204 149.234C404.009 145.412 414.202 141.286 421.248 132.874C427.325 125.616 429.973 116.248 429.728 106.734C429.227 87.2825 419.164 67.5422 404.726 55.3808C387.023 40.4682 364.501 35.4955 342.138 35.7562C331.643 35.8788 319.118 37.3011 310.361 43.9037C302.797 49.6067 301.539 59.5814 302.664 68.5854C303.12 72.2397 304.681 77.0619 302.192 80.282C300.799 82.0834 298.299 82.5293 296.423 83.6527C294.065 85.0638 291.986 86.4164 289.315 87.1627C277.972 90.3347 266.023 89.2302 254.425 89.0546C235.104 88.7619 215.299 94.1786 200.886 108.276C189.246 119.659 185.756 141.124 199.951 152.221C211.421 161.186 229.411 160.2 242.934 158.636C247.128 158.151 250.012 157.445 250.021 162.758C250.032 168.562 249.104 174.627 250.533 180.324C252.786 189.297 261.112 189.511 268.474 187.579C272.358 186.559 276.113 185.026 279.802 183.42C285.212 181.066 290.172 177.603 295.515 175.253C299.137 173.66 301.849 178.812 305.062 175.24C305.656 174.58 305.765 173.596 306.661 173.258C308.064 172.729 310.418 174.584 311.649 175.171C313.492 176.05 315.35 176.696 316.086 178.812C316.775 180.791 316.473 183.938 315.813 185.89C314.379 190.134 310.519 189.295 306.994 189.011C300.847 188.516 294.741 187.466 288.596 187.025C283.083 186.629 277.92 188.335 273.164 191.15C263.176 197.063 255.005 206.467 246.344 214.202C241.887 218.182 237.579 222.482 232.731 225.948C230.624 227.455 228.341 228.84 226.51 230.714C224.692 232.571 224.493 234.26 223.871 236.733C222.764 241.135 217.266 243.287 213.829 245.609C208.969 248.894 203.817 251.211 198.369 253.226C186.831 257.493 175.203 260.473 163.14 262.676C157.235 263.755 151.378 264.463 145.415 265.046C140.274 265.548 134.808 267.187 129.674 265.877C131.153 263.394 133.773 261.902 135.814 259.983C138.445 257.508 140.682 254.576 142.673 251.537C146.549 245.621 149.267 239.273 149.892 232.097C150.454 225.638 149.809 217.912 146.046 212.457C144.746 210.572 142.174 210.059 141.01 208.361C139.854 206.674 140.295 203.768 139.661 201.801C138.049 196.796 133.264 190.594 129.052 187.687C124.484 184.533 117.8 183.374 112.522 185.018C102.745 188.063 96.7389 198.882 92.2649 207.627C89.8209 202.302 93.9138 194.401 89.1393 190.041C85.1123 186.362 81.9161 193.488 80.569 196.537C74.2466 210.848 72.8108 226.027 70.1618 241.339C69.0822 240.237 69.6354 237.41 69.7369 236.095C69.9258 233.649 69.9083 231.249 69.913 228.792C69.9258 222.585 71.0403 216.349 70.5294 210.148C70.2344 206.564 69.1306 199.005 64.1007 200.196C59.8351 201.206 57.1632 207.417 55.8229 211.214C53.8897 216.692 53.4434 222.114 53.5637 227.9C53.6968 234.293 52.5205 240.581 52.2355 246.965C51.6816 259.365 52.2288 271.658 55.6649 283.626C61.2917 303.223 74.2291 319.507 91.4959 329.339C101.009 334.757 111.563 338.185 122.414 338.922C128.294 339.322 133.971 338.597 139.8 337.968C145.554 337.346 151.337 337.059 157.08 336.33C169.87 334.706 182.333 330.513 193.958 324.871C200.078 321.901 205.832 318.255 211.852 315.089C214.267 313.819 215.899 312.229 217.96 310.463C220.003 308.712 220.569 308.575 222.893 308.575C222.211 306.687 224.201 306.105 225.086 304.91C225.036 305.49 224.987 306.069 224.937 306.648C225.612 305.132 226.24 305.147 226.822 306.692C227.396 304.961 227.822 303.182 228.516 301.496C231.169 302.886 230.945 306.191 234.493 303.778C237.415 301.792 240.102 299.449 243.08 297.503C249.865 293.068 255.715 287.298 262.52 282.914C262.52 287.184 262.811 291.491 262.259 295.739C261.735 299.777 260.279 303.553 259.12 307.42C256.984 314.554 256.836 322.178 254.47 329.241C253.49 332.166 250.939 334.612 250.208 337.459C249.463 340.363 251.185 342.691 248.298 344.598C246.262 345.942 243.718 346.51 241.464 347.323C238.026 348.565 234.762 350.316 231.415 351.801C215.717 358.766 200.405 365.859 185.861 375.224C172.059 384.111 158.045 393.289 145.366 403.843C134.362 413.004 123.238 424.847 120.559 439.79C117.96 454.283 124.886 469.841 138.792 474.614C146.022 477.096 154.196 476.789 161.726 476.896C169.829 477.012 178.414 474.99 186.38 473.527C194.793 471.982 203.062 469.564 211.499 468.184C219.594 466.86 227.019 463.901 234.981 462.078C243.462 460.136 252.161 459.082 260.688 457.335C264.527 456.548 268.289 455.388 272.138 454.66C276.353 453.863 280.614 453.564 284.787 452.508C292.882 450.459 300.633 447.157 308.764 445.251C312.419 444.394 316.019 443.246 319.675 442.445C323.042 441.708 325.665 439.749 329.039 441.358C331.765 442.658 333.94 444.887 336.519 446.44C339.866 448.454 343.393 450.258 346.882 451.992C353.891 455.474 361.161 457.881 368.489 460.496C376.188 463.243 383.748 466.375 391.723 468.189C399.9 470.048 408.241 470.566 416.473 472.037C433.334 475.049 450.052 476.401 467.167 476.51C475.818 476.567 484.467 475.505 493.098 475.63C500.739 475.742 507.381 477.525 514.368 473.319C525.531 466.598 538.48 456.475 538.206 441.772C537.956 428.454 530.241 415.73 523.005 405.227C514.217 392.471 501.688 383.489 489.408 374.689C476.32 365.313 461.619 358.833 447.864 350.648C440.829 346.462 434.341 341.958 426.703 338.984C423.056 337.564 419.499 335.918 415.895 334.389C412.996 333.159 408.809 332.48 406.327 330.439C404.778 329.166 404.63 327.237 404.221 325.344C403.315 321.155 401.892 317.181 400.513 313.141C397.849 305.339 396.08 297.393 394.935 289.21C393.844 281.41 391.422 273.298 392.676 265.371C400.927 273.634 409.404 281.577 417.845 289.622C421.009 292.636 424.113 295.714 427.293 298.711C429.68 300.96 432.666 304.301 435.994 304.969C440.244 305.822 438.691 300.954 441.609 300.2C443.393 299.739 448.771 304.431 450.182 305.358C459.119 311.233 469.015 314.956 478.845 318.955C489.153 323.148 499.754 326.873 510.845 327.929C521.091 328.905 531.567 327.652 541.454 324.762C561.144 319.006 575.633 305.349 586.266 287.647C598.382 267.474 607.198 243.844 606.485 219.763Z" fill="#323232"/>
<path fill-rule="evenodd" clip-rule="evenodd" d="M305.56 175.787C305.557 175.793 305.526 175.861 305.526 175.861C305.564 175.834 305.575 175.81 305.56 175.787Z" fill="#323232"/>
<path fill-rule="evenodd" clip-rule="evenodd" d="M306.51 176.048C306.436 175.405 306.277 174.776 306.032 174.16C305.381 175.23 304.797 175.688 305.654 176.822C305.939 176.564 306.224 176.306 306.51 176.048Z" fill="#323232"/>
<path fill-rule="evenodd" clip-rule="evenodd" d="M351.913 328.976C352.642 328.173 351.367 327.87 350.882 327.859C350.93 328.721 350.518 330.787 351.657 331.186C351.383 330.407 351.469 329.67 351.913 328.976Z" fill="#323232"/>
<path fill-rule="evenodd" clip-rule="evenodd" d="M332.68 160.882C331.427 163.387 334.194 164.164 335.797 162.954C337.003 162.044 337.716 159.724 337.914 158.236C338.555 153.419 335.3 148.835 333.677 144.561C333.257 143.457 332.683 139.668 331.333 139.564C329.781 139.445 329.666 142.934 329.646 143.834C329.586 146.549 330.28 149.314 331.094 151.876C331.971 154.639 334.143 157.955 332.68 160.882Z" fill="#323232"/>
<path fill-rule="evenodd" clip-rule="evenodd" d="M338.639 150.833C343.455 155.273 347.308 147.877 346.972 143.502C346.888 142.418 346.181 138.422 344.196 139.876C343.198 140.607 344.049 142.981 343.573 144.023C341.27 149.078 339.051 141.238 337.5 140.622C335.613 139.873 335.423 142.441 335.426 143.813C335.43 146.537 336.683 149.028 338.639 150.833Z" fill="#323232"/>
<path fill-rule="evenodd" clip-rule="evenodd" d="M321.156 151.522C322.29 149.672 323.685 147.192 323.839 144.975C324.079 141.531 322.14 141.818 320.545 144.222C319.418 145.919 318.572 148.799 316.084 148.083C313.013 147.201 313.951 142.924 312.232 140.892C307.89 146.931 316.107 159.753 321.156 151.522Z" fill="#323232"/>
<path fill-rule="evenodd" clip-rule="evenodd" d="M327.663 170.003C329.46 170.405 334.142 170.257 332.519 167.41C330.474 163.823 323.67 169.109 327.663 170.003Z" fill="#323232"/>
<path fill-rule="evenodd" clip-rule="evenodd" d="M390.579 63.0443C390.908 62.0306 390.456 61.8465 389.672 61.0482C388.93 61.7576 389.881 62.5039 390.579 63.0443Z" fill="#323232"/>
<path fill-rule="evenodd" clip-rule="evenodd" d="M424.077 246.651C425.261 246.846 425.643 246.197 425.22 244.704C423.35 244.579 422.97 245.228 424.077 246.651Z" fill="#323232"/>
<path fill-rule="evenodd" clip-rule="evenodd" d="M359.379 90.0248C360.686 90.6435 360.185 91.9129 360.163 92.9857C360.836 92.2282 362.196 90.8434 361.642 89.7553C360.789 88.0777 358.56 89.6378 359.379 90.0248Z" fill="#323232"/>
<path fill-rule="evenodd" clip-rule="evenodd" d="M314.863 68.9093C314.664 68.5068 314.465 68.1043 314.266 67.7018C313.454 68.3762 312.201 70.1595 313.491 71.0286C314.02 70.3642 314.477 69.6577 314.863 68.9093Z" fill="#323232"/>
<path fill-rule="evenodd" clip-rule="evenodd" d="M330.544 80.7455C332.17 82.0659 331.39 78.0133 331.341 77.6823C331.099 78.1577 329.722 80.0786 330.544 80.7455Z" fill="#323232"/>
<path fill-rule="evenodd" clip-rule="evenodd" d="M329.643 78.6875C329.518 78.3527 329.393 78.0178 329.269 77.6823C328.61 78.3141 327.803 79.6045 328.892 80.3438C329.19 79.826 329.44 79.2741 329.643 78.6875Z" fill="#323232"/>
<path fill-rule="evenodd" clip-rule="evenodd" d="M339.969 92.6042C340.102 92.7312 340.235 92.8581 340.368 92.9857C340.904 91.8654 340.294 91.0239 339.281 90.9896C339.353 91.6186 339.583 92.1568 339.969 92.6042Z" fill="#323232"/>
<path fill-rule="evenodd" clip-rule="evenodd" d="M296.399 218.629C297.044 218.174 297.629 217.656 298.156 217.074C296.247 215.865 297.391 218.484 295.093 216.876C294.598 217.585 295.407 219.171 296.399 218.629Z" fill="#323232"/>
<path fill-rule="evenodd" clip-rule="evenodd" d="M376.617 328.525C377.343 327.371 377.473 327.404 376.482 326.529C375.655 327.954 375.741 327.588 376.617 328.525Z" fill="#323232"/>
<path fill-rule="evenodd" clip-rule="evenodd" d="M224.902 144.935C225.298 145.362 225.693 145.789 226.088 146.215C226.272 145.657 227.278 144.079 226.595 143.553C226.031 144.014 225.466 144.474 224.902 144.935Z" fill="#323232"/>
<path fill-rule="evenodd" clip-rule="evenodd" d="M238.958 149.157C238.327 149.048 236.818 148.571 236.469 149.179C237.392 149.962 239.475 149.247 238.958 149.157Z" fill="#323232"/>
</g>
<defs>
<clipPath id="clip0_1158_132">
<rect width="658" height="511" fill="white" transform="translate(0 0.5)"/>
</clipPath>
</defs>
</svg>
