<svg width="728" height="554" viewBox="0 0 728 554" fill="none" xmlns="http://www.w3.org/2000/svg">
<path fill-rule="evenodd" clip-rule="evenodd" d="M442.073 359.409C440.93 376.413 418.189 385.254 404.396 388.882C407.161 372.2 410.731 354.907 408.51 337.99C407.779 332.417 406.819 326.874 405.788 321.352C405.407 319.31 405.014 317.269 404.606 315.233C404.508 314.737 403.708 312.569 403.963 312.075C404.418 311.192 408.276 311.33 409.26 311.369C411.793 311.467 414.279 312.117 416.597 313.144C421.468 315.303 425.573 319.018 428.954 323.119C436.929 332.791 442.935 346.586 442.073 359.409ZM415.744 243.818C402.543 251.749 386.641 256.007 371.583 258.081C348.645 261.242 325.223 257.603 302.797 252.561C297.291 251.323 291.796 249.989 286.371 248.423C286.127 264.548 290.598 279.884 299.33 293.332C306.55 304.451 315.972 313.744 324.208 324.043C331.874 333.631 338.058 344.446 338.365 357.1C338.493 362.381 338.065 367.214 333.707 370.636C329.328 374.075 323.413 375.351 318.054 376.134C304.635 378.096 290.581 377.036 277.247 374.876C274.658 374.456 272.074 373.979 269.518 373.382C266.617 372.704 265.601 371.905 263.177 374.115C257.949 378.884 255.55 386.035 254.366 392.876C252.146 405.689 252.899 420.636 256.099 433.277C259.181 445.454 273.728 452.203 284.505 455.146C317.012 464.023 352.877 451.764 377.82 429.941C378.363 429.465 378.903 428.983 379.429 428.487C381.201 432.23 383.136 435.908 385.25 439.463C386.721 441.936 388.269 444.422 390.124 446.623C390.794 447.418 391.58 448.492 392.496 449.013C394.2 449.981 395.934 449.269 397.864 448.929C412.1 446.421 426.303 443.122 439.84 437.927C460.42 430.03 478.876 417.02 488.631 396.469C493.558 386.087 496.127 374.713 497.37 363.307C498.797 350.209 499.106 336.821 495.473 324.056C488.817 300.663 471.835 281.698 453.238 267.071C441.73 258.02 429.079 249.841 415.744 243.818Z" fill="#169873"/>
<path fill-rule="evenodd" clip-rule="evenodd" d="M648.361 88.9086C645.352 90.1219 642.113 90.4593 638.912 90.6967C636.401 90.8825 634.43 91.9041 632.064 91.9616C625.476 92.1212 618.861 92.4214 612.305 93.4201C605.721 94.424 599.656 93.1134 594.457 98.133C592.606 99.9192 590.286 101.973 591.399 104.856C591.908 106.176 592.627 107.123 593.051 108.541C593.531 110.143 594.126 111.656 594.819 113.182C596.148 116.108 602.803 127.004 597.402 128.337C591.547 129.782 583.606 128.093 577.965 126.441C574.674 125.476 571.435 124.346 568.192 123.232C565.624 122.35 562.25 121.851 559.884 120.469C558.315 119.553 557.99 117.989 556.952 116.503C555.066 113.8 553.303 111.498 550.864 109.249C545.806 104.584 539.483 101.417 533.247 98.6327C532.845 98.4522 532.11 98.031 531.675 97.9898C531.206 97.9453 530.689 98.4359 530.386 98.3763C529.554 98.2122 529.265 97.6818 528.354 97.1572C527.131 96.4528 522.148 94.1095 521.276 95.9519C522.092 93.5313 522.687 94.2298 524.895 94.581C525.867 94.7367 526.517 94.2847 527.391 94.3299C528.196 94.3711 528.526 94.8361 529.199 94.9617C530.431 95.1912 531.579 95.0186 532.865 95.0088C533.21 94.235 533.701 94.2409 534.336 95.0257C534.69 95.1422 535.045 95.2586 535.4 95.3757C536.68 95.7321 538.05 95.6641 539.361 95.7687C541.33 95.927 546.463 98.3639 547.451 95.8976C548.505 93.2638 545.304 92.6072 544.77 90.7693C544.249 88.9662 546.688 87.908 547.667 86.819C548.782 85.5809 549.463 84.4939 550.771 83.403C551.537 82.7627 552.541 82.1656 553.11 81.3128C553.632 80.5279 553.609 79.2591 554.288 78.6051C555.096 77.8255 555.22 78.3651 555.955 77.9883C557.397 77.2486 556.76 77.2859 557.613 76.2748C558.341 75.4101 558.88 75.4363 559.833 74.7738C561.23 73.8039 561.721 71.9085 563.078 70.866C564.07 70.1027 565.651 70.104 566.522 69.3113C567.035 68.8444 566.877 68.0877 567.32 67.6468C568.172 66.7999 568.755 67.1439 569.818 66.8646C571.61 66.3937 572.19 65.3885 573.51 64.2243C574.715 63.1615 575.481 63.1661 576.99 62.7253C579.051 62.1236 580.383 60.5474 582.243 59.6213C583.995 58.7501 585.803 58.1392 587.575 57.2112C588.855 56.5408 590.088 56.1248 591.255 55.4407C591.65 55.2099 591.684 54.3642 592.193 54.2497C592.777 54.1176 593.245 55.1032 593.867 55.1549C595.169 55.2635 596.652 53.7971 597.508 52.9482C597.88 52.5793 598.383 51.582 598.861 51.3759C599.862 50.9443 600.459 51.7991 601.351 51.4616C602.603 50.9881 602.106 49.6016 602.873 48.837C603.544 48.1699 604.968 48.215 606.159 48.4263C610.959 49.2752 603.49 52.7154 602.085 53.4113C599.723 54.5833 582.533 63.1092 586.555 67.361C588.682 69.6102 593.877 67.9189 596.19 67.3264C600.245 66.2871 604.471 64.2864 608.63 63.8273C609.144 63.7704 610.678 64.1439 611.096 63.981C612.041 63.6141 611.806 62.8803 612.574 62.4944C613.73 61.9149 616.093 61.9431 617.267 62.0732C618.185 62.1752 619.189 62.7312 620.123 62.656C621.151 62.5729 622.145 61.966 623.164 61.7704C624.909 61.4368 626.715 61.6004 628.478 61.652C631.013 61.7272 636.079 62.1157 632.397 65.5324C629.417 68.2976 624.261 69.4945 620.501 70.7011C614.94 72.4847 609.476 74.1073 603.986 76.1394C600.245 77.5233 592.266 79.9543 596.719 85.1421C597.159 84.7209 597.599 84.3004 598.037 83.8792C598.557 84.4122 599.093 85.4495 599.925 85.4796C600.617 85.5044 600.363 84.7497 601.017 84.5136C603.075 83.7732 605.894 83.8295 608.063 83.6901C613.497 83.3409 618.911 82.6103 624.352 82.3841C629.477 82.1708 634.655 82.4481 639.679 83.5384C640.971 83.819 653.02 87.0296 648.361 88.9086ZM603.926 142.253C604.199 144.569 603.186 146.442 602.905 148.679C602.565 151.383 602.814 153.765 602.059 156.454C600.59 161.68 599.546 167.027 597.969 172.223C595.186 181.397 590.693 189.499 586.072 197.823C583.714 202.067 580.165 205.571 576.92 209.121C573.597 212.759 570.94 216.339 566.966 219.326C559.024 225.296 550.454 230.606 541.053 233.831C531.212 237.208 520.863 238.231 510.526 237.801C505.938 237.611 501.076 238.083 496.561 237.33C491.761 236.529 486.559 235.545 481.841 234.362C473.18 232.193 464.837 228.51 456.379 225.221C446.933 221.547 438.429 216.858 429.815 211.56C427.537 210.159 425.128 209.504 422.991 207.808C421.19 206.379 419.417 205.012 417.522 203.706C415.348 202.208 413.266 200.571 411.045 199.148C409.717 198.297 407.849 197.464 407.152 195.924C406.194 193.806 407.349 191.145 407.947 189.09C408.725 186.415 409.552 183.773 410.487 181.151C412.07 176.712 416.099 169.864 413.883 165.17C409.211 168.107 407.151 173.879 405.154 178.787C402.769 184.65 401.104 190.499 400.744 196.857C400.022 209.649 402.131 223.112 406.705 235.039C407.385 236.81 408.578 238.731 407.701 240.625C406.78 242.614 404.282 244.293 402.361 245.153C396.286 247.872 390.188 248.664 383.843 250.168C382.115 250.577 380.224 251.807 378.603 251.962C377.509 252.066 376.605 251.702 375.351 251.711C374.093 251.72 373.109 252.435 371.982 252.511C371 252.578 370.127 251.995 369.189 252.05C367.092 252.174 366.705 255.822 365.665 252.61C365.477 252.743 364.435 253.94 364.305 253.94C364.008 253.941 363.485 253.048 363.202 252.889C362.65 252.579 361.924 252.561 361.308 252.48C359.948 252.301 358.481 252.283 357.141 252.599C354.657 253.187 352.159 252.939 350.035 252.897C349.552 252.887 349.21 253.282 348.609 253.259C348.335 253.248 347.941 252.756 347.651 252.68C345.971 252.241 344.228 252.569 342.518 252.473C338.5 252.248 334.619 252.14 330.695 251.238C322.653 249.391 314.454 249.021 306.38 247.331C302.266 246.47 298.248 246 294.198 244.866C292.775 244.467 291.316 244.279 290.055 243.735C288.85 243.215 289.324 242.522 287.455 243.913C286.615 241.825 286.516 242.037 284.489 241.347C283.705 241.079 281.903 240.415 281.319 239.89C281.261 239.837 280.013 236.658 279.906 236.268C279.386 234.369 279.82 232.198 280.036 230.287C280.526 225.979 281.234 221.705 281.276 217.363C281.294 215.447 281.635 215.392 282.222 213.949C282.403 213.502 282.938 213.537 282.982 212.855C283.042 211.948 282.127 211.316 282.225 210.255C282.357 208.829 283.768 207.383 284.264 206.054C284.86 204.452 284.852 202.76 285.208 201.103C285.683 198.898 286.601 196.829 287.065 194.616C287.459 192.741 287.496 191.25 288.48 189.641C289.464 188.036 289.175 186.724 289.959 185.125C290.678 183.659 291.589 183.132 292.081 181.361C293.274 177.077 295.087 172.835 297.655 169.204C299.913 178.311 302.316 187.72 308.605 194.919C311.196 197.883 314.54 200.874 318.446 201.776C322.862 202.797 326.394 200.154 329.27 197.023C336.122 189.562 338.96 181.234 339.374 171.118C339.477 168.604 339.462 166.085 339.428 163.569C339.413 162.449 338.847 159.576 339.604 158.635C340.433 157.602 342.798 158.247 344.029 157.567C345.543 156.729 347.207 154.487 346.531 152.639C350.567 154.493 354.425 156.933 358.913 157.45C360.689 157.655 362.581 157.343 364.17 157.257C364.122 157.26 365.4 157.524 365.477 157.542C365.792 157.173 366.133 157.083 366.5 157.273C366.826 157.308 367.063 157.485 367.213 157.807C373.609 158.455 380.05 155.248 385.524 151.851C388.723 149.866 392.236 146.927 393.134 143.063C393.455 141.685 393.177 140.386 394.583 139.682C395.724 139.11 397.927 139.935 399.131 140.025C403.368 140.34 407.543 139.932 411.679 141.213C414.203 141.995 418.609 147.474 420.369 143.619C421.133 144.347 420.718 145.642 421.531 146.349C422.24 146.966 424.622 147.4 425.602 147.928C427.12 148.745 428.01 149.832 429.338 150.814C430.971 152.02 432.68 152.113 434.26 153.529C439.733 158.433 446.145 161.985 452.256 166.052C459.507 170.877 465.924 176.563 473.704 180.499C481.662 184.522 489.361 187.884 498.057 189.978C502.001 190.927 506.046 191.72 510.095 192.013C512.005 192.15 513.827 192.081 515.67 192.662C516.788 193.015 517.15 193.192 518.249 193.225C518.89 193.244 519.817 192.868 520.606 192.883C522.226 192.913 523.054 192.845 524.516 193.389C526.171 194.004 527.546 194.374 529.43 194.427C531.597 194.488 532.873 193.644 534.842 193.123C536.429 192.703 537.858 192.904 539.278 192.032C545.589 188.158 550.66 182.242 553.97 175.526C557.77 167.818 560.698 158.423 561.293 149.785C561.634 144.84 560.56 140.019 558.699 135.48C558.173 134.199 555.023 128.745 555.993 127.755C557.095 126.629 560.698 129.209 561.714 129.77C564.937 131.547 570.757 132.116 573.017 135.106C573.591 133.986 576.791 135.646 577.818 136.114C578.667 136.5 578.908 137.199 579.975 137.283C580.982 137.362 582.021 136.547 582.946 136.288C582.27 138.201 584.543 138.291 586.101 138.392C587.222 138.466 588.428 138.286 589.427 138.214C591.338 138.076 591.369 137.641 593.115 136.647C593.047 137.375 593.125 138.086 593.348 138.78C594.47 137.131 596.611 138.277 598.127 137.552C597.032 135.865 601.71 135.403 602.8 135.757C605.543 136.651 603.683 140.201 603.926 142.253ZM389.144 258.223C390.953 257.675 392.775 257.174 394.59 256.651C393.215 257.932 391.787 260.242 389.823 260.603C387.454 261.036 386.522 259.015 389.144 258.223ZM299.79 259.14C302.837 259.51 306.155 259.227 308.826 261.052C307.524 262.571 306.679 264.162 304.507 263.291C302.683 262.559 301.181 260.473 299.79 259.14ZM401.589 342.333C399.588 340.512 399.852 339.698 400.791 337.34C401.196 336.327 401.835 333.176 403.353 334.099C403.892 334.426 404.545 337.86 404.641 338.556C404.856 340.112 403.908 344.443 401.589 342.333ZM412.873 331.76C412.166 329.124 412.191 326.254 411.496 323.554C410.763 320.703 409.861 317.842 409.602 314.895C420.174 316.79 426.178 327.436 430.757 336.32C433.19 341.04 435.576 346.261 436.494 351.539C437.389 356.681 435.835 360.586 434.03 365.169C433.11 367.509 431.589 368.32 429.814 369.867C428.241 371.236 427.651 373.547 426.013 374.778C424.802 375.687 423.227 376.16 421.961 377.078C420.71 377.984 419.459 378.884 418.167 379.731C416.691 380.699 412.268 384.227 410.275 383.474C408.783 382.91 409.448 381.058 409.823 379.897C410.615 377.449 411.171 375.091 411.659 372.539C412.964 365.729 413.671 358.962 414.009 352.035C414.339 345.272 414.647 338.362 412.873 331.76ZM404.032 362.475C404.19 362.81 404.85 365.668 403.377 365.081C402.353 364.672 403.882 363 404.032 362.475ZM410.26 248.968C411.508 248.445 412.007 249.992 413.104 250.039C414.56 250.1 414.866 248.457 416.394 248.408C420.13 248.289 425.543 251.953 428.581 253.864C427.093 255.772 426.48 257.724 427.219 260.073C427.871 262.142 430.361 264.456 430.269 266.649C430.176 268.848 427.482 270.264 426.642 272.22C425.87 274.017 425.576 277.611 427.959 278.403C432.058 279.766 432.996 271.975 436.102 271.915C437.43 271.889 439.156 274.423 440.111 275.212C442.25 276.978 444.662 278.269 447.15 279.442C448.829 280.233 451.167 281.793 452.412 279.666C453.409 277.961 452.594 275.261 451.624 273.794C450.512 272.112 440.542 264.412 441.172 263.734C441.507 263.372 443.99 264.37 444.342 264.673C445.136 265.355 445.428 266.467 446.225 267.194C447.441 268.304 449.012 268.743 450.516 269.257C453.654 270.327 455.64 274.091 458.682 275.844C460.436 276.855 461.507 278.795 462.992 280.299C464.934 282.267 466.914 284.329 466.622 287.227C466.419 289.235 466.125 293.912 465.006 295.606C463.791 297.445 461.77 296.74 459.924 297.175C457.848 297.663 456.186 299.307 456.599 301.656C457.029 304.098 458.953 304.272 460.964 304.334C466.634 304.508 464.546 308.161 466.524 312.174C467.598 314.353 469.39 315.209 470.623 312.658C471.616 310.606 469.842 307.37 470.92 305.618C472.232 303.483 479.257 304.064 480.722 305.722C481.833 306.98 482.422 308.71 483.529 310.026C485.21 312.023 485.901 314.824 486.909 317.272C487.981 319.873 488.915 322.511 489.735 325.205C490.311 327.098 491.555 330.094 488.576 328.478C486.496 327.35 484.941 324.803 482.305 324.723C479.697 324.643 478.211 327.391 478.974 329.781C479.71 332.094 483.072 333.113 483.461 335.457C483.889 338.023 479.559 340.64 478.244 342.526C475.216 346.869 477.749 351.759 482.711 348.072C484.47 346.765 486.312 344.129 488.296 343.304C491.435 341.997 491.416 346.838 492.92 348.62C493.73 349.578 494.022 348.604 493.543 350.036C493.366 350.564 492.47 350.73 492.368 351.386C492.296 351.867 492.721 352.122 492.735 352.494C492.785 353.757 492.788 353.942 492.508 355.314C492.199 356.835 492.311 358.725 492.218 360.271C492.003 363.804 491.958 367.177 491.592 370.708C491.389 372.673 490.964 376.677 493.25 377.634C492.437 378.929 491.353 382.529 489.753 382.258C489.883 383.11 489.81 384.198 490.626 384.755C490.821 384.236 491.016 383.716 491.211 383.196C491.659 384.384 491.265 384.521 491.238 385.33C491.271 384.328 490.338 386.725 490.842 386.429C490.413 386.793 489.847 387.001 489.202 387.473C488.3 388.131 487.825 389.04 487.126 389.93C485.86 391.539 485.933 393.164 484.825 394.842C483.252 397.222 481.234 399.571 479.578 401.949C478.229 403.885 475.659 405.002 474.579 407.083C473.891 408.406 473.618 409.945 472.445 410.876C470.765 412.209 468.52 413.465 466.696 414.842C465.549 415.707 464.676 416.908 463.532 417.748C462.952 418.174 461.207 418.605 461.204 419.471C459.008 418.847 457.453 416.571 455.726 415.185C454.572 414.259 451.823 413.057 451.989 411.201C452.126 409.683 454.253 407.8 454.742 406.208C455.158 404.859 455.737 402.343 454.588 401.191C452.176 398.774 449.442 403.961 448.147 405.342C445.477 408.19 444.342 405.318 442.146 403.25C438.639 399.947 436.434 403.374 437.669 407.487C438.295 409.569 440.676 411.426 440.829 413.552C440.999 415.889 438.504 417.063 437.517 418.93C436.584 420.691 436.154 423.784 437.906 425.241C439.839 426.849 441.52 424.947 442.784 423.463C443.766 422.311 444.857 419.775 446.452 419.632C448.449 419.452 451.725 423.133 453.245 424.269C450.936 424.947 449.547 426.91 447.594 428.166C445.075 429.788 441.559 430.172 438.739 431.285C436.084 432.334 433.694 433.188 431.165 434.49C428.164 436.033 424.493 436.419 421.316 437.543C418.479 438.547 415.788 439.955 412.89 440.784C409.624 441.719 406.234 442.281 402.941 443.125C400.125 443.846 396.822 444.54 393.92 444.545C390.984 444.551 391.046 442.706 390.107 440.249C388.992 437.33 387.145 434.768 385.966 431.92C384.846 429.212 386.538 428.183 388.162 426.11C389.691 424.157 389.286 423.851 391.259 425.223C393.855 427.028 395.57 425.807 397.59 423.731C399.387 421.886 400.047 420.352 402.632 421.637C405.22 422.923 407.685 425.015 410.465 425.853C412.655 426.514 414.287 426.034 414.654 423.603C415.049 420.977 413.574 419.112 411.713 417.552C410.297 416.367 407.204 414.958 406.686 413.033C406.141 411.005 409.013 408.045 409.32 405.777C409.707 402.914 408.492 400.809 405.815 402.791C403.872 404.229 402.58 407.347 399.883 407.54C400.632 404.353 402.256 401.52 403.65 398.599C404.818 396.154 405.819 393.378 408.954 393.105C409.971 393.017 410.633 393.124 411.602 392.947C412.883 392.713 414.62 392.527 415.989 392.177C419.21 391.351 422.055 388.827 425.02 387.381C425.7 389.238 426.903 394.526 429.673 391.438C431.721 389.154 429.452 385.224 431.338 382.684C435.231 377.441 443.709 381.29 448.822 378.587C451.048 377.411 452.86 373.659 449.721 372.527C447.887 371.866 442.591 374.306 441.488 372.508C440.701 371.224 443.997 366.212 444.396 364.834C445.636 360.547 445.434 356.095 445.434 351.679C447.923 352.712 451.072 355.13 453.753 355.461C456.51 355.801 456.995 352.516 456.272 350.358C455.277 347.386 451.958 344.949 449.684 343.034C448.682 342.191 446.057 340.832 445.507 339.548C444.939 338.223 445.752 337.582 446.389 336.43C447.385 334.63 449.796 329.979 447.172 328.293C444.758 326.741 443.404 331.089 441.866 332.019C439.257 333.597 438.363 329.982 437.325 328.142C435.442 324.801 432.832 321.82 430.49 318.814C428.357 316.078 427.043 314.226 426.732 310.74C426.496 308.099 425.964 306.055 429.032 305.455C434.472 304.391 442.437 307.012 446.856 302.52C449.174 300.165 447.518 297.73 444.592 297.851C440.748 298.01 437.093 298.203 433.224 297.886C431.167 297.718 426.867 298.225 425.829 296.074C424.492 293.304 426.759 288.854 424.298 286.427C421.156 283.327 420.386 290.332 420.282 292.266C420.205 293.676 420.561 295.821 419.697 297.04C418.891 298.177 417.417 298.16 416.225 298.572C413.222 299.607 411.67 303.352 415.655 304.144C416.995 304.411 418.864 304.023 419.977 305.031C421.144 306.086 420.698 307.962 420.808 309.385C418.017 306.101 412.215 307.557 408.436 306.338C406.445 305.695 406.109 304.84 405.271 302.884C404.258 300.516 401.949 297.523 401.86 294.904C401.785 292.682 403.609 291.01 404.46 289.093C405.191 287.45 405.852 284.774 405.744 282.929C405.483 278.48 397.574 283.022 395.944 284.725C392.987 287.814 389.342 291.81 390.944 296.186C392.374 300.092 393.133 302.305 388.172 301.999C386.356 301.886 382.543 302.251 381.134 301.473C380.088 300.895 380.481 299.86 380.446 298.359C380.417 297.06 380.514 295.09 379.692 293.954C376.798 289.958 376.121 299.9 374.497 300.977C371.959 302.661 366.585 300.896 366.999 305.895C367.362 310.268 373.187 308.482 374.798 312.245C375.574 314.058 375.409 316.168 376.386 317.916C377.779 320.41 379.493 320.277 380.417 317.678C381.065 315.852 380.201 313.976 380.7 312.253C381.42 309.763 384.849 309.994 386.959 309.712C389.524 309.37 391.759 308.714 394.198 307.914C397.208 306.926 397.045 308.548 397.534 310.897C398.103 313.621 398.972 316.249 399.505 319.015C400.001 321.592 401.319 324.368 401.534 326.947C401.697 328.919 401.039 328.739 399.429 329.877C397.67 331.121 395.734 334.354 393.693 334.886C390.623 335.686 387.528 328.563 384.734 332.208C383.534 333.772 383.999 337.104 384.852 338.72C385.978 340.856 388.05 341.4 386.314 343.847C385.009 345.685 383.369 347.108 383.247 349.582C383.132 351.878 384.671 354.05 387.077 353.376C389.02 352.832 390.169 350.811 391.641 349.585C394.181 347.467 396.268 349.429 398.868 350.627C400.915 351.571 404.677 352.186 405.704 354.405C407.007 357.22 405.336 358.309 402.914 357.508C403.858 360.656 402.616 362.485 402.276 365.738C402 368.372 401.403 370.781 401.023 373.328C400.518 376.727 400.464 376.358 397.017 376.474C394.087 376.572 391.24 376.492 388.314 376.362C385.737 376.247 383.984 376.484 383.868 373.328C383.816 371.935 384.682 367.212 381.977 367.779C379.595 368.278 380.281 372.593 379.484 374.215C378.331 376.562 376.381 375.844 374.212 376.424C372.005 377.014 370.221 378.667 370.79 381.222C371.399 383.95 373.862 383.759 376.003 384.391C379.301 385.362 378.578 390.285 380.502 392.958C381.288 394.049 382.115 395.151 383.433 394.256C385.852 392.614 383.569 388.601 384.208 386.588C384.88 384.471 387.145 384.905 389.287 384.63C392.448 384.225 395.757 382.678 398.906 382.697C398.303 384.541 396.611 385.613 396.002 387.555C395.675 388.596 395.98 390.54 395.527 391.4C395.039 392.325 393.503 392.602 392.868 393.888C392.036 395.572 391.779 397.377 390.806 399.026C388.506 402.928 386.524 406.916 384.078 410.777C381.553 414.765 378.832 418.56 375.655 422.017C372.573 425.371 371.654 423.747 369.005 421.005C367.928 419.889 365.638 418.597 365.338 416.93C365.042 415.287 366.382 413.947 367.115 412.609C368.087 410.837 369.842 407.786 369.415 405.658C368.612 401.663 365.092 405.342 363.758 406.837C361.428 409.45 360.125 412.197 356.604 410.133C354.349 408.812 351.506 405.195 348.547 406.533C345.853 407.75 346.607 411.268 348.265 413.053C349.193 414.052 350.516 414.624 351.501 415.56C353.62 417.577 352.42 418.124 351.452 420.383C350.661 422.233 350.546 425.868 352.006 427.408C354.879 430.438 357.1 424.325 359.765 424.201C361.03 424.142 366.283 427.641 366.657 428.9C367.314 431.11 361.647 433.748 360.141 434.785C356.638 437.197 352.823 439.657 348.883 441.256C344.233 443.144 347.698 437.195 345.157 435.219C341.851 432.648 341.595 439.691 341.256 441.441C340.354 446.095 335.509 446.216 331.601 447.371C329.112 448.106 326.622 448.886 324.108 449.526C321.975 450.068 319.586 450.055 317.518 450.727C315.704 451.316 314.463 452.511 312.434 452.525C311.775 452.53 311.201 452.303 310.565 452.288C309.283 452.256 308.107 453 306.88 452.923C304.841 452.794 305.729 452.142 305.019 450.698C304.353 449.343 302.658 448.845 301.339 448.422C297.557 447.209 294.409 448.272 293.86 443.393C293.691 441.895 293.914 435.743 291.106 436.462C287.825 437.301 290.712 444.613 288.675 446.445C287.685 447.336 286.189 446.891 284.994 447.155C283.033 447.587 282.174 449.09 280.027 448.989C278.217 448.904 276.531 448.089 274.953 447.279C272.601 446.071 269.794 445.27 267.832 443.427C265.144 440.9 263.964 436.965 262.818 433.549C261.132 428.517 260.413 423.503 260.142 418.226C260.047 416.387 259.277 415.089 258.955 413.402C258.614 411.607 259.624 411.247 259.857 409.546C260.083 407.893 259.974 406.127 260.316 404.356C260.809 401.809 260.981 399.203 261.459 396.648C262.249 392.423 263.448 388.227 264.432 384.04C264.738 382.739 265.291 378.57 266.873 378.169C268.04 377.874 270.735 379.637 271.817 380.155C273.956 381.179 275.795 382.593 278.084 383.302C279.264 383.667 280.755 383.631 281.53 384.744C282.755 386.504 281.765 389.952 282.272 392.033C282.893 394.58 284.951 395.663 286.609 393.105C287.492 391.741 287.257 390.115 287.376 388.607C287.545 386.433 287.583 385.907 289.901 386.054C292.25 386.203 294.542 387.103 296.95 387.212C299.121 387.31 301.303 387.249 303.472 387.129C308.739 386.837 313.557 385.967 318.497 384.064C321.843 382.775 325.723 379.957 329.411 380.056C334.616 380.196 333.207 385.086 333.92 388.744C334.354 390.971 338.023 397.805 339.433 392.258C340.129 389.515 337.807 385.515 339.183 383.037C340.809 380.109 346.783 382.538 349.501 381.86C351.7 381.311 355.376 378.147 353.823 375.417C353.087 374.123 351.658 374.368 350.384 374.271C347.969 374.088 345.57 373.754 343.175 373.396C341.813 373.192 339.731 373.074 339.186 371.486C338.724 370.139 340.892 366.644 341.362 365.355C342.918 361.087 343.478 357.616 343.485 352.961C343.487 350.864 343.622 348.651 343.29 346.577C343.168 345.817 342.043 343.335 342.57 342.608C343.278 341.63 344.727 342.871 345.308 343.603C346.463 345.063 346.062 344.946 345.405 346.458C344.438 348.682 342.559 353.346 345.746 355.057C349.079 356.848 350.283 350.798 353.441 351.461C354.913 351.77 356.367 353.735 357.553 354.653C358.942 355.727 360.442 356.867 362.074 357.526C364.752 358.608 367.762 357.797 366.68 354.38C365.826 351.685 363.127 349.43 361.197 347.52C358.122 344.476 358.261 343.197 360.386 339.612C361.275 338.112 364.689 331.741 360.732 331.223C358.638 330.948 356.373 334.394 355.266 335.713C353.367 337.975 352.279 338.947 349.454 337.13C346.692 335.354 345.41 333.87 342.07 333.706C338.228 333.518 336.499 327.659 334.462 324.65C328.928 316.477 320.454 312.434 313.31 306.172C309.828 303.12 307.478 299.128 304.83 295.371C303.569 293.581 301.941 292.095 300.914 290.145C300.268 288.919 298.517 285.963 298.973 284.517C299.54 282.715 302.602 281.604 303.876 280.331C304.945 279.264 305.515 277.933 307.197 278.341C308.694 278.704 310.042 280.76 311.266 281.663C312.466 282.549 313.821 283.372 315.153 284.035C317.562 285.233 320.47 285.874 320.611 282.228C320.734 279.074 317.899 275.696 315.851 273.568C314.36 272.019 312.102 270.673 312.397 268.214C312.543 266.994 313.564 264.823 314.16 263.8C316.214 260.279 322.484 262.427 325.892 262.653C329.997 262.926 334.524 262.226 337.787 265.174C338.851 266.135 341.318 268.023 341.841 269.361C342.449 270.919 341.455 271.619 340.904 273.127C340.19 275.075 339.699 278.921 341.753 280.265C345.182 282.506 346.969 275.857 350.533 277.312C353.912 278.691 356.274 282.656 360.132 283.284C365.18 284.105 362.305 277.755 360.558 275.887C358.293 273.465 353.899 270.96 355.338 267.378C355.748 266.355 356.687 264.219 357.532 263.584C359.185 262.34 361.851 263.023 363.744 263.044C368.523 263.095 373.034 262.696 377.716 261.849C379.128 261.593 379.449 261.39 380.444 262.458C381.822 263.934 382.545 265.858 384.147 267.309C381.833 269.841 378.401 272.829 380.011 276.726C381.396 280.079 384.431 278.434 386.485 276.643C387.449 275.802 388.446 274.021 389.724 273.684C391.383 273.246 393.248 274.775 394.606 275.552C396.645 276.718 401.006 280.174 403.322 278.134C406.385 275.435 402.76 271.373 400.65 269.706C399.374 268.698 397.674 267.979 396.6 266.734C395.171 265.078 396.01 264.835 396.875 263.342C398.46 260.612 397.879 257.094 400.414 254.961C401.82 253.778 403.83 253.034 405.435 252.167C407.014 251.313 408.71 249.618 410.26 248.968ZM436.09 259.589C435.473 259.206 434.857 258.822 434.241 258.439C435.65 257.742 436.58 257.825 436.09 259.589ZM470.104 292.772C470.352 291.497 471.321 289.217 472.655 290.409C473.513 291.175 472.575 294.053 474.618 293.257C474.723 295.09 473.378 294.935 475.363 296.565C472.859 296.271 469.402 296.386 470.104 292.772ZM372.911 447.295C373.541 445.578 373.536 442.916 375.478 444.485C375.579 442.407 375.094 435.814 378.814 436.082C380.33 436.191 380.314 437.548 380.715 438.724C381.413 440.775 382.593 442.643 383.587 444.555C379.896 444.706 376.203 445.563 372.911 447.295ZM374.119 470.99C376.229 472.606 377.286 470.697 379.277 470.001C381.115 469.358 383.023 469.743 385.059 469.287C387.584 468.721 390.558 468.807 393.025 468.784C393.632 468.779 394.904 468.877 395.518 468.948C396.637 469.079 396.537 469.313 397.695 469.63C398.143 469.525 398.595 469.449 399.051 469.402C399.61 469.377 400.05 469.612 400.373 470.105C401.414 470.458 401.794 470.223 402.791 470.47C405.166 471.059 406.939 472.511 408.49 474.436C411.649 478.355 411.743 484.244 411.671 489.094C411.65 490.475 411.546 491.849 411.697 493.227C411.834 494.491 412.714 496.401 412.355 497.657C411.81 499.558 410.123 499.131 408.158 499.216C407.001 499.266 405.846 500.023 404.926 500.09C404.036 500.155 403.677 499.822 402.776 499.617C400.425 499.083 397.651 499.845 395.332 500.494C392.952 501.161 390.866 501.818 388.453 502.29C386.882 502.596 385.469 502.771 383.886 502.972C382.587 503.136 382.026 503.83 380.893 504.116C379.801 504.391 378.735 503.979 377.633 504.195C376.13 504.49 375.082 505.609 373.713 506.167C371.825 506.934 368.808 505.787 367.972 508.155C367.644 505.871 365.485 506.492 363.878 506.29C361.229 505.957 358.62 504.751 356.073 503.982C353.984 503.352 346.762 497.544 345.379 499.901C345.381 499.663 345.632 498.313 345.414 498.157C344.644 497.607 344.65 497.909 343.82 497.565C342.551 497.039 342.016 496.564 341.109 495.676C339.275 493.882 336.805 492.943 334.873 491.316C330.017 487.227 328.355 478.803 327.171 472.94C325.622 475.727 326.192 472.151 326.46 470.956C327.094 468.136 326.278 466.746 326.094 464.022C325.924 461.517 327.05 461.021 329.279 460.759C332.026 460.436 334.669 459.985 337.359 459.29C339.928 458.625 342.445 457.876 344.763 456.555C346.884 455.345 349.11 454.87 351.279 453.812C353.672 452.644 356.017 451.417 358.431 450.279C359.519 449.767 364.309 446.099 365.141 446.322C366.848 446.782 365.237 449.815 364.716 450.611C363.378 452.655 361.183 453.604 359.202 454.89C357.415 456.05 351.997 461.544 357.498 460.993C361.143 460.628 363.612 456.752 365.944 461.169C366.767 462.729 367.978 463.981 367.032 465.593C365.71 467.842 361.899 468.914 359.9 470.427C358.197 471.718 354.712 477.799 358.224 478.451C359.233 478.638 360.79 478.396 361.54 477.599C362.047 477.062 362.011 475.958 362.523 475.59C363.248 475.069 364.658 475.714 365.486 475.429C366.667 475.021 366.944 474.368 367.378 473.217C368.638 473.801 368.656 474.584 370.095 473.831C370.572 473.581 370.748 472.665 371.3 472.421C372.042 472.092 372.263 473.169 372.67 473.01C373.774 472.581 373.77 472.097 374.119 470.99ZM298.466 453.103C296.353 453.264 294.045 453.436 292.241 452.069C294.432 452.203 296.365 452.705 298.561 452.246C299.434 452.063 300.832 451.227 301.726 451.518C304.905 452.552 299.313 453.038 298.466 453.103ZM292.597 264.431C292.565 263.676 291.934 253.526 295.351 257.513C296.287 258.604 295.278 260.064 295.145 261.271C294.92 263.304 295.622 265.341 296.678 267.053C297.662 268.649 299.501 270.047 299.226 272.129C298.984 273.955 297.168 275.515 296.273 277.031C294.071 273.51 292.774 268.667 292.597 264.431ZM285.086 157.912C277.168 158.757 269.29 160.253 261.656 162.562C254.161 164.829 247.174 168.373 240.13 171.768C238.679 165.461 237.159 159.171 235.725 152.859C235.035 149.822 234.376 146.776 233.73 143.728C233.271 141.56 231.599 137.52 232.297 135.388C232.667 134.258 233.156 134.254 233.952 133.556C234.438 133.13 235.286 132.089 235.79 131.866C237.018 131.324 240.17 130.849 241.427 130.927C242.572 130.997 243.171 131.458 244.349 131.124C245.352 130.84 246.194 130.057 247.136 129.627C249.531 128.534 252.521 128.168 255.082 127.59C257.548 127.033 260.093 126.91 262.564 126.358C264.729 125.875 265.757 124.258 267.603 124.316C272.408 124.469 277.721 123.898 282.488 122.733C287.836 121.426 293.654 121.679 299.141 121.539C301.327 121.483 302.864 120.984 302.875 123.454C302.888 126.468 301.701 129.851 301.096 132.794C299.754 139.318 298.617 145.659 298.109 152.284C297.855 155.597 296.517 155.366 293.862 156.382C290.908 157.513 288.227 157.577 285.086 157.912ZM243.457 224.844C245.408 225.137 245.184 219.722 245.327 218.621C249.978 227.523 255.217 236.088 259.315 245.281C260.273 247.431 261.143 249.631 262.155 251.754C262.848 253.208 264.398 255.161 264.36 256.852C264.321 258.617 262.916 259.278 261.435 259.932C259.835 260.639 259.21 260.992 258.082 260.174C256.717 259.184 255.577 256.134 254.734 254.664C253.446 252.42 252.214 250.143 250.953 247.883C248.668 243.787 245.972 239.865 244.096 235.565C242.337 231.536 239.677 228.069 237.782 224.112C235.905 220.192 233.336 216.477 231.178 212.641C233.346 211.726 236.046 209.44 238.508 209.567C241.051 209.698 240.989 212.189 241.099 214.264C241.216 216.467 240.489 224.399 243.457 224.844ZM249.704 265.059C248.544 266.456 245.927 267.277 244.323 268.051C242.101 269.124 239.825 270.078 237.614 271.173C230.358 274.766 223.131 278.055 215.739 281.354C211.918 283.059 208.143 284.872 204.414 286.776C202.461 287.773 198.157 291.267 195.909 291.356C193.333 291.457 193.273 286.178 192.705 284.198C192.228 282.541 191.343 281.252 190.748 279.681C190.505 279.039 190.694 278.553 190.323 277.917C189.903 277.193 188.723 276.61 188.117 275.985C185.542 273.332 183.408 269.954 181.233 266.964C179.241 264.226 175.843 260.798 174.887 257.442C173.008 250.845 183.925 247.194 188.102 244.543C195.414 239.903 202.763 235.136 209.734 229.98C212.909 227.632 216.018 225.19 219.209 222.863C220.699 221.777 224.826 217.552 226.737 219.057C227.449 219.618 227.462 221.169 227.76 221.982C228.409 223.758 229.394 225.309 230.392 226.903C231.279 228.314 232.539 229.773 233.093 231.347C233.754 233.225 233.723 234.289 234.932 235.973C237.13 239.036 238.168 242.57 240.212 245.692C242.183 248.703 244.076 250.924 245.364 254.289C246.104 256.217 247.27 257.928 248.301 259.701C248.787 260.538 249.295 261.361 249.73 262.228C250.509 263.777 250.784 263.758 249.704 265.059ZM187.329 290.825C185.934 291.838 183.881 290.136 182.528 290.112C181.94 290.102 181.355 290.568 180.962 290.555C179.779 290.519 178.813 289.713 177.725 289.338C172.701 287.604 166.711 287.538 162.419 284.016C153.892 277.019 157.958 262.98 159.51 253.885C159.827 252.03 160.396 249.462 158.919 247.943C157.3 246.278 154.866 247.272 153.384 248.619C151.864 250 150.831 251.934 149.567 253.547C147.554 256.116 145.358 258.544 143.139 260.928C135.255 269.399 126.907 279.092 117.154 285.309C113.098 287.895 109.427 291.399 104.981 293.369C99.6334 295.74 105.123 286.589 106.085 285.102C112.379 275.371 121.542 267.667 129.237 259.124C130.689 257.512 132.752 255.338 132.778 253.016C132.817 249.528 129.781 249.841 127.38 250.809C125.135 251.715 124.01 253.97 122.204 255.51C119.955 257.427 117.327 258.983 114.824 260.53C109.426 263.868 103.694 266.669 97.9811 269.401C95.3085 270.678 92.6231 271.928 89.9377 273.178C89.2007 273.522 84.7954 276.358 85.0058 273.927C85.0348 273.6 87.8451 270.136 88.192 270.008C89.9222 269.366 90.7803 271.303 92.3199 268.764C93.4142 266.961 93.5661 266.025 95.1109 264.657C95.3735 264.425 95.5544 263.836 95.7675 263.454C95.7411 263.598 96.9151 262.439 96.6905 262.641C96.9988 262.365 97.4468 261.858 97.6972 261.526C98.9047 259.926 101.226 259.896 102.276 258.068C102.676 257.371 102.449 256.478 102.932 255.787C103.607 254.818 105.095 254.405 105.889 253.552C106.569 252.82 107.13 252.222 107.552 251.774C107.843 251.465 108.353 251.249 108.698 250.896C109.554 250.017 109.487 249.238 110.685 248.499C111.762 247.835 112.257 248.456 112.629 246.813C113.938 247.665 113.774 246.419 114.306 245.526C114.997 244.364 115.875 243.847 116.828 243.006C118.924 241.156 120.888 238.403 122.672 236.075C127.106 230.285 130.693 223.514 132.014 216.249C132.33 214.512 132.505 212.757 132.63 210.995C132.697 210.069 132.399 207.814 132.965 206.906C133.842 205.498 135.508 206.057 136.776 205.441C137.207 205.231 137.632 204.614 138.036 204.474C138.601 204.278 139.293 204.469 139.879 204.28C140.107 204.207 140.16 203.527 140.537 203.44C141.276 203.268 142.01 203.541 142.741 203.551C144.34 203.573 145.919 203.287 147.452 202.77C148.847 202.299 150.015 201.221 151.406 200.832C151.264 200.872 153.7 201.069 153.569 200.93C153.685 200.321 153.802 199.712 153.918 199.103C154.843 199.758 157.997 200.623 158.976 200.473C160.548 200.233 160.217 198.794 161.55 200.683C162.305 200.016 163.059 199.348 163.814 198.68C164.385 201.114 168.322 199.932 170.107 200.067C172.621 200.258 174.602 199.778 176.893 200.666C179.68 201.748 182.124 202.888 185.126 203.183C187.224 203.388 188.096 204.389 190.15 205.006C192.912 205.836 193.13 206.75 192.266 209.613C191.566 211.935 190.961 213.725 191.984 216.106C193.799 220.33 198.731 222.069 201.91 224.988C194.462 230.293 187.107 235.512 179.906 241.164C176.889 243.532 173.681 245.904 171.963 249.466C170.378 252.754 169.479 256.705 168.525 260.224C166.338 268.293 172.499 273.724 178.829 277.273C180.139 278.007 189.16 289.496 187.329 290.825ZM175.044 300.579C174.598 299.027 174.657 298.613 176.134 298.056C176.692 297.845 178.835 297.57 179.181 298.348C179.966 300.114 175.841 300.091 175.044 300.579ZM237.813 188.119C238.342 191.563 238.862 195.008 239.335 198.459C239.595 200.366 240.186 202.053 238.786 203.491C237.991 204.308 236.061 204.613 235.045 205.048C233.58 205.675 232.153 206.395 230.744 207.143C228.233 208.478 225.608 209.282 223.129 210.485C222.051 211.008 221.412 212.038 220.478 212.748C219.201 213.721 217.648 214.194 216.33 215.118C213.975 216.772 211.816 218.731 209.462 220.396C206.795 222.283 206.24 221.676 204.742 218.888C203.397 216.385 201.783 215.243 199.847 213.281C199.095 212.518 196.4 208.169 198.689 207.795C199.275 207.698 201.301 208.592 201.76 208.879C202.458 209.313 203.573 211.782 204.14 211.824C205.161 211.9 206.47 208.948 207.107 208.171C211.279 203.075 215.869 198.034 220.704 193.576C223.21 191.265 225.843 189.16 228.684 187.295C230.704 185.969 232.468 184.11 234.46 182.853C234.881 182.482 235.358 182.217 235.894 182.059C236.933 181.58 237.323 181.993 237.065 183.299C237.661 184.577 237.596 186.709 237.813 188.119ZM146.544 183.607C147.558 182.559 148.839 181.721 149.724 180.552C150.222 179.893 150.551 178.713 151.122 178.287C152.116 177.544 153.538 177.886 154.694 176.89C155.811 175.928 156.791 174.775 157.882 173.776C160.245 171.612 162.685 169.622 165.004 167.419C166.321 166.167 167.704 164.542 168.875 163.716C169.185 163.497 169.533 163.17 169.863 163.001C170.568 162.641 170.92 163.008 171.95 162.672C172.631 162.45 173.117 161.576 173.663 161.162C174.962 160.177 176.654 159.788 177.904 158.841C179.154 157.894 179.755 156.423 181.476 155.633C183.557 154.678 185.116 155.432 186.62 153.606C187.234 152.861 187.402 151.923 188.365 151.453C189.525 150.887 190.544 151.488 191.653 150.844C192.399 150.41 192.91 149.5 193.682 149.025C195.062 148.177 196.59 148.087 197.881 147.037C198.971 146.152 198.366 146.243 199.656 145.869C200.223 145.705 200.853 145.634 201.458 145.424C203.398 144.753 206.567 143.931 207.716 142.063C208.299 142.927 208.499 143.102 209.445 142.834C209.942 142.424 210.398 141.973 210.813 141.48C211.117 141.87 211.444 141.894 211.793 141.55C213.84 140.836 215.718 139.609 217.735 138.928C218.021 139.084 218.307 139.241 218.592 139.398C218.99 139.42 219.151 139.223 219.075 138.806C219.869 138.659 220.783 138.305 221.514 137.982C222.916 137.362 224.464 135.889 226.116 136.416C228.874 137.296 229.006 143.005 229.482 145.267C230.654 150.842 231.835 156.415 233.013 161.99C233.492 164.258 233.913 166.543 234.543 168.773C234.955 170.23 235.981 172.379 235.611 173.928C235.157 175.828 233.331 176.446 231.803 177.325C229.698 178.535 227.664 179.878 225.672 181.272C217.215 187.191 210.91 195.331 204.914 203.682C203.803 202.044 200.828 199.744 198.973 199.006C197.674 198.489 196.505 198.906 195.212 198.275C194.29 197.825 193.524 196.946 192.652 196.379C187.328 192.919 180.901 190.059 174.73 188.686C162.067 185.868 149.671 190.231 137.393 192.302C139.884 188.826 143.609 186.635 146.544 183.607ZM231.304 89.2925C233.47 82.1264 237.119 75.1884 242.313 69.8123C244.932 67.102 248.009 64.7331 251.459 63.2263C254.459 61.9162 258.029 60.6599 257.982 64.8725C257.881 74.0177 255.799 83.059 255.545 92.2187C255.297 101.195 256.778 108.399 262.131 115.632C258.739 116.431 255.349 117.242 251.97 118.093C249.403 118.738 246.742 119.463 244.314 119.906C241.914 120.344 239.707 120.629 237.334 121.452C235.734 122.007 233.228 123.703 231.497 123.335C228.62 122.723 229.301 112.25 229.153 109.734C228.737 102.628 229.237 96.1317 231.304 89.2925ZM283.89 103.091C287.82 98.2495 291.905 92.6013 298.518 91.702C304.912 90.8328 307.268 98.6144 306.862 103.861C306.725 105.637 306.465 110.247 305.193 111.685C303.787 113.276 301.291 112.077 299.504 111.832C291.793 110.772 283.886 112.541 276.153 112.541C278.731 109.39 281.323 106.251 283.89 103.091ZM315.533 122.398C318.215 122.788 320.358 123.203 319.063 126.301C316.47 132.507 314.478 138.43 316.75 145.194C318.485 150.36 323.98 156.632 329.471 157.667C331.395 158.03 334.289 157.381 335.472 159.364C336.525 161.13 335.384 166.427 335.26 168.389C334.804 175.695 332.96 182.945 328.299 188.687C324.151 193.796 319.091 197.794 313.059 192.972C307.975 188.908 304.972 181.637 303.468 175.423C302.665 172.106 302.567 168.797 302.414 165.407C302.278 162.409 301.715 160.508 305.056 159.886C305.952 159.72 308.188 159.772 308.192 158.385C308.197 156.521 305.771 157.22 304.843 157.126C301.264 156.763 302.94 152.54 303.274 149.809C303.842 145.159 304.762 140.56 305.607 135.957C306.326 132.035 306.363 126.897 307.925 123.23C308.836 121.089 313.743 122.138 315.533 122.398ZM322.121 136.169C322.528 133.642 322.745 130.483 325.217 129.086C327.933 127.551 329.292 130.052 330.633 132.095C334.188 137.517 338.122 142.59 338.705 149.321C338.775 150.123 339.114 151.735 338.352 152.29C338.011 152.538 337.198 151.884 336.672 151.923C333.856 152.128 331.82 152.894 329.058 151.281C323.656 148.123 321.139 142.269 322.121 136.169ZM343.364 151.309C342.783 145.424 340.104 140.205 337.112 135.236C335.637 132.786 332.772 130.108 331.754 127.52C331.208 126.133 332.174 124.416 334.157 125.011C335.145 125.307 337.048 127.966 337.709 128.886C339.405 131.25 340.811 133.887 342.153 136.47C343.588 139.228 347.665 149.354 343.364 151.309ZM325.579 92.7046C325.893 87.1676 325.924 80.8092 329.459 76.214C332.197 72.6508 337.212 71.0995 341.281 69.7221C346.762 67.8659 353.345 67.5795 359.077 68.1792C364.122 68.7077 367.93 72.193 371.043 76.0256C374.21 79.9229 376.663 84.9413 378.84 89.4763C379.385 90.6111 384.006 97.891 380.881 97.7217C379.641 97.6543 378.563 95.1978 377.613 94.4724C376.869 93.9041 375.988 93.9747 375.321 93.5202C374.606 93.0329 374.76 92.5823 374.206 91.9806C370.388 87.8432 366.875 90.2258 362.757 92.4051C362.565 90.9616 362.902 88.2801 361.713 87.2252C360.156 85.8445 358.53 88.0316 357.413 89.1042C356.397 90.0813 355.144 91.8616 353.864 92.39C352.202 93.0761 352.767 92.3469 351.324 91.7707C348.417 90.6104 346.181 94.0441 344.712 96.0408C344.163 96.7857 343.267 98.6661 342.285 98.8675C341.336 99.0618 341.211 98.3757 340.393 98.1219C338.079 97.4058 337.438 99.0807 336.701 101.161C335.871 103.499 335.165 105.752 333.937 107.937C331.764 111.802 330.83 113.074 332.549 117.342C330.039 117.72 329.513 118.023 328.268 115.764C326.986 113.435 326.653 111.503 326.734 108.826C326.903 103.227 325.255 98.3914 325.579 92.7046ZM383.839 119.195C386.466 124.01 388.136 130.71 388.109 136.196C388.094 138.918 387.937 142.265 386.685 144.734C385.483 147.103 382.969 148.289 380.652 149.298C375.068 151.732 368.778 151.704 362.907 150.619C359.859 150.055 356.895 150.419 354.288 148.561C352.326 147.162 349.959 145.804 349.384 143.239C349.143 142.166 349.515 141.266 349.438 140.213C349.533 139.712 349.497 139.224 349.331 138.746C348.988 138.546 348.643 138.351 348.295 138.162C348.021 137.362 348.546 136.47 348.412 135.635C348.249 134.626 347.424 133.806 347.039 132.891C345.977 130.371 346.735 128.961 348.723 127.25C349.199 126.87 349.678 126.494 350.159 126.121C350.592 125.427 351.069 125.424 351.592 126.112C352.539 126.125 352.511 126.421 353.507 126.127C355.688 125.482 357.518 123.127 359.655 122.299C360.486 121.978 361.724 122.251 362.399 121.658C363.001 121.127 362.614 120.016 363.143 119.495C364.833 117.832 367.493 119.409 369.056 116.991C370.332 115.018 370.062 112.219 370.192 109.979C374.11 110.739 375.806 114.548 379.025 116.464C379.661 113.961 379.754 114.035 382.212 113.348C381.098 115.437 382.898 117.471 383.839 119.195ZM386.837 92.615C387.559 93.5581 388.11 95.9002 386.837 96.1265V92.615ZM390.181 101.134C396.162 101.146 399.985 108.819 401.731 113.571C403.629 118.74 405.629 125.634 402.087 130.668C400.728 132.598 399.062 132.775 396.876 132.524C394.242 132.223 392.892 131.836 393.923 128.98C395.854 123.628 394.401 116.824 390.979 112.344C395.686 111.422 392.702 107.04 390.339 105.401C387.58 103.486 385.35 101.123 390.181 101.134ZM253.63 378.504C252.223 382.291 250.793 386.067 249.612 389.969C248.493 393.666 249.142 397.833 247.75 401.388C246.894 400.958 246.649 400.195 245.905 399.731C245.446 399.444 244.647 399.331 244.253 399.015C243.577 398.474 241.935 396.456 241.49 395.674C239.953 392.966 240.978 388.565 241.8 385.783C242.817 382.337 244.554 379.028 246.887 376.313C248.523 374.41 249.426 375.016 251.614 375.953C252.907 376.507 254.24 376.861 253.63 378.504ZM242.97 408.383C241.847 410.69 239.769 412.592 238.535 414.918C237.24 417.359 236.26 420.111 234.609 422.344C232.928 424.62 231.417 424.239 229.102 425.221C228.271 425.573 227.922 426.226 227.253 426.736C225.999 427.689 224.624 428.275 223.306 429.124C222.369 426.79 219.505 415.074 215.861 415.325C212.694 415.543 214.314 421.677 214.723 423.487C215.068 425.015 215.462 426.567 215.987 428.044C216.518 429.534 218.171 431.766 217.559 433.4C216.782 435.477 214.849 435.34 213.881 433.825C213.071 432.558 212.66 430.837 212.063 429.458C211.538 428.246 209.14 421.613 207.067 422.642C205.07 423.633 208.176 430.063 208.696 431.327C209.951 434.377 212.358 437.308 209.177 439.752C204.348 443.462 198.401 446.256 192.99 448.931C189.832 450.492 186.993 452.545 183.678 453.812C180.599 454.99 177.042 455.19 174.066 456.544C173.333 456.877 173.824 457.292 172.754 457.485C171.857 457.647 170.29 457.212 169.327 457.221C167.734 457.236 166.137 457.36 164.546 457.156C163.65 457.042 161.61 456.046 161.933 457.691C160.665 457.334 160.175 456.035 159.25 455.224C158.426 454.501 157.374 454.109 156.454 453.542C154.552 452.367 153.13 451.029 152.56 448.791C151.22 443.537 154.052 438.069 157.547 434.405C159.553 432.304 161.906 430.556 163.745 428.293C164.391 427.5 164.85 426.577 165.669 425.932C166.672 425.141 168.048 425.043 169.02 424.242C169.743 423.647 169.959 422.698 170.716 422.151C171.837 421.344 173.148 421.679 174.206 420.619C174.81 420.013 176.883 417.162 176.737 416.372C177.305 416.565 177.873 416.758 178.441 416.951C178.786 415.193 181.772 413.026 183.246 412.184C183.991 411.758 185.442 411.779 185.997 411.321C186.734 410.711 186.674 409.433 187.259 408.668C188.937 406.475 192.45 405.491 194.672 403.964C197.5 402.02 200.246 399.818 202.801 397.518C207.963 392.869 212.515 387.466 216.233 381.564C217.731 379.187 219.121 376.763 220.187 374.157C220.844 372.553 221.499 369.702 223.121 368.772C224.796 367.811 228.642 369.112 230.517 369.249C233.272 369.451 237.566 369.326 240.035 370.699C242.675 372.168 240.529 373.383 239.17 375.133C237.182 377.696 235.99 380.833 234.997 383.908C234.232 386.272 234.089 388.561 233.589 390.945C233.06 393.465 233.066 396.868 234.289 399.184C235.502 401.476 244.235 405.79 242.97 408.383ZM138.844 454.85C132.913 446.656 137.823 434.662 143.625 428.041C150.625 420.052 160.588 415.559 168.771 409.062C178.233 401.55 187.952 394.572 196.337 385.761C200.587 381.295 204.287 376.481 207.643 371.292C210.491 366.885 212.559 361.015 218.314 360.378C214.919 364.672 214.721 370.859 212.096 375.64C209.317 380.702 205.22 384.913 201.048 388.805C192.238 397.022 182.722 404.55 173.206 411.894C168.349 415.642 163.626 419.56 158.786 423.326C154.451 426.7 149.897 429.586 147.399 434.727C143.089 443.596 142.831 456.737 152.376 462.201C147.458 461.206 141.926 459.106 138.844 454.85ZM655.939 85.3625C654.185 81.8 650.896 80.5312 647.594 79.1375C644.362 77.7738 641.409 76.0936 637.824 75.6574C636.23 75.4631 631.735 75.9451 631.525 73.6011C631.35 71.6482 636.047 69.6881 637.129 68.2001C638.734 65.9948 639.824 62.414 639.202 59.6285C638.612 56.9868 636.08 56.1523 633.716 55.6736C626.363 54.1856 618.544 55.2798 611.172 55.8913C612.075 54.6108 613.347 53.5604 614.07 52.0267L615.239 54.4924C615.905 53.0823 616.626 51.6984 617.454 50.3779C618.014 51.0162 618.575 51.6552 619.134 52.2935C618.203 48.9783 621.334 48.9953 621.005 46.2006C620.876 45.1136 620.151 44.6375 619.973 43.7637C619.623 42.0266 620.945 40.9403 619.44 39.3294C617.766 37.5354 615.028 38.247 613.079 38.4144C612.834 38.436 612.48 38.9272 612.164 38.9671C611.725 39.0233 611.473 38.4111 610.931 38.4438C609.478 38.5308 608.197 39.676 606.753 40.024C600.06 41.6368 593.365 44.5132 586.94 47.1987C580.4 49.9325 573.98 53.1157 568.278 57.4061C562.175 61.998 557.767 67.9013 552.893 73.7175C550.603 76.4507 548.232 79.0753 546.489 82.2245C545.588 83.8517 544.773 88.9629 543.151 89.7059C541.389 90.513 536.96 88.2311 535.158 87.8099C530.918 86.8197 526.696 86.4063 522.349 86.6051C518.891 86.7621 515.243 86.6686 511.813 87.0976C509.822 87.3468 504.862 89.5882 504.543 92.0944C504.403 93.2082 505.66 94.1343 505.942 95.1781C506.368 96.757 505.664 98.4293 506.155 100.011C507.156 103.237 511.806 104.424 514.545 105.44C522.194 108.277 529.947 110.477 537.675 113.016C541.033 114.12 543.904 115.877 546.945 117.642C549.468 119.104 551.769 120.568 549.221 123.314C546.807 125.915 547.109 126.965 547.828 130.549C548.586 134.332 548.849 138.156 549.837 141.901C550.821 145.631 552.659 149.194 552.301 153.141C551.943 157.074 550.339 161.115 548.839 164.72C547.324 168.361 545.651 171.96 544.004 175.543C542.481 178.858 540.833 182.218 537.309 183.633C530.582 186.333 521.987 185.905 514.976 184.924C507.019 183.811 498.798 181.924 491.272 179.043C484.036 176.273 476.077 172.024 470.093 167.004C466.896 164.323 463.433 162.336 460.04 159.937C456.602 157.505 453.991 154.226 450.979 151.314C445.075 145.608 437.807 141.676 430.326 138.538C421.917 135.012 413.234 135.378 404.323 134.997C405.725 132.2 407.531 129.527 408.193 126.414C408.884 123.171 408.384 119.648 407.947 116.409C407.098 110.103 405.49 104.554 401.567 99.4614C399.773 97.1324 397.679 95.3168 394.691 94.9787C392.881 94.7733 389.535 96.184 388.229 94.6281C387.653 93.942 387.788 92.4992 387.425 91.6542C387.105 90.9041 386.46 90.1493 386.11 89.3344C384.615 85.8511 382.748 82.7725 380.884 79.4677C380.143 78.1538 379.569 76.214 378.558 75.108C378.008 74.5063 377.3 74.2329 376.992 73.7927C376.417 72.9693 376.151 71.4637 375.671 70.5344C374.85 68.9438 373.805 67.4657 372.598 66.153C370.67 64.0549 368.188 62.2034 365.544 61.1582C364.076 60.5775 363 60.4401 361.466 60.5251C361.017 60.55 360.517 60.8129 360.068 60.7782C358.992 60.6952 359.161 60.3041 358.299 60.1223C352.532 58.9038 344.8 60.6134 339.391 62.7122C333.693 64.9228 329.066 67.8378 325.604 73.0759C317.099 85.9407 319.081 102.552 322.688 116.721C320.506 116.14 318.333 115.452 316.13 114.959C314.781 114.657 312.94 114.714 311.735 113.991C309.054 112.384 311.234 108.258 311.25 105.592C311.292 98.8191 308.142 88.2271 301.272 85.3664C294.114 82.3854 285.405 90.753 280.98 95.498C278.141 98.5418 275.56 101.822 272.843 104.976C270.945 107.18 268.439 110.694 265.111 110.118C257.853 108.862 260.066 94.8511 260.389 90.1153C260.899 82.6287 261.985 75.0223 261.99 67.5167C261.994 62.9542 261.216 56.7991 255.695 56.2641C248.095 55.5284 240.896 62.5422 236.465 67.9385C224.778 82.1682 222.196 100.977 225.322 118.833C225.781 121.451 227.244 124.68 224.452 126.305C220.785 128.441 216.096 129.734 212.154 131.301C203.341 134.806 195.179 139.481 186.88 144.05C178.665 148.574 170.581 153.064 163.169 158.893C155.78 164.703 148.466 170.86 141.735 177.448C138.38 180.731 135.143 184.157 132.089 187.732C129.215 191.095 126.887 194.914 123.763 198.057C121.637 200.197 117.725 203.067 117.258 206.332C116.88 208.967 121.26 210.794 123.237 212.012C124.592 212.847 125.531 212.821 125.629 214.31C125.75 216.167 123.821 219.143 123.135 220.912C121.385 225.428 119.098 229.169 116.092 232.927C109.433 241.251 101.387 248.309 93.7495 255.703C86.653 262.575 79.6994 269.337 74.4978 277.862C73.2234 279.951 70.0513 284.242 73.0657 286.197C73.8458 286.703 76.2396 287.103 77.0339 286.56C78.0181 285.886 77.5192 284.872 78.6824 284.196C78.3908 286.466 88.5499 282.031 89.3404 281.619C91.4754 280.509 93.4065 279.208 95.5892 278.213C96.8694 277.629 97.0246 276.816 98.0158 276.165C98.5456 275.816 98.552 276.284 99.2613 276.067C99.8999 275.871 101.398 275.797 101.875 275.172C101.888 275.155 102.408 273.644 101.965 273.957C103.696 272.734 104.719 274.584 103.68 276.321C100.609 281.454 96.7246 285.23 95.5209 291.398C95.0839 293.639 94.3379 297.798 95.6857 299.84C95.7346 299.914 96.1884 299.698 96.2438 299.778C96.2953 299.852 96.7896 300.55 96.993 300.748C98.1838 301.905 98.1072 302.42 100.095 302.372C100.977 302.35 102.735 302.235 103.542 301.831C104.149 301.527 104.446 300.778 104.912 300.511C105.385 300.241 105.329 300.1 105.772 299.942C105.863 299.91 106.037 300.697 106.21 300.664C107.157 300.483 107.565 299.908 108.369 299.446C110.688 298.114 112.961 296.651 115.169 295.309C117.39 293.96 119.051 292.078 121.264 290.51C123.615 288.845 125.539 287.568 127.348 285.256C128.599 283.656 130.093 283.073 130.934 282.286C131.932 281.35 133.651 277.739 135.259 277.309C135.991 277.113 136.577 277.771 136.978 277.501C137.429 277.199 136.937 276.618 137.164 276.276C137.586 275.639 137.639 275.533 138.358 274.949C139.279 274.202 140.411 274.001 141.184 273.027C142.043 271.944 142.161 270.728 143.219 269.713C145.762 267.271 148.026 264.698 150.721 262.331C149.68 268.221 148.649 274.069 149.456 280.059C150.237 285.865 152.665 288.464 157.431 291.411C158.48 292.059 159.581 293.003 160.707 293.463C161.392 293.743 162.423 293.576 162.934 293.782C164.662 294.477 164.074 295.9 164.311 297.504C164.679 299.99 166.93 301.903 168.383 303.839C169.605 305.468 171.809 309.174 173.854 309.737C175.7 310.244 177.442 308.053 178.98 307.12C181.299 305.713 183.824 304.704 186.269 303.555C191.044 301.309 195.658 298.631 200.38 296.256C202.537 295.171 204.716 294.73 206.999 294.029C209.741 293.188 212.08 291.579 214.71 290.481C219.439 288.507 223.97 286.151 228.669 284.078C238.397 279.787 249.007 276.84 257.663 270.403C261.579 267.49 266.621 267.18 270.48 264.35C274.503 261.4 272.036 256.888 270.314 253.268C265.608 243.378 262.8 233.106 256.322 224.096C252.956 219.415 249.847 214.577 246.912 209.6C244.315 205.195 244.368 200.207 243.716 195.232C243.28 191.907 242.871 188.568 242.338 185.257C242 183.153 240.909 180.503 242.229 178.595C243.648 176.546 247.017 175.674 249.146 174.593C251.792 173.249 254.354 171.804 257.1 170.667C263.374 168.068 269.982 166.27 276.564 164.682C278.526 164.209 286.927 160.824 288.526 162.807C286.562 164.139 285.989 166.558 285.107 168.631C283.796 171.721 282.441 174.665 281.484 177.903C279.507 184.597 277.824 191.399 276.212 198.192C274.61 204.937 272.702 211.735 272.212 218.683C271.962 222.23 272.133 225.78 272.127 229.33C272.121 233.119 271.346 236.836 271.485 240.635C271.577 243.16 271.786 246.195 273.244 248.35C274.595 250.347 276.892 250.569 278.895 251.637C281.536 253.046 282.571 253.647 282.595 256.713C282.624 260.285 282.396 263.794 282.726 267.365C283.873 279.799 287.989 294.554 296.206 304.154C296.752 304.792 312.694 325.196 314.458 322.21C315.674 323.67 317.491 324.204 318.987 325.478C321.338 327.479 323.645 329.079 325.589 331.558C329.127 336.068 332.135 341.354 333.02 347.122C333.78 352.085 333.323 358.02 330.564 362.322C327.797 366.638 321.881 369.47 317.415 371.594C311.544 374.387 305.586 374.701 299.212 374.001C296.067 373.656 292.946 373.116 289.824 372.607C288.525 372.395 287.009 372.394 285.78 371.897C284.461 371.366 284.014 370.777 282.698 370.711C281.715 370.662 281.177 370.883 280.138 370.663C278.851 370.39 277.454 369.894 276.171 369.559C274.744 369.186 273.574 368.656 272.259 367.972C271.042 367.339 269.671 367.216 268.499 366.617C266.48 365.582 265.858 363.853 263.126 364.812C260.242 365.823 260.845 368.354 259.004 370.09C257.369 371.632 255.342 370.206 253.715 369.289C251.319 367.939 248.83 366.816 246.28 365.794C243.524 364.69 240.709 363.73 237.842 362.97C234.705 362.139 231.259 361.974 228.238 360.764C225.583 359.701 224.44 357.645 222.516 355.724C220.493 353.703 217.748 352.933 214.943 353.113C209.836 353.441 206.348 359.044 203.65 362.936C196.111 373.806 187.779 383.068 177.703 391.608C172.889 395.687 167.462 399.157 162.806 403.39C160.842 405.176 159.417 406.85 157.091 408.18C154.036 409.927 151.264 412.118 148.344 414.088C136.921 421.791 128.542 433.013 131.701 447.666C133.123 454.261 135.963 458.891 141.27 462.859C143.679 464.661 145.883 466.16 148.952 466.056C151.85 465.957 154.407 465.855 152.7 462.356C154.863 463.035 156.673 464.712 159.034 465.571C161.754 466.56 165.293 467.176 168.181 467.236C172.805 467.332 178.245 464.858 182.294 463.809C183.426 463.517 185.608 463.037 186.898 461.957C187.924 461.098 187.701 460.082 189.254 459.674C191.288 459.14 192.063 459.765 194.012 458.513C196.839 456.697 199.905 455.619 202.837 453.945C206.787 451.69 210.585 449.148 214.499 446.825C215.021 448.285 218.087 456.958 219.981 452.777C221.629 449.137 216.278 446.021 219.531 442.336C222.634 438.822 223.283 442.517 226.293 444.148C230.471 446.413 229.845 442.182 228.63 439.677C228.144 438.675 227.122 437.164 227.423 435.995C228.004 433.738 229.803 435.063 231.218 435.293C233.445 435.656 235.246 435.034 236.919 433.517C238.314 432.252 240.621 431.16 241.464 429.493C241.886 428.658 241.96 427.512 242.311 426.626C242.773 425.458 243.103 425.741 243.272 424.292C243.11 423.543 243.046 422.784 243.079 422.016C243.445 421.941 243.81 421.866 244.175 421.79C244.186 421.737 244.211 420.276 244.064 420.494C244.405 419.991 245.138 419.777 245.56 419.08C245.947 418.437 245.587 417.206 245.743 416.448C246.058 414.914 246.919 413.676 247.622 412.308C249.109 418.694 248.679 425.354 250.1 431.744C251.267 436.99 253.926 441.693 257.027 445.994C258.464 447.988 260.367 449.402 261.872 451.297C263.145 452.9 263.782 454.312 265.661 455.26C266.911 455.889 268.318 456.213 269.606 456.757C270.43 457.105 272.305 458.706 273.078 458.678C272.405 458.702 274.344 458.763 273.895 458.686C273.928 458.691 273.665 457.829 273.898 457.843C276.709 460.544 279.645 460.55 282.898 462.228C284.388 462.997 284.945 462.95 286.534 463.234C288.592 463.602 290.324 464.794 292.294 464.921C295.328 465.117 298.744 465.53 301.907 465.416C302.768 465.385 304.385 464.822 305.06 465.586C305.505 466.09 304.66 469.735 304.607 470.57C304.051 479.323 305.204 488.512 308.843 496.521C311.86 503.162 315.078 511.018 320.416 516.09C326.332 521.71 334.619 525.672 342.532 527.188C351.293 528.866 359.977 527.61 368.765 527.088C377.681 526.559 385.931 525.275 394.53 522.652C402.527 520.213 410.101 517.035 417.752 513.681C422.956 511.401 429.555 508.12 426.827 501.199C426.167 499.525 423.609 494.872 421.346 497.167C419.343 499.199 422.691 503.043 424.206 504.333C412.786 512.415 398.929 515.088 385.567 517.95C378.228 519.523 370.998 519.456 363.534 519.478C357.209 519.496 350.885 519.681 344.6 518.784C338.915 517.973 332.296 516.452 328.065 512.234C323.64 507.821 319.451 502.552 316.431 497.047C313.116 491.006 312.312 484.473 312.044 477.659C311.903 474.073 311.745 470.441 312.114 466.863C312.383 464.265 313.69 463.956 314.338 461.904C315.836 464.033 316.822 463.247 318.662 462.002C319.85 465.37 319.321 468.87 319.116 472.344C318.917 475.727 319.362 479.158 319.77 482.518C320.463 488.231 323.16 494.188 326.581 498.787C328.128 500.866 330.447 501.744 332.544 503.18C335.218 505.011 337.99 506.715 340.781 508.358C346.038 511.452 351.774 514.097 357.698 514.564C359.774 514.727 361.283 515.825 363.756 515.671C365.224 515.58 366.702 515.07 368.167 515.11C369.636 515.151 370.896 515.628 372.405 515.517C378.671 515.056 385.132 512.973 391.337 511.828C398.055 510.59 404.815 509.256 411.229 506.81C414.007 505.75 416.302 504.383 417.853 501.72C418.961 499.817 418.671 496.405 420.736 495.267C419.383 493.497 419.886 493.184 421.054 491.601C421.6 490.864 423.36 488.91 421.225 488.945C421.874 486.094 420.788 483.336 420.326 480.547C420.126 479.342 420.18 477.518 419.446 476.48C419.017 475.876 418.305 475.864 417.921 475.419C417.525 475.41 417.215 475.242 416.993 474.917C416.967 474.441 417.186 474.151 417.652 474.047C417.544 473.104 418.232 473.442 417.544 471.968C416.607 469.956 414.827 468.204 413.142 466.835C411.707 465.669 410.649 463.599 408.992 462.977C406.836 462.168 404.575 461.288 402.309 460.536C397.171 458.832 392.08 458.181 386.69 459.125C384.221 459.558 381.789 460.089 379.405 460.863C378.01 461.317 375.877 462.54 374.641 461.221C374.217 460.769 373.331 456.924 373.386 456.508C373.608 454.84 376.963 454.167 378.187 453.585C380.059 452.696 383.523 451.745 384.711 449.98C385.209 449.24 384.646 446.097 384.728 446.04C385.513 445.504 388.807 453.136 389.705 453.657C391.002 454.409 394.647 453.415 395.989 453.265C399.991 452.818 404.059 452.565 407.978 451.596C415.494 449.739 422.873 446.866 430.187 444.327C444.102 439.497 457.535 433.131 470.044 425.225C475.886 421.531 481.689 416.811 486.135 411.449C488.14 409.03 489.556 406.162 491.603 403.79C493.965 401.055 493.221 398.586 494.28 395.159C496.423 388.223 499.025 381.922 500.192 374.653C501.393 367.169 501.889 359.528 501.556 351.951C500.898 336.975 500.182 322.777 493.697 309.017C487.753 296.407 480.052 284.087 470.896 273.647C468.767 271.22 466.518 268.909 463.904 267.021C461.089 264.989 457.991 263.395 455.443 260.994C453.352 259.024 451.603 256.703 449.416 254.833C446.731 252.539 443.538 251.525 440.394 250.059C437.379 248.655 434.63 246.829 431.548 245.55C429.672 244.773 427.772 244.056 425.816 243.513C424.371 243.112 422.451 243.087 421.13 242.325C419.038 241.12 416.899 237.612 415.534 235.631C413.541 232.74 412.461 229.377 411.513 226.017C410.36 221.928 409.287 217.814 408.16 213.718C407.774 212.318 406.333 207.447 409.206 208.629C410.047 208.975 410.835 210.512 411.483 211.169C412.71 212.415 414.225 213.529 415.747 214.377C418.203 215.744 420.76 217.389 423.115 218.332C425.19 219.162 427.324 220.789 429.259 221.96C429.552 222.138 429.638 222.75 430.017 222.921C430.908 223.322 431.502 222.215 432.344 222.486C433.495 222.857 433.684 223.957 434.322 224.832C435.248 226.101 435.728 226.201 437.141 226.854C438.714 227.581 439.868 229.016 441.402 229.728C443.264 230.591 447.364 229.922 447.644 232.9C450.539 230.981 454.17 234.707 455.976 236.64C457.795 233.807 461.016 237.124 463.768 236.184C462.245 238.332 462.522 238.119 464.925 238.384C466.953 238.609 468.168 239.976 470.172 240.77C471.56 241.319 473.095 242.245 474.538 242.632C475.903 242.998 476.936 242.177 478.124 242.382C478.943 242.523 479.722 243.243 480.502 243.439C481.49 243.689 482.897 243.992 484.014 244.26C485.372 244.588 486.724 244.287 488.079 244.548C489.661 244.852 491.025 245.807 492.63 246.117C494.421 246.463 496.282 246.232 498.061 246.673C499.683 247.074 500.669 247.536 502.349 247.552C504.855 247.577 507.652 247.914 510.126 247.627C511.444 247.474 512.174 246.796 513.665 247.459C514.66 247.901 515.256 249.266 516.611 248.641C515.18 248.058 516.436 245.792 518.014 247.528C518.387 246.555 518.629 246.011 519.666 245.692C519.614 246.644 519.461 247.601 520.658 247.801C520.749 247.138 520.842 246.475 520.934 245.812C523.537 247.822 524.153 248.533 526.609 246.079C526.544 246.882 526.21 247.791 527.014 248.36C527.529 247.491 528.045 246.622 528.56 245.754C529.43 248.557 533.584 247.59 535.598 247.092C536.379 246.9 538.536 246.595 539.045 245.946C539.399 245.495 539.356 245.143 539.486 244.867C539.602 244.622 538.279 244.019 539.405 243.666C540.253 243.4 540.915 245.288 541.911 245.213C542.799 245.146 543.158 243.62 543.798 243.31C543.859 243.281 544.293 243.926 544.593 243.784C545.06 243.565 545.326 242.987 545.842 242.782C546.959 242.339 548.404 242.45 549.654 241.924C551.241 241.257 552.84 240.939 554.459 240.389C556.513 239.693 557.444 238.325 559.111 237.205C559.501 236.943 559.908 237.096 560.292 236.91C560.809 236.66 561.351 236.073 561.966 235.797C563.896 234.928 565.544 234.338 567.375 233.139C569.007 232.071 571.162 231.281 572.616 229.999C573.824 228.931 574.477 227.373 575.694 226.286C577.441 224.727 581.954 222.771 581.222 219.725C584.144 220.177 584.859 218.258 585.931 216.141C586.952 214.127 589.042 213.523 590.409 211.687C591 210.893 591.952 209.792 592.278 208.886C592.472 208.347 591.985 207.785 592.116 207.417C592.723 205.725 595.061 204.985 596.144 203.46C597.521 201.518 597.963 199.062 599.112 197.067C599.338 196.675 599.895 196.442 600.11 196.023C600.249 195.755 599.96 195.088 600.128 194.824C600.529 194.197 601.159 193.981 601.561 193.4C602.535 191.994 602.713 189.995 603.588 188.401C603.804 188.009 604.554 186.912 604.649 186.679C604.965 185.894 604.87 185.378 605.032 184.505C605.081 184.242 605.581 182.722 605.684 182.505C606.005 181.826 606.316 181.726 606.807 180.982C608.036 179.119 608.799 176.192 608.9 173.93C608.943 172.971 608.629 171.979 608.971 171.063C609.267 170.272 610.177 169.784 610.52 168.955C611.42 166.782 611.273 163.708 611.521 161.383C611.79 158.849 612.589 156.351 612.809 153.836C612.916 152.618 612.353 151.54 612.394 150.393C612.442 149.079 613.114 148.834 613.372 147.741C613.668 146.493 613.235 145.056 613.499 143.717C613.745 142.473 614.102 141.32 614.204 140.044C614.469 136.718 614.095 133.239 613.953 129.912C613.898 128.621 613.728 127.275 614.064 126.01C614.335 124.993 615.441 123.856 615.405 122.753C615.292 119.344 612.605 122.294 611.06 122.06C609.265 121.789 608.934 117.7 608.461 116.149C607.305 112.36 606.149 108.572 604.992 104.784C610.504 103.327 616.236 103.747 621.863 103.354C627.393 102.968 632.792 101.75 638.154 100.38C642.681 99.222 647.634 98.551 651.702 96.0794C655.118 94.0048 657.935 89.4135 655.939 85.3625Z" fill="#323232"/>
<path fill-rule="evenodd" clip-rule="evenodd" d="M120.659 158.7C122.864 157.537 122.308 155.93 123.927 154.437C132.99 146.08 143.624 138.784 154.283 132.759C165.512 126.411 178.112 123.723 189.59 118.099C191.133 117.342 193.139 116.159 192.563 114.051C191.89 111.588 189.579 112.722 187.931 113.303C182.442 115.24 176.599 115.969 171.031 117.671C159.146 121.303 148.015 127.567 137.947 134.897C132.089 139.162 126.478 143.877 121.476 149.172C119.633 151.122 117.177 153.396 116.698 156.204C116.104 159.68 118.13 160.034 120.659 158.7Z" fill="#323232"/>
<path fill-rule="evenodd" clip-rule="evenodd" d="M154.984 377.187C154.931 374.115 151.635 375.232 149.938 375.645C143.044 377.324 136.881 378.609 130.78 382.498C119.456 389.714 110.876 400.678 105.325 412.81C104.586 414.424 101.61 419.541 103.995 421.064C105.568 422.069 106.522 419.143 107.109 418.057C110.099 412.53 114.102 407.637 118.127 402.835C127.064 392.171 137.807 385.404 150.66 380.462C152.236 379.856 155.023 379.42 154.984 377.187Z" fill="#323232"/>
<path fill-rule="evenodd" clip-rule="evenodd" d="M536.033 301.749C533.648 296.88 529.792 290.873 524.456 288.868C521.504 287.758 519.756 289.594 520.633 292.662C521.33 295.102 523.656 296.294 525.393 297.911C529.862 302.075 532.615 308.291 534.247 314.063C535.973 320.165 536.317 326.786 536.286 333.104C536.27 336.439 535.393 339.337 534.916 342.584C534.73 343.86 534.411 346.673 535.856 347.469C539.058 349.235 540.538 340.015 540.865 338.243C542.07 331.703 541.954 325.682 540.939 319.154C540.011 313.184 538.708 307.21 536.033 301.749Z" fill="#323232"/>
<path fill-rule="evenodd" clip-rule="evenodd" d="M526.871 67.8009C528.174 66.0181 527.223 63.5222 527.612 61.4896C528.018 59.3591 529.23 57.2038 530.254 55.3401C532.469 51.3165 534.939 47.3653 537.571 43.6124C540.289 39.7369 543.604 36.4348 546.493 32.7113C547.47 31.4517 549.201 29.6513 548.779 28.1352C548.095 25.6805 546.607 26.8769 545.414 27.9056C538.895 33.5307 533.154 40.4662 528.517 47.7508C526.316 51.2082 524.237 54.9943 523.509 59.0955C523.133 61.2136 523.129 63.4237 523.748 65.4975C524.137 66.8009 525.306 69.9431 526.871 67.8009Z" fill="#323232"/>
<path fill-rule="evenodd" clip-rule="evenodd" d="M125.114 367.848C128.381 367.542 131.666 367.432 134.941 367.262C137.364 367.135 140.091 367.287 142.315 366.103C144.554 364.911 143.581 363.126 141.72 362.862C140.65 362.71 138.844 363.443 137.697 363.494C136.455 363.548 135.207 363.509 133.964 363.513C130.332 363.527 126.418 363.499 122.916 364.724C121.772 365.124 120.04 365.742 119.569 367.069C118.563 369.906 123.599 367.99 125.114 367.848Z" fill="#323232"/>
<path fill-rule="evenodd" clip-rule="evenodd" d="M153.719 108.203C158.463 107.626 163.048 106.183 167.723 105.264C172.166 104.39 172.923 100.835 167.662 100.995C165.895 101.048 148.864 104.327 153.719 108.203Z" fill="#323232"/>
<path fill-rule="evenodd" clip-rule="evenodd" d="M545.734 286.496C542.547 285.686 544.195 289.273 545.182 290.383C547.006 292.433 548.002 293.969 548.544 296.704C548.861 298.296 548.564 301.89 549.896 303.108C551.207 304.306 551.298 303.51 551.531 302.031C552.187 297.861 550.876 287.802 545.734 286.496Z" fill="#323232"/>
<path fill-rule="evenodd" clip-rule="evenodd" d="M510.744 59.4903C511.647 58.5192 510.678 54.2963 510.785 53.0587C510.915 51.5591 511.265 50.2901 511.705 48.8829C511.92 48.2005 512.996 45.7921 512.416 45.0443C511.613 44.0077 510.278 45.7594 509.854 46.4489C508.48 48.693 508.159 52.4346 508.388 54.9616C508.47 55.8764 509.015 61.3481 510.744 59.4903Z" fill="#323232"/>
<path fill-rule="evenodd" clip-rule="evenodd" d="M323.079 415.597C323.229 413.205 325.499 411.547 325.506 409.003C325.514 406.145 323.619 404.908 321.258 406.765C319.835 407.886 318.727 410.614 316.802 410.972C312.941 411.69 311.426 404.653 307.622 405.467C304.33 406.171 306.06 411.91 307.054 413.846C308.107 415.899 310.019 417.339 309.397 419.863C308.657 422.862 306.121 424.59 307.108 428.012C308.94 434.37 312.919 428.425 315.312 426.427C317.017 425.003 318.047 425.256 319.703 426.652C321.971 428.565 323.704 429.865 326.454 431.153C328.88 432.29 331.22 433.083 331.296 429.269C331.355 426.269 329.123 423.284 327.163 421.249C325.537 419.56 322.913 418.26 323.079 415.597Z" fill="#323232"/>
<path fill-rule="evenodd" clip-rule="evenodd" d="M280.576 406.111C277.739 403.04 274.154 410.872 271.86 411.738C268.143 413.143 267.287 405.615 263.864 405.852C261.201 406.036 261.411 409.91 261.991 411.676C262.615 413.578 264.484 415.133 264.797 417.082C265.278 420.068 259.709 426.039 263.595 428.924C266.913 431.387 268.148 423.065 272.296 426.46C274.332 428.127 280.03 434.329 282.853 431.243C286.188 427.595 278.254 421.366 276.806 418.591C274.847 414.834 284.735 410.61 280.576 406.111Z" fill="#323232"/>
<path fill-rule="evenodd" clip-rule="evenodd" d="M349.331 299.439C348.517 299.075 347.202 299.678 346.321 299.639C345.375 299.598 344.391 299.163 343.458 299.001C341.432 298.65 337.867 299.158 336.429 297.325C334.962 295.455 336.077 291.701 335.45 289.427C335.109 288.19 334.714 286.663 333.073 287.215C331.168 287.855 331.214 291.405 330.986 292.962C330.651 295.259 330.381 297.011 328.105 297.828C326.421 298.433 324.648 298.129 323.286 299.533C322.288 300.562 321.614 302.441 322.396 303.786C323.569 305.805 326.11 304.76 327.872 305.398C330.56 306.372 329.921 310.827 330.472 313.386C330.825 315.03 331.601 319.633 333.927 319.559C337.099 319.459 335.868 312.991 335.692 311.103C335.514 309.188 335.089 307.564 337.196 306.968C338.975 306.466 341.461 307.398 343.298 307.387C345.619 307.373 348.354 306.781 349.755 304.671C350.555 303.464 351.062 300.214 349.331 299.439Z" fill="#323232"/>
<path fill-rule="evenodd" clip-rule="evenodd" d="M465.906 379.039C470.95 379.481 467.894 385.787 471.241 388.294C474.434 390.686 474.863 384.084 474.863 382.2C474.861 377.633 480.334 379.321 483.666 378.565C486.509 377.921 489.613 374.925 486.218 372.373C483.767 370.53 479.703 371.385 476.858 370.897C473.003 370.236 474.149 367.624 474.063 364.613C474.033 363.51 473.658 359.576 472.253 359.266C469.68 358.698 469.527 366.026 469.354 367.42C468.62 373.32 464.626 369.726 461.453 372.683C457.306 376.55 462.902 378.776 465.906 379.039Z" fill="#323232"/>
<path fill-rule="evenodd" clip-rule="evenodd" d="M226.018 269.04C218.137 275.593 209.189 274.654 201.977 267.6C198.927 264.616 197.085 261.61 197.357 257.244C197.602 253.315 198.739 248.974 201.839 246.321C204.45 244.085 209.374 243.282 212.68 242.97C217.313 242.532 221.458 245.092 224.663 248.29C227.454 251.075 230.717 254.624 231.147 258.759C231.6 263.109 229.157 266.428 226.018 269.04ZM227.216 242.961C220.148 236.054 207.613 236.747 200.315 243.046C192.124 250.116 190.723 263.397 198.596 271.143C206.892 279.306 217.842 278.426 226.624 271.654C231.335 268.022 233.891 263.362 234.547 257.383C235.166 251.732 231.081 246.737 227.216 242.961Z" fill="#323232"/>
<path fill-rule="evenodd" clip-rule="evenodd" d="M363.897 124.073C363.103 126.688 363.653 129.475 363.794 132.14C361.553 130.718 360.158 128.181 357.752 127.003C356.598 130.237 362.348 139.488 365.967 136.456C369.277 133.681 366.834 125.937 363.897 124.073Z" fill="#323232"/>
<path fill-rule="evenodd" clip-rule="evenodd" d="M375.654 140.023C373.871 140.697 372.212 140.511 370.453 140.856C369.293 141.084 369.143 140.414 368.993 141.762C368.672 144.64 373.247 145.753 375.308 145.712C377.823 145.663 380.58 143.947 380.337 141.153C380.084 138.242 377.594 139.29 375.654 140.023Z" fill="#323232"/>
<path fill-rule="evenodd" clip-rule="evenodd" d="M377.116 127.929C376.307 127.184 374.442 124.367 373.074 124.849C372.025 125.218 372.766 126.49 373.074 127.126C374.226 129.513 376.486 131.544 378.292 133.458C376.955 133.94 374.378 134.25 375.058 136.339C375.684 138.257 378.519 137.962 379.877 137.155C384.53 134.387 379.444 130.074 377.116 127.929Z" fill="#323232"/>
<path fill-rule="evenodd" clip-rule="evenodd" d="M381.814 123.399C382.132 124.717 382.303 125.961 381.601 127.196L377.726 120.144C374.608 121.442 380.075 131.603 383.26 130.478C385.462 129.701 384.405 124.925 384.057 123.423C383.871 122.618 383.428 120.06 382.329 119.801C380.167 119.29 381.578 122.427 381.814 123.399Z" fill="#323232"/>
<path fill-rule="evenodd" clip-rule="evenodd" d="M221.933 265.651C220.135 264.306 217.157 267.455 215.256 267.466C211.415 267.488 213.507 262.916 211.103 261.434C209.849 260.662 204.601 261.441 205.43 258.242C205.929 256.317 207.879 257.706 208.948 256.53C210.288 255.056 208.377 253.881 207.188 253.275C207.71 252.569 210.717 252.259 211.472 252.748C212.777 253.592 212.701 256.125 213.898 257.43C215.45 255.419 214.608 252.892 216.261 251.086C216.904 250.384 218.782 249.857 218.051 248.605C217.628 247.879 215.773 248.118 215.138 247.541C214.585 247.037 214.612 245.411 213.718 245.275C212.257 245.055 212.292 247.32 211.853 247.974C210.534 249.94 204.733 249.262 207.137 253.25C205.536 252.439 201.166 251.798 202.014 254.629C202.231 255.353 203.057 255.796 203.262 256.621C203.44 257.336 203.048 258.355 203.011 259.073C202.942 260.434 202.835 262.025 203.828 263.12C205.191 264.625 207.014 263.53 208.478 264.185C210.471 265.076 209.753 266.93 210.804 268.55C212.181 270.67 214.298 270.019 216.248 269.377C218.573 268.612 218.94 268.543 220.641 270.508C221.419 269.488 223.549 266.86 221.933 265.651Z" fill="#323232"/>
<path fill-rule="evenodd" clip-rule="evenodd" d="M225.059 257.373C223.183 257.021 223.922 251.349 221.64 253.814C220.784 254.737 221.66 256.539 220.706 257.529C220.064 258.194 219.251 257.801 218.609 258.238C218.033 258.629 217.887 259.378 217.547 259.951C218.754 260.502 219.686 260.574 220.974 260.333C220.974 261.318 220.33 264.216 221.985 264.005C223.525 263.807 223.09 260.898 223.874 259.994C224.67 259.074 227.878 259.501 228.176 258.209C228.545 256.609 225.879 257.527 225.059 257.373Z" fill="#323232"/>
</svg>
