<svg width="728" height="554" viewBox="0 0 728 554" fill="none" xmlns="http://www.w3.org/2000/svg">
<path fill-rule="evenodd" clip-rule="evenodd" d="M464.242 456.24C439.032 461.83 413.821 467.421 388.61 473.012C385.061 473.798 381.512 474.585 377.963 475.372C379.019 442.365 380.075 409.357 381.131 376.35C381.283 371.583 381.436 366.815 381.588 362.048C375.746 367.236 369.615 372.21 364.026 377.674C356.871 384.667 349.99 391.907 342.626 398.692C329.958 410.365 316.649 421.685 301.979 430.698C286.039 440.491 267.652 446.79 249.143 448.966C242.325 449.767 236.153 449.571 229.399 448.858C223.522 448.236 217.645 447.615 211.767 446.994C209.401 446.743 207.033 446.493 204.666 446.243C204.094 446.183 202.232 446.319 201.776 445.928C200.948 445.219 200.516 442.002 200.189 440.979C198.829 436.724 197.478 432.467 196.135 428.207C192.485 416.629 188.886 405.034 185.411 393.401C182.435 383.441 179.306 373.44 177.084 363.272C176.824 362.08 176.253 360.52 176.349 359.287C176.489 357.487 175.649 357.866 177.988 357.84C183.487 357.779 189.301 359.135 194.804 359.532C200.472 359.939 206.151 360.182 211.833 360.24C241.922 360.551 276.552 357.242 300.927 337.475C309.099 330.849 317.309 323.188 323.641 314.668C332.571 302.654 337.438 286.657 338.624 271.834C339.957 255.177 337.189 237.997 333.156 221.873C332.34 218.61 332.524 217.389 333.225 213.975C333.808 211.14 334.389 208.306 334.971 205.471C335.133 204.684 335.307 201.377 335.948 200.892C337.07 200.045 342.481 200.975 343.796 200.992L360.098 201.199C370.597 201.332 381.096 201.466 391.595 201.599C397.047 201.668 402.495 202.533 407.913 203.104C419.528 204.329 431.143 205.554 442.758 206.779C445.085 207.024 447.413 207.27 449.741 207.515C448.249 220.928 446.758 234.34 445.265 247.752C444.153 257.754 448.033 267.67 450.1 277.447C454.757 299.472 459.295 321.818 461.022 344.311C462.647 365.49 462.63 386.896 463.16 408.124C463.56 424.162 463.924 440.2 464.242 456.24Z" fill="#C75000"/>
<path fill-rule="evenodd" clip-rule="evenodd" d="M302.152 51.4447C302.152 50.2133 302.514 49.3511 303.195 48.3307C304.768 49.7174 307.232 56.5938 309.854 52.1544C310.375 51.2715 310.399 47.983 312.188 49.0091C313.028 49.4908 312.798 51.8117 312.739 52.5983C312.526 55.3988 311.273 59.3059 307.712 59.1463C304.079 58.9838 302.054 54.5081 302.152 51.4447Z" fill="#3E352B"/>
<path fill-rule="evenodd" clip-rule="evenodd" d="M304.345 45.2928C298.301 46.4237 300.713 40.9078 305.139 40.4501C306.78 40.2803 309.61 40.3694 309.222 42.8277C308.877 45.0019 305.942 44.9935 304.345 45.2928Z" fill="#3E352B"/>
<path fill-rule="evenodd" clip-rule="evenodd" d="M287.601 63.4703C285.699 63.6534 282.563 60.9315 285.723 60.5998C287.182 60.447 290.246 63.2147 287.601 63.4703Z" fill="#3E352B"/>
<path fill-rule="evenodd" clip-rule="evenodd" d="M619.394 95.7237C617.938 96.8544 613.576 93.2172 612.148 92.5745C606.595 90.071 600.21 88.6865 594.241 87.6072C582.425 85.4708 570.315 84.2679 558.318 83.8847C551.001 83.6505 544.073 83.91 536.836 84.7016C535.034 84.8983 522.844 86.9623 522.545 83.5717C522.021 77.6182 554.268 77.9008 557.338 77.911C571.299 77.9594 583.909 79.5318 597.47 82.6181C601.138 83.4531 623.697 92.3808 619.394 95.7237Z" fill="#3E352B"/>
<path fill-rule="evenodd" clip-rule="evenodd" d="M233.885 194.09C226.542 196.294 218.165 195.994 211.275 192.443C210.092 191.833 207.216 190.537 208.74 189.014C210.379 187.375 214.971 190.155 216.759 190.511C225.437 192.238 236.439 188.815 242.586 182.394C245.637 179.208 247.359 175.182 248.086 170.845C248.5 168.371 248.712 165.755 248.563 163.247C248.406 160.591 247.335 157.735 248.052 155.091C251.253 157.017 251.29 162.088 251.518 165.363C251.806 169.492 251.781 173.462 250.638 177.486C248.285 185.769 241.971 191.664 233.885 194.09Z" fill="#3E352B"/>
<path fill-rule="evenodd" clip-rule="evenodd" d="M102.692 414.732C102.925 415.365 103.144 415.957 103.401 416.652C104.391 414.807 104.391 414.807 102.692 414.732ZM111.921 462.927C115.594 464.649 119.685 460.024 121.64 457.447C124.9 453.152 126.349 448.202 127.634 443.03C129.056 437.309 130.698 431.654 132.019 425.906C132.606 423.343 133.169 420.772 133.829 418.227C134.376 416.121 136.413 412.368 135.555 410.181C134.106 406.482 126.983 405.464 127.468 400.504C127.914 395.946 135.752 400.814 137.634 401.781C141.933 403.991 139.697 401.202 137.62 399.586C136.047 398.361 128.727 393.059 132.559 390.385C135.045 388.649 140.454 393.935 142.515 394.909C144.679 395.931 145.468 395.663 147.222 393.861C148.471 392.579 150.326 390.957 151.291 389.486C153.674 385.85 150.481 378.725 149.991 374.56C149.881 373.633 150.569 368.553 149.931 367.951C149.091 367.161 145.499 367.717 144.179 367.516C139.444 366.794 134.774 366.25 130.032 365.649C126.899 365.251 117.583 362.858 115.739 366.154C114.275 368.768 114.744 373.785 114.743 376.58C114.741 382.463 114.723 388.22 114.174 394.122C112.976 407.01 112.077 419.891 110.922 432.78C110.361 439.036 109.201 445.22 108.619 451.475C108.258 455.353 107.688 460.943 111.921 462.927ZM183.239 367.746C186.717 376.57 189.593 385.662 192.602 394.656C193.993 398.815 195.276 403.014 196.688 407.165C198.04 411.142 200.215 414.723 201.33 418.79C203.436 426.469 205.207 434.095 207.701 441.644C208.061 442.732 207.85 445.138 208.494 445.907C209.286 446.851 212.792 446.71 214.034 446.869C219.114 447.518 224.245 448.017 229.37 447.8C224.574 441.666 219.196 436.034 213.682 430.548C208.854 425.745 202.334 420.29 201.548 412.97C200.502 403.244 210.503 405.199 216.726 405.788C225.407 406.61 235.246 410.181 243.934 408.202C237.913 399.939 228.786 393.779 221.227 387.053C218.278 384.43 215.177 381.547 213.671 377.773C212.905 375.85 212.524 373.631 213.044 371.589C213.676 369.11 215.079 368.659 217.112 367.487C205.052 367.487 192.855 367.051 181.367 362.849C180.91 364.802 182.593 366.106 183.239 367.746ZM237.158 445.69C239.264 448.596 243.058 447.805 246.181 447.622C250.766 447.352 255.339 446.787 259.84 445.855C264.384 444.913 268.942 443.652 273.278 441.963C274.189 441.607 277.027 440.796 277.361 439.683C277.664 438.675 275.913 436.609 275.532 435.839C274.316 433.382 273.713 429.003 276.459 427.25C278.727 425.803 282.075 427.253 284.362 427.936C287.75 428.949 291.791 430.995 295.231 429.439C299.62 427.453 303.967 424.598 308.094 422.097C300.639 415.224 293.317 408.215 285.672 401.554C278.669 395.452 270.234 388.429 265.858 380.023C264.209 376.857 263.142 372.37 265.164 369.073C266.976 366.116 270.631 366.013 273.712 366.284C282.863 367.088 291.879 369.395 300.882 371.115C303.913 371.695 323.411 376.284 323.463 371.292C323.474 370.215 321.454 367.762 320.938 366.907C319.767 364.965 318.57 363.044 317.304 361.164C314.355 356.782 311.15 352.589 307.97 348.379C306.366 346.255 304.316 341.83 301.245 342.301C299.845 342.516 298.442 344.098 297.312 344.916C295.365 346.327 293.347 347.633 291.275 348.846C282.899 353.748 273.649 356.236 264.33 358.549C262.217 359.072 252.125 360.127 251.133 362.242C250.639 363.298 251.778 365.793 251.808 366.935C251.852 368.656 251.478 370.442 250.547 371.899C247.843 376.128 241.93 375.905 237.576 375.78C232.045 375.621 226.381 375.344 220.876 376.029C226.353 381.172 232.037 386.081 237.755 390.943C241.784 394.369 246.274 397.615 249.441 401.928C252.151 405.62 254.169 411.903 250.707 415.881C247.001 420.137 238.648 418.252 233.948 417.526C228.469 416.68 223.038 415.645 217.607 414.541C215.766 414.167 213.866 413.736 211.985 413.635C209.735 413.516 208.91 413.386 210.469 415.505C214.341 420.767 220.165 424.551 224.242 429.689C226.163 432.11 228.402 434.037 230.42 436.36C232.936 439.254 234.91 442.59 237.158 445.69ZM312.531 416.931C315.178 419.663 318.165 415.779 320.311 414C323.527 411.331 326.667 408.568 329.931 405.958C336.114 401.015 342.55 396.429 348.363 391.022C350.195 389.318 353.206 387.409 353.763 384.798C354.472 381.466 352.767 378.488 354.51 375.138C357.813 368.793 364.642 373.984 369.096 370.332C371.384 368.456 372.996 365.734 374.799 363.411C376.946 360.647 379.686 357.965 380.921 354.635C382.207 351.173 382.376 349.516 379.983 346.589C377.405 343.436 374.278 340.555 372.209 337.007C370.784 334.562 369.621 330.969 371.86 328.603C373.669 326.691 376.801 327.206 379.141 327.353C382.549 327.567 385.94 327.89 389.29 328.576C391.937 329.118 396.993 330.538 399.535 329.063C405.53 325.586 394.752 316.629 392.364 313.972C387.03 308.033 381.437 302.343 375.889 296.611C370.76 291.311 365.58 286.006 360.763 280.408C357.179 276.242 352.978 270.361 354.9 264.478C356.458 259.71 361.704 259.559 365.879 259.89C371.993 260.377 378.077 261.393 384.164 262.13C388.702 262.679 397.434 264.408 401.305 260.749C405.306 256.967 396.764 245.732 394.556 242.366C389.89 235.254 384.512 228.653 378.943 222.258C376.238 219.152 373.481 216.094 370.721 213.037C368.327 210.382 366.13 207.037 363.379 204.757C360.369 202.264 355.874 202.557 352.186 202.181C348.307 201.786 344.182 201.203 340.282 201.217C336.731 201.23 337.609 204.7 337.459 207.708C337.423 208.429 336.466 214.821 337.544 214.922C337.662 213.498 337.779 212.075 337.897 210.651C340.93 211.915 343.18 214.633 345.532 216.842C347.878 219.046 351.064 221.291 352.054 224.532C354.848 233.683 343.697 230.437 339.024 229.508C340.075 239.901 342.695 250.004 344.139 260.327C344.744 264.652 344.498 268.568 344.025 272.869C343.756 275.321 343.788 277.796 343.493 280.247C343.26 282.19 342.368 284.413 342.725 286.367C343.376 289.943 347.826 293.697 349.802 296.723C352.426 300.737 354.741 305.088 355.954 309.774C358.146 318.233 354.412 324.315 345.69 325.13C341.756 325.497 337.402 324.88 333.505 324.316C330.155 323.831 325.876 321.311 322.821 323.591C321.569 324.523 320.708 326.176 319.611 327.317C318.02 328.97 316.232 330.445 314.476 331.91C312.819 333.292 308.291 335.748 308.737 337.865C309.073 339.461 311.803 341.741 312.728 342.923C313.941 344.471 315.144 346.027 316.315 347.61C319.288 351.629 322.123 355.779 324.688 360.078C327.791 365.281 332.149 374.576 326.899 379.968C323.859 383.09 318.81 382.54 314.933 381.925C309.648 381.087 304.397 380.009 299.206 378.71C294.009 377.41 288.769 376.504 283.51 375.513C279.017 374.669 273.793 373.054 269.302 374.725C282.423 390.226 298.459 402.407 312.531 416.931ZM389.08 345.234C390.767 343.232 392.495 341.009 393.989 338.846C395.364 336.852 395.252 335.983 392.933 335.362C391.489 334.976 389.886 335.353 388.414 335.179C386.88 334.997 385.351 334.497 383.849 334.153C382.163 333.769 380.271 333.182 378.531 333.187C376.57 333.192 376.377 333.011 377.362 334.801C378.714 337.253 381.33 339.397 383.194 341.44C384.366 342.726 387.172 347.499 389.08 345.234ZM386.911 373.342C387.799 375.323 394.195 373.871 395.224 372.507C397.473 369.526 391.718 362.587 390.206 360.076C387.924 361.611 387.134 363.64 386.998 366.319C386.904 368.174 386.154 371.655 386.911 373.342ZM384.503 471.787C388.324 472.171 393.331 469.934 396.832 468.705C401.679 467.005 406.72 465.792 411.722 464.659C421.767 462.385 432.151 462.067 442.225 459.885C435.823 451.432 428.082 444.15 421.576 435.788C419.217 432.756 415.748 428.409 416.843 424.251C417.916 420.173 422.067 421.074 425.15 422.014C429.285 423.275 433.28 425.03 437.323 426.559C439.234 427.282 447.773 431.443 449.352 428.745C450.417 426.923 444.356 420.14 443.472 418.968C440.17 414.587 436.587 410.437 432.977 406.318C426.239 398.634 418.593 390.772 413.382 381.906C409.476 375.259 408.168 364.768 418.715 365.187C423.07 365.361 427.507 366.731 431.756 367.632C435.681 368.464 441.482 370.304 445.487 369.276C449.705 368.194 444.854 361.807 443.527 359.7C440.722 355.247 437.428 351.087 434.338 346.834C431.014 342.26 427.469 337.784 424.361 333.057C422.427 330.115 419.291 324.982 421.048 321.263C423.065 316.994 429.991 319.633 433.382 320.281C439.807 321.508 446.108 323.55 452.707 323.55C452.641 320.19 449.247 317.235 447.295 314.851C444.364 311.271 441.347 307.804 438.142 304.473C435.889 302.13 433.424 298.314 430.788 296.508C428.09 294.662 426.496 300.5 425.435 302.67C417.705 318.497 409.256 334.014 398.833 348.212C396.734 351.07 393.654 353.378 395.415 357.028C397.246 360.823 399.661 364.145 400.366 368.429C400.886 371.592 400.613 375.991 398.212 378.395C395.886 380.724 392.468 380.196 389.594 381.107C386.542 382.075 387.403 384.82 387.376 387.568C387.329 392.375 387.271 397.179 387.3 401.986C387.325 406.258 387.383 410.529 387.434 414.801C387.486 419.318 388.571 422.52 389.786 426.773C390.419 428.988 390.636 431.278 389.937 433.504C389.335 435.417 388.348 435.783 387.188 437.137C384.931 439.771 385.653 444.778 385.376 448.128C385.178 450.528 381.872 471.524 384.503 471.787ZM393.907 523.148C394.868 524.373 398.317 523.981 399.663 524.071C402.219 524.241 404.78 524.242 407.337 524.382C412.792 524.683 418.178 525.453 423.65 525.551C428.147 525.631 432.807 525.852 437.129 526.164C439.26 526.318 441.653 525.381 443.725 525.821C445.766 526.254 446.546 526.859 448.757 526.679C454.263 526.232 459.896 526.795 465.412 526.932C470.514 527.059 475.66 526.667 480.771 526.599C486.52 526.522 492.282 526.735 498.031 526.795C504.182 526.859 510.462 526.488 516.535 527.674C515.973 525.052 516.011 521.962 513.924 520.001C511.785 517.993 508.241 517.536 505.489 517.209C501.482 516.731 497.509 516.622 493.51 516.45C491.013 516.342 488.609 515.483 486.125 515.196C482.564 514.784 478.731 515.022 475.142 514.963C473.911 514.944 473.093 514.482 471.964 514.306C470.638 514.101 469.342 514.446 467.897 514.087C464.9 513.345 461.843 512.567 458.934 511.576C457.159 510.97 457.232 510.457 455.777 511.862C454.865 512.742 454.305 514.41 453.535 515.445C452.265 517.156 449.989 519.202 448.029 517.143C445.952 514.961 448.178 512.514 447.716 510.249C447.36 508.501 444.086 506.965 442.451 507.625C440.189 508.537 439.518 513.28 437.096 513.817C434.049 514.491 434.871 509.813 435.285 508.072C436.365 503.513 435.979 503.365 432.392 500.33C429.657 498.016 428.894 497.113 425.501 498.843C422.082 500.585 418.349 501.342 414.538 501.759C410.038 502.252 405.839 501.737 401.435 500.823C399.361 500.393 395.322 498.779 393.968 500.988C392.441 503.477 394.011 509.574 394.067 512.455C394.109 514.602 394.237 516.811 394.036 518.953C393.931 520.06 393.131 522.158 393.907 523.148ZM449.118 458.125C452.282 457.846 455.382 456.995 458.537 456.607C459.687 456.467 462.155 456.509 463.106 455.683C464.269 454.673 463.724 454.772 463.487 453.304C462.358 446.322 461.927 439.562 462.094 432.467C462.218 427.157 463.239 418.897 460.121 414.279C456.448 408.838 450.864 404.812 447.137 399.353C445.122 396.401 442.309 388.475 448.69 388.688C451.229 388.772 453.941 390.405 456.406 391.01C459.894 391.866 460.107 391.007 459.798 387.798C459.074 380.27 459.289 372.708 458.532 365.176C457.754 357.433 456.919 349.685 456.063 341.949C455.645 338.191 455.456 334.211 454.737 330.508C454.038 326.908 450.593 328.846 447.579 328.699C439.597 328.311 431.838 323.344 423.816 324.122C430.504 336.855 441.909 346.527 448.398 359.428C450.641 363.887 452.728 370.862 447.199 373.839C441.036 377.157 431.629 372.952 425.288 371.884C423.069 371.511 414.254 368.897 413.845 372.38C413.624 374.256 417.212 378.642 418.109 379.997C420.152 383.086 422.506 385.952 424.716 388.916C429.132 394.836 434.385 399.988 438.964 405.783C442.958 410.837 447.859 415.79 451.078 421.396C454.1 426.658 454.682 436.141 446.186 435.105C437.489 434.044 429.924 427.159 421.059 426.956C425.589 433.016 430.761 438.533 435.79 444.16C438.21 446.867 440.586 449.611 442.88 452.43C444.348 454.234 446.365 458.368 449.118 458.125ZM460.987 403.206C460.795 400.685 461.397 399.277 459.142 397.896C457.688 397.007 454.255 395.624 452.662 396.236C453.264 396.945 460.148 405.297 460.884 404.624C461.067 404.17 461.102 403.697 460.987 403.206ZM448.986 287.294C448.572 282.447 447.611 277.654 447.403 272.789C447.263 269.5 447.726 265.123 445.53 262.38C442.874 267.424 441.088 272.879 438.434 277.926C437.297 280.085 436.032 282.171 434.856 284.308C434.054 285.768 431.701 288.904 431.886 290.645C432.201 293.618 438.026 297.879 439.912 300.002C443.93 304.525 447.865 309.129 451.97 313.573C451.416 304.765 449.736 296.082 448.986 287.294ZM449.1 208.533C447.991 206.952 440.255 207.699 438.585 207.548C433.33 207.077 427.621 206.657 422.535 205.224C430.609 215.363 437.865 226.338 442.609 238.511C444.409 233.538 445.593 228.36 446.693 223.188C447.252 220.557 447.732 217.916 448.149 215.258C448.337 214.056 449.818 209.557 449.1 208.533ZM424.444 282.724C426.607 283.82 433.166 267.436 433.456 265.621C430.346 266.342 417.962 266.93 417.235 270.912C416.895 272.773 419.012 275.018 419.937 276.364C421.069 278.011 422.655 281.819 424.444 282.724ZM404.792 266.048C400.212 271.872 391.664 270.695 385.27 269.867C380.94 269.306 376.651 268.551 372.334 267.905C368.074 267.267 362.907 266.088 358.774 267.868C365.475 277.426 374.099 285.329 382.243 293.572C386.417 297.798 390.45 302.165 394.464 306.548C398.401 310.848 401.54 316.26 405.716 320.244C409.26 313.674 412.614 307.006 416.031 300.369C417.466 297.581 419.313 295.07 420.786 292.315C422.409 289.279 422.659 287.881 420.588 285.13C417.505 281.034 413.172 275.486 413.792 269.985C414.515 263.561 422.035 262.856 426.959 261.471C429.433 260.775 432.274 260.246 434.536 258.979C437.41 257.367 437.539 254.707 438.49 251.82C439.641 248.325 440.696 246.056 439.481 242.38C438.47 239.322 436.957 236.286 435.559 233.396C432.62 227.321 428.947 221.728 425.05 216.251C422.49 212.651 419.47 205.468 414.889 204.507C411.64 203.825 407.539 204.105 404.205 203.918C400.319 203.701 396.428 203.578 392.54 203.407C384.482 203.053 375.853 202.28 367.834 203.359C377.277 213.72 386.823 223.822 395.223 235.107C400.634 242.375 412.175 256.658 404.792 266.048ZM440.933 187.664C436.554 179.422 432.487 171.272 426.557 164.075C421.428 157.85 416.776 151.356 411.453 145.277C400.288 132.525 385.796 123.101 372.285 113.193C369.229 110.951 365.317 109.729 361.963 107.773C357.813 105.354 353.366 103.336 348.874 101.663C340.726 98.631 331.37 97.0831 322.693 97.6989C313.103 98.3786 305.868 101.817 299.914 109.408C294.076 116.848 293.172 125.061 293.014 134.412C292.939 138.856 292.885 143.325 292.928 147.769C292.97 152.168 293.533 154.948 296.187 158.336C298.372 161.125 302.976 162.533 306.118 163.822C310.391 165.575 314.391 167.53 318.378 169.888C320.102 170.908 324.198 174.749 326.326 174.341C329.46 173.74 330.228 168.095 330.54 165.59C331.707 156.218 331.583 146.634 331.017 137.217C330.728 132.394 328.517 125.149 329.77 120.269C330.289 118.241 331.477 117.522 332.943 119.312C334.757 121.527 335.203 126.724 335.671 129.394C337.323 138.8 337.213 148.255 337.267 157.766C337.289 161.546 339.368 163.505 340.73 166.873C342.473 171.178 343.9 175.671 344.758 180.245C345.258 182.9 345.61 185.605 345.572 188.314C345.552 189.801 344.829 192.167 345.393 193.581C346.485 196.323 353.269 194.789 355.543 194.738C365.678 194.509 375.785 193.961 385.936 193.829C406.486 193.561 427.183 196.659 447.308 200.592C445.224 196.263 443.187 191.907 440.933 187.664ZM432.101 143.663C433.711 143.93 439.12 146.931 440.054 145.028C440.852 143.402 436.905 137.579 436.315 136.028C434.945 132.427 434.614 128.407 433.807 124.648C433.299 122.279 433.251 117.597 431.988 115.486C430.576 113.126 427.285 114.311 424.948 114.382C420.964 114.503 416.939 114.5 412.952 114.486C408.897 114.472 404.844 114.364 400.789 114.377C396.644 114.389 392.55 113.691 388.436 113.691C388.898 115.203 390.827 115.941 392.038 116.652C393.904 117.749 395.475 119.052 397.111 120.484C400.944 123.836 404.766 126.516 407.98 130.516C410.885 134.132 414.942 137.999 418.548 140.906C420.479 142.462 421.799 142.337 424.139 142.316C426.937 142.292 429.37 143.209 432.101 143.663ZM442.03 135.606C443.036 138.737 443.131 139.656 446.396 139.434C450.593 139.147 454.8 138.88 459.004 138.571C468.595 137.867 478.193 136.413 487.785 135.922C495.963 135.503 504.794 134.501 512.92 135.366C516.713 135.769 520.756 134.993 524.624 135.146C529.293 135.333 534.006 135.313 538.474 136.772C542.197 137.988 545.308 138.646 547.968 141.793C550.649 144.963 552.478 148.957 554.26 152.686C557.715 159.917 560.419 169.357 566.496 174.833C568.031 176.216 570.653 178.564 572.886 178.304C576.56 177.875 575.433 172.936 575.11 170.431C574.023 161.989 570.757 154.693 568.319 146.631C567.591 144.221 566.148 137.855 569.921 136.968C572.636 136.329 576.902 142.391 578.462 144.019C581.898 147.605 585.261 151.084 589.102 154.241C592.273 156.847 595.46 159.726 599.843 159.167C597.746 153.427 595.431 147.868 591.996 142.803C589.047 138.455 584.077 134.542 582.234 129.541C580.846 125.775 582.075 120.637 586.392 123.951C590.141 126.828 593.387 130.348 597.219 133.174C602.248 136.881 607.957 139.954 613.919 141.787C615.891 142.394 619.391 143.568 621.281 142.121C624.1 139.964 621.225 135.461 619.642 133.478C604.8 114.878 580.117 108.207 557.595 106.805C551.725 106.439 545.619 107.027 539.726 107.111C534.133 107.19 528.943 107.885 523.416 108.715C511.944 110.437 500.447 111.838 489.024 113.559C485.966 114.019 482.338 114.931 479.293 114.812C478.039 114.762 477.388 114.421 476.137 114.761C475.07 115.051 474.302 115.632 473.112 115.827C466.343 116.935 459.453 117.367 452.594 117.456C449.294 117.497 445.962 117.434 442.687 116.996C440.759 116.738 438.784 115.924 438.241 118.249C437.831 120.002 439.198 123.323 439.668 125.011C440.627 128.462 440.956 132.263 442.03 135.606ZM319.32 75.4814C320.474 75.5255 322.375 75.7013 322.75 74.2381C323.456 71.4815 319.826 73.164 319.153 71.4285C318.404 69.4966 320.96 68.9964 322.087 68.6844C324.386 68.0473 323.795 68.1834 323.857 65.7616C323.915 63.5273 324.626 61.4924 325.519 59.4686C326.76 56.6568 326.824 56.7988 324.04 56.4758C319.354 55.9329 318.332 51.7329 316.599 47.8905C315.529 45.5194 314.345 43.2064 313.679 40.6735C313.274 39.1366 313.331 36.6942 311.851 35.8283C309.853 34.6586 305.199 35.868 303.094 36.149C299.575 36.6184 295.875 37.151 292.509 38.3495C289.623 39.3772 288.524 41.7608 285.922 42.1831C284.241 42.4553 274.118 41.8116 275.448 44.9595C276.276 46.9208 280.184 45.8004 281.625 45.7416C283.465 45.6672 285.707 45.3892 287.531 45.7541C289.353 46.1197 289.524 46.812 290.236 48.6534C288.528 48.5673 282.139 47.5984 280.744 48.8733C279.505 50.0041 280.42 51.2437 281.665 51.6594C284.096 52.4708 287.38 50.8965 289.931 51.5733C291.746 52.0551 291.62 52.1206 292.368 53.9709C292.758 54.9361 293.202 55.9234 293.367 56.9614C294.305 62.8248 289.006 58.2731 286.804 56.9746C282.774 54.5991 278.406 55.0427 279.188 60.7501C279.447 62.6386 280.45 64.291 281.738 65.6527C283.554 67.5721 284.024 67.934 284.117 70.8341C284.198 73.3295 283.934 75.9993 284.804 78.3954C285.764 81.0343 287.808 83.2833 289.404 85.5359C291.321 88.2417 293.305 90.9145 295.154 93.6688C295.952 94.8555 297.089 97.8423 298.625 98.2381C300.07 98.6097 302.311 96.2555 303.508 95.5816C306.41 93.9484 309.598 92.8853 312.581 91.4235C310.081 89.1679 307.856 86.6093 305.408 84.3434C303.496 82.5741 302.507 82.2371 303.137 79.2495C304.552 72.5475 314.487 75.2975 319.32 75.4814ZM281.736 216.318C273.836 224.081 262.09 228.934 251.404 230.888C240.211 232.935 227.447 234.451 216.542 230.493C205.362 226.435 194.907 220.599 185.442 213.338C184.278 212.445 171.241 199.526 170.191 200.545C174.064 206.431 178.128 212.171 182.234 217.89C184.251 220.7 191.226 230.37 187.215 233.869C184.559 236.186 180.04 232.452 177.859 230.955C172.609 227.351 166.76 225.411 160.378 225.411C163.327 230.904 167.809 235.768 170.207 241.57C171.339 244.312 170.763 244.114 168.203 243.368C165.001 242.436 161.368 241.358 158.026 241.205C156.472 241.133 153.317 241.827 153.054 243.887C152.802 245.858 156.924 249.575 158.075 250.986C162.291 256.161 166.589 261.071 171.802 265.243C181.808 273.251 193.686 278.414 205.776 282.249C218.128 286.167 231.328 287.347 243.955 284.193C250.211 282.631 255.95 280.511 261.553 277.348C264.09 275.916 266.758 275.268 269.197 273.584C271.732 271.836 274.301 270.092 276.888 268.428C282.216 265.001 285.519 261.554 289.237 256.404C290.732 254.333 292.784 252.798 294.21 250.758C295.78 248.512 297.395 246.223 298.859 243.858C305.611 232.953 312.227 221.231 316.163 208.937C318.192 202.599 319.57 196.078 321.273 189.647C321.859 187.434 324.021 183.177 323.57 180.93C323.135 178.762 319.754 177.882 318.081 176.962C313.194 174.279 308.291 171.897 303.523 169.044C296.937 165.102 298.104 173.185 297.677 177.853C296.409 191.728 291.815 206.412 281.736 216.318ZM337.447 221.622C338.837 222.831 342.354 223.581 344.131 223.029C342.379 220.379 339.678 218.641 337.405 216.509C337.158 217.974 336.059 220.415 337.447 221.622ZM328.966 315.899C332.165 316.136 335.503 317.111 338.675 317.136C341.504 317.159 345.083 317.393 347.832 316.777C355.416 315.075 350.932 308.111 348.293 303.566C346.833 301.053 344.987 298.804 343.466 296.334C343.098 295.739 342.079 293.309 341.265 293.228C340.067 293.107 339.694 295.101 339.117 296.32C337.555 299.624 336.111 303.038 334.337 306.233C332.554 309.446 330.064 312.328 328.966 315.899ZM246.929 364.795C246.273 361.099 235.618 364.853 233.207 365.294C232.516 365.421 224.168 366.453 224.243 367.189C227.006 367.397 247.744 369.395 246.929 364.795ZM102.036 447.313C100.403 448.034 100.461 442.762 100.386 442.062C100.234 440.653 100.043 438.115 100.748 436.877C101.266 435.969 101.418 436.43 101.697 436.191C103.976 434.23 101.224 433.391 100.711 431.828C100.553 431.348 100.539 430.023 100.774 429.622C101.447 428.473 101.634 429.333 102.433 428.851C102.969 428.528 104.057 429.325 103.742 427.853C103.483 426.638 102.567 427.384 102.108 427.003C100.364 425.557 100.542 423.659 100.821 421.348C101.087 419.152 101.342 416.802 101.979 414.723C102.306 413.656 102.752 414.137 102.716 412.877C102.697 412.219 101.713 411.57 101.68 410.743C101.641 409.715 102.58 408.066 102.633 406.982C102.702 405.56 102.716 404.324 102.559 402.979C102.463 402.155 102.248 401.856 102.203 400.853C102.162 399.908 102.366 398.802 102.385 397.818C102.44 395.023 102.808 392.214 103.292 389.541C103.576 389.122 103.799 388.672 103.963 388.189C103.85 387.688 103.661 387.219 103.397 386.78C103.323 385.502 103.347 384.255 103.363 382.958C103.391 380.554 102.939 378.272 102.8 375.902C102.76 375.198 102.487 374.024 102.968 373.373C103.336 372.877 104.62 373 104.762 372.523C105.168 371.158 103.952 371.973 103.689 371.282C103.479 370.728 103.586 369.999 103.551 369.442C103.453 367.935 105.59 357.699 107.441 359.03C106.703 358.499 108.15 354.975 108.619 354.378C110.364 352.16 111.406 354.672 112.821 356.232C114.802 358.415 116.525 357.011 119.098 356.518C122.282 355.909 125.782 356.124 129.01 356.194C132.319 356.267 135.676 356.456 138.972 356.752C142.521 357.071 145.958 358.159 149.543 358.104C154.856 358.023 160.238 358.149 165.546 357.956C166.608 357.917 169.179 358.03 169.625 356.659C169.792 356.144 168.834 355.063 168.689 354.495C168.411 353.405 168.392 351.973 168.866 350.906C170.297 347.685 173.275 350.314 175.372 351.485C178.533 353.247 181.809 354.748 185.3 355.702C199.224 359.502 215.65 359.29 229.868 357.496C244.306 355.674 258.579 351.262 272.655 347.649C285.508 344.351 297.371 337.036 307.236 328.086C317.294 318.962 325.23 306.309 330.198 293.606C335.732 279.454 331.706 265.206 331.565 250.732C331.496 243.513 329.913 236.469 329.48 229.273C329.06 222.294 329.648 215.745 331.711 208.914C332.237 207.175 332.976 205.427 333.359 203.646C333.714 201.998 333.086 200.675 333.295 199.12C333.743 195.792 337.368 196.13 338.953 193.656C340.388 191.416 338.91 187.929 338.401 185.527C337.518 181.356 336.419 177.235 335.408 173.095C334.364 175.56 333.39 178.02 332.759 180.632C332.597 181.301 332.582 182.483 332.131 183.077C331.805 183.508 330.981 183.452 330.723 183.848C329.853 185.186 329.953 186.527 329.802 188.247C329.509 191.583 328.977 194.883 328.436 198.184C326.62 209.275 325.236 220.206 320.942 230.675C313.028 249.969 302.338 267.922 286.53 281.608C279.366 287.809 270.255 291.666 261.583 294.934C251.241 298.831 241.402 300.943 230.299 299.932C219.82 298.978 209.348 295.676 199.749 291.395C190.295 287.178 181.419 283.467 173.347 276.673C164.722 269.413 156.108 260.65 150.175 250.935C148.011 247.391 144.159 240.081 145.103 235.644C146.314 229.953 154.929 233.706 158.04 234.885C155.422 230.537 148.415 222.794 151.899 217.372C156.984 209.458 170.295 217.473 175.746 220.406C172.937 214.608 168.644 209.737 165.601 204.08C164.093 201.277 159.926 189.878 166.048 189.261C167.902 189.074 169.87 191.221 171.179 192.298C173.721 194.388 176.243 196.503 178.763 198.619C184.273 203.245 190.089 207.18 196.435 210.529C209.134 217.233 221.419 220.793 235.842 219.367C248.132 218.153 261.684 214.363 271.241 206.142C276.98 201.205 281.542 195.744 284.49 188.65C287.746 180.816 289.821 172.211 292.098 164.037C288.568 163.115 286.094 163.65 286.775 159.389C287.592 154.281 287.412 149.113 287.442 143.928C287.504 133.181 287.7 122.316 291.013 112.003C291.603 110.168 292.122 108.276 293.138 106.624C294.391 104.586 295.554 104.283 293.941 102.061C290.837 97.7842 287.611 94.1279 285.309 89.2128C284.111 86.6563 282.999 84.1521 281.523 81.7626C279.103 77.8444 275.938 74.9693 272.831 71.5749C269.266 67.6795 266.472 64.0048 264.639 59.0007C263.783 56.6649 262.615 54.3409 262.173 51.8734C261.645 48.9315 262.193 45.9218 262.443 42.9783C263.271 33.2137 266.503 25.3338 275.964 21.5186C283.653 18.4177 292.492 17.0824 300.553 19.48C310.306 22.3815 314.929 31.0648 319.573 39.4677C320.884 41.8373 321.69 44.3445 322.878 46.7494C324.095 49.2147 325.359 49.2184 327.602 50.2189C332.048 52.2008 331.672 57.9178 329.741 61.6756C327.289 66.4509 327.785 71.9832 325.671 76.9682C323.506 82.0731 320.146 83.4951 315.023 84.6391C316.976 86.2135 318.757 88.2719 321.247 88.945C324.269 89.7616 327.931 88.9826 331.059 89.0274C337.555 89.1201 344.123 90.0132 350.295 92.1202C356.356 94.189 361.789 97.4995 367.424 100.462C370 101.816 372.402 103.748 375.346 104.141C378.201 104.523 381.078 103.809 383.95 104.183C390.248 105.005 397.151 103.969 403.574 103.827C410.491 103.674 417.433 103.772 424.336 103.258C427.318 103.037 430.264 102.718 433.256 102.983C435.975 103.222 437.597 102.572 439.948 104.461C441.511 105.716 442.756 108.788 444.598 109.206C446.562 109.653 450.43 108.404 452.369 108.107C458.888 107.11 465.459 105.791 471.937 104.575C474.973 104.004 477.835 102.966 480.897 102.429C484.057 101.875 487.338 101.695 490.46 100.982C495.512 99.8287 500.967 99.399 506.234 98.6619C512.403 97.7989 518.746 95.9789 524.964 95.7486C550.989 94.7849 580.16 93.2171 603.236 107.859C608.654 111.296 614.221 115.686 618.395 120.604C622.23 125.122 626.938 131.099 627.916 137.119C628.79 142.492 628.152 151.906 621.071 151.971C614.166 152.035 607.07 147.852 601.129 144.754C603.666 150.927 611.379 164.15 604.684 170.144C597.775 176.33 585.055 162.907 580.492 158.598C581.394 165.194 587.833 189.164 575.649 189.536C563.757 189.898 556.857 175.024 552.62 166.194C550.384 161.532 548.715 156.054 545.084 152.26C541.433 148.446 536.371 148.573 531.429 148.085C519.417 146.9 507.471 146.838 495.39 146.544C480.099 146.174 465.082 148.73 449.771 147.286C449.964 150.282 448.843 155.734 445.852 156.881C441.445 158.571 436.04 156.141 431.529 156.141C431.832 157.973 434.402 159.903 435.484 161.285C437.425 163.764 439.095 166.422 440.656 169.158C443.706 174.504 446.95 179.858 449.115 185.652C450.204 188.567 451.134 191.573 451.919 194.586C452.37 196.319 452.362 198.908 453.276 200.44C454.411 202.344 456.156 201.245 457.595 202.738C459.668 204.891 457.504 206.024 456.85 207.922C456.142 209.975 457.032 213.454 456.761 215.711C456.357 219.1 455.928 222.513 455.374 225.88C454.361 232.035 452.211 237.727 450.773 243.736C449.407 249.435 453.102 255.462 454.321 260.975C455.737 267.374 456.558 273.848 458.012 280.236C459.547 286.979 460.259 293.924 461.318 300.754C462.351 307.428 463.839 314.021 464.849 320.699C466.774 333.427 467.997 346.387 469.513 359.166C470.309 365.864 470.921 372.65 470.979 379.401C471.034 385.722 471.913 391.895 472.042 398.204C472.178 404.891 472.255 411.584 472.54 418.266C472.821 424.875 472.013 431.457 471.718 438.056C471.577 441.202 471.473 444.353 471.519 447.502C471.557 450.16 472.276 453.27 471.626 455.872C470.342 461.014 463.21 464.103 458.732 465.599C453.259 467.429 447.481 468.693 441.877 470.044C439.147 470.703 436.382 471.263 433.606 471.677C432.527 471.838 431.276 471.772 430.268 472.238C428.75 472.939 429.049 472.586 428.969 474.339C428.839 477.17 429.656 480.271 430.081 483.046C430.472 485.601 429.974 489.802 430.947 492.093C432.055 494.698 439.86 496.831 441.77 495.064C443.117 493.818 443.503 491.462 445.09 490.413C447.375 488.901 448.425 491.019 448.414 493.295C448.405 495.01 447.127 497.078 448.664 498.331C449.996 499.417 452.804 498.848 454.091 497.955C456.235 496.464 460.684 487.241 461.773 495.086C462.029 496.934 461.244 499.087 462.788 500.49C464.235 501.804 467.724 501.746 469.55 501.98C472.463 502.355 475.014 502.48 477.955 502.416C481.238 502.344 484.339 503.126 487.567 503.274C492.596 503.502 497.642 504.193 502.784 504.294C508.034 504.398 513.755 505.789 517.793 509.403C522.429 513.552 521.475 518.682 520.591 524.24C520.007 527.916 524.628 531.886 519.963 535.1C518.092 536.389 514.984 536.118 512.832 536.137C509.156 536.172 505.519 535.737 501.838 535.945C475.025 537.46 448.108 536.331 421.301 535.433C415.038 535.224 408.533 535.515 402.324 534.747C399.557 534.405 396.812 533.917 394.039 533.616C391.668 533.359 388.836 533.783 386.571 533.001C380.962 531.065 386.964 525.176 387.411 521.813C388.28 515.284 387.911 508.365 387.954 501.786C387.998 494.792 387.954 487.797 387.954 480.803C384.971 481.013 376.602 483.255 374.264 480.657C372.331 478.51 375.62 474.026 375.782 471.447C376.439 460.937 376.217 450.416 376.998 439.897C377.805 429.049 377.706 418.297 378.041 407.447C378.399 395.857 379.21 384.309 379.21 372.702C370.865 381.666 362.896 391.509 353.617 399.499C349.643 402.922 345.314 405.883 341.164 409.074C336.487 412.669 332.133 416.669 327.484 420.299C318.835 427.051 308.549 430.999 299.411 437.002C290.174 443.071 280.318 448.07 269.684 451.073C258.059 454.358 245.732 455.449 233.703 454.82C227.931 454.518 222.189 453.765 216.505 452.713C214.136 452.274 211.79 451.702 209.42 451.271C206.067 450.661 204.434 451.231 201.295 451.854C197.17 452.673 196.144 446.559 194.92 443.621C192.665 438.2 191.689 432.277 189.694 426.733C186.204 417.037 182.989 407.451 179.901 397.592C179.2 395.355 178.734 391.475 176.105 391.16C174.33 390.947 171.274 392.956 169.534 393.51C166.509 394.474 163.642 394.907 160.491 394.987C157.836 395.053 157.518 396.063 155.858 397.98C154.337 399.738 151.589 400.746 152.106 403.298C152.412 404.809 153.993 405.976 154.289 407.682C155.35 413.809 149.289 408.512 147.158 407.174C145.868 410.062 155.617 413.268 152.064 417.357C150.325 419.359 146.697 416.318 144.966 415.54C140.929 413.727 140.315 418.659 139.24 421.854C137.267 427.721 135.946 433.878 134.434 439.882C132.977 445.666 131.793 451.577 129.494 457.099C127.446 462.021 123.879 465.234 121.331 469.679C120.077 471.865 118.693 473.441 115.983 473.545C114.15 473.615 110.758 472.883 109.027 472.174C107.391 471.504 105.618 469.464 104.475 468.184C102.887 466.406 103.201 464.688 101.916 462.513C101.971 463.605 102.211 464.621 102.269 465.688C99.9229 463.814 102.262 460.867 101.836 458.491C101.702 457.738 100.937 457.107 100.894 456.318C100.875 455.994 101.556 455.251 101.602 454.8C101.656 454.266 101.699 452.715 101.55 452.32C101.442 452.035 100.539 450.586 100.558 450.848C100.545 450.656 100.226 450.354 100.397 449.721C100.656 448.764 102.155 448.594 102.036 447.313Z" fill="#3E352B"/>
</svg>
